<?xml version="1.0" standalone="no"?><!DOCTYPE svg PUBLIC "-//W3C//DTD SVG 1.1//EN" "http://www.w3.org/Graphics/SVG/1.1/DTD/svg11.dtd"><svg t="1772512842088" class="icon" viewBox="0 0 1024 1024" version="1.1" xmlns="http://www.w3.org/2000/svg" p-id="1107" xmlns:xlink="http://www.w3.org/1999/xlink" width="200" height="200"><path d="M508.0064 963.4304a33.1776 33.1776 0 0 1-5.5296-0.512 563.2 563.2 0 0 1-293.6832-156.672c-74.5984-74.8032-119.1424-162.5088-119.1424-234.496V248.3712a70.5024 70.5024 0 0 1 65.1264-69.9392 740.9152 740.9152 0 0 0 316.8768-101.1712 70.144 70.144 0 0 1 72.6528 0 740.9152 740.9152 0 0 0 316.8768 101.1712 70.5536 70.5536 0 0 1 65.1776 69.9392v323.3792c0 145.92-180.3264 348.5696-412.8256 391.168a33.6384 33.6384 0 0 1-5.5296 0.512z m0-834.56a8.96 8.96 0 0 0-4.5568 1.2288C455.68 158.72 326.4 227.2768 159.3344 239.6672a8.7552 8.7552 0 0 0-8.2432 8.704v323.3792c0 104.3456 142.1312 287.6416 356.9152 329.6768 214.784-42.0352 356.9152-225.28 356.9152-329.6768V248.3712a8.7552 8.7552 0 0 0-8.2432-8.704c-167.1168-12.3904-296.3456-80.896-344.1152-109.824a9.216 9.216 0 0 0-4.5568-1.2288z" fill="#6366f1" p-id="1108"></path><path d="M472.9856 644.096h-0.9216a30.72 30.72 0 0 1-22.4768-10.8032l-95.6928-112.64a30.72 30.72 0 0 1 46.848-39.7312l73.5744 86.6304 142.848-149.5552a30.72 30.72 0 1 1 44.4416 42.3936l-166.4 174.08a30.72 30.72 0 0 1-22.2208 9.6256z" fill="#6366f1" p-id="1109"></path></svg>