<?xml version="1.0" standalone="no"?><!DOCTYPE svg PUBLIC "-//W3C//DTD SVG 1.1//EN" "http://www.w3.org/Graphics/SVG/1.1/DTD/svg11.dtd"><svg t="1772512866943" class="icon" viewBox="0 0 1024 1024" version="1.1" xmlns="http://www.w3.org/2000/svg" p-id="1886" xmlns:xlink="http://www.w3.org/1999/xlink" width="200" height="200"><path d="M514.816 779.1616a289.8432 289.8432 0 0 1-132.2496-33.024 30.72 30.72 0 0 1 30.3616-53.4528c4.4544 2.5088 100.7104 54.9376 192.9216 0.3072a30.72 30.72 0 0 1 31.3344 52.8896 237.4144 237.4144 0 0 1-122.368 33.28z" fill="#6366f1" p-id="1887"></path><path d="M897.6896 434.8416a387.9424 387.9424 0 0 0-774.8096 0 103.6288 103.6288 0 0 0-74.8032 99.3792V624.64a103.5264 103.5264 0 0 0 103.3728 103.3728h3.328A103.5264 103.5264 0 0 0 258.2016 624.64v-90.4192A103.5264 103.5264 0 0 0 184.6784 435.2a326.4512 326.4512 0 0 1 651.4176 0 103.5264 103.5264 0 0 0-73.5232 98.9696V624.64a103.5264 103.5264 0 0 0 61.44 94.464c-29.5424 53.3504-111.7184 158.208-308.48 180.0704a30.72 30.72 0 0 0 3.3792 61.44 26.2144 26.2144 0 0 0 3.4304 0c251.904-27.9552 342.1184-179.2 366.7968-234.1376A103.5776 103.5776 0 0 0 972.8 624.64v-90.4192a103.6288 103.6288 0 0 0-75.1104-99.3792zM196.7616 624.64a41.984 41.984 0 0 1-41.984 41.9328h-3.328a41.984 41.984 0 0 1-41.9328-41.9328v-90.4192a42.0352 42.0352 0 0 1 41.9328-41.984h3.328a42.0352 42.0352 0 0 1 41.984 41.984zM911.36 624.64a41.984 41.984 0 0 1-41.984 41.9328h-3.328a41.984 41.984 0 0 1-41.9328-41.9328v-90.4192a42.0352 42.0352 0 0 1 41.9328-41.984h3.328a42.0352 42.0352 0 0 1 41.984 41.984z" fill="#6366f1" p-id="1888"></path></svg>