<?xml version="1.0" standalone="no"?><!DOCTYPE svg PUBLIC "-//W3C//DTD SVG 1.1//EN" "http://www.w3.org/Graphics/SVG/1.1/DTD/svg11.dtd"><svg t="1772512863740" class="icon" viewBox="0 0 1024 1024" version="1.1" xmlns="http://www.w3.org/2000/svg" p-id="1731" xmlns:xlink="http://www.w3.org/1999/xlink" width="200" height="200"><path d="M544.1024 453.1712a60.672 60.672 0 0 1-32.1024-9.0624l-82.2272-50.7904-82.432 50.7904a60.8256 60.8256 0 0 1-92.7744-51.7632V120.3712a30.72 30.72 0 0 1 30.72-30.72h288.9216a30.72 30.72 0 0 1 30.72 30.72v271.9744a60.7232 60.7232 0 0 1-60.8256 60.8256zM429.7728 326.5024a31.0272 31.0272 0 0 1 16.128 4.5568l97.5872 60.2112V151.0912H316.0064v240.1792l97.6384-60.2112a30.72 30.72 0 0 1 16.128-4.5568z" fill="#6366f1" p-id="1732"></path><path d="M742.7584 941.1584H281.2416A204.1856 204.1856 0 0 1 77.2608 737.28V293.5808a204.1856 204.1856 0 0 1 203.9808-203.9296h461.5168a204.1856 204.1856 0 0 1 203.9808 203.9296V737.28a204.1856 204.1856 0 0 1-203.9808 203.8784zM281.2416 151.0912a142.6432 142.6432 0 0 0-142.5408 142.4896V737.28a142.6944 142.6944 0 0 0 142.5408 142.5408h461.5168A142.6944 142.6944 0 0 0 885.2992 737.28V293.5808a142.6432 142.6432 0 0 0-142.5408-142.4896z" fill="#6366f1" p-id="1733"></path></svg>