<?xml version="1.0" standalone="no"?><!DOCTYPE svg PUBLIC "-//W3C//DTD SVG 1.1//EN" "http://www.w3.org/Graphics/SVG/1.1/DTD/svg11.dtd"><svg height="1200" node-id="1" sillyvg="true" template-height="1200" template-width="1200" version="1.1" viewBox="0 0 1200 1200" width="1200" xmlns="http://www.w3.org/2000/svg" xmlns:xlink="http://www.w3.org/1999/xlink"><defs node-id="67"><linearGradient gradientUnits="objectBoundingBox" id="未命名的渐变_7" node-id="5" spreadMethod="pad" x1="607.19" x2="607.19" y1="1061.71" y2="678.62"><stop offset="0.25" stop-color="#ffffff"></stop><stop offset="1" stop-color="#fcf2de"></stop></linearGradient><linearGradient gradientUnits="objectBoundingBox" id="未命名的渐变_57" node-id="8" spreadMethod="pad" x1="1055.14" x2="1055.14" y1="686.2" y2="845.34"><stop offset="0" stop-color="#ffffff"></stop><stop offset="0.83" stop-color="#e8d3af"></stop></linearGradient><linearGradient gradientUnits="objectBoundingBox" id="未命名的渐变_57-2" node-id="11" spreadMethod="pad" x1="173.7" x2="173.7" y1="726.62" y2="837.82"><stop offset="0" stop-color="#ffffff"></stop><stop offset="0.83" stop-color="#e8d3af"></stop></linearGradient><linearGradient gradientUnits="objectBoundingBox" id="未命名的渐变_11" node-id="12" spreadMethod="pad" x1="159.52" x2="197.95" y1="243.13" y2="309.69"><stop offset="0.02" stop-color="#fdf2dd"></stop><stop offset="1" stop-color="#ddd0b6"></stop></linearGradient><linearGradient gradientUnits="objectBoundingBox" id="未命名的渐变_11-2" node-id="15" spreadMethod="pad" x1="1046.64" x2="1098.12" y1="408.24" y2="497.4"><stop offset="0.02" stop-color="#fdf2dd"></stop><stop offset="1" stop-color="#ddd0b6"></stop></linearGradient><linearGradient gradientUnits="objectBoundingBox" id="未命名的渐变_11-3" node-id="16" spreadMethod="pad" x1="1084.12" x2="1117.54" y1="567.04" y2="624.93"><stop offset="0.02" stop-color="#fdf2dd"></stop><stop offset="1" stop-color="#ddd0b6"></stop></linearGradient><linearGradient gradientUnits="objectBoundingBox" id="未命名的渐变_11-4" node-id="17" spreadMethod="pad" x1="123.45" x2="156.87" y1="615.68" y2="673.57"><stop offset="0.02" stop-color="#fdf2dd"></stop><stop offset="1" stop-color="#ddd0b6"></stop></linearGradient><linearGradient gradientUnits="objectBoundingBox" id="未命名的渐变_11-5" node-id="18" spreadMethod="pad" x1="673.08" x2="693.64" y1="140.91" y2="176.52"><stop offset="0.02" stop-color="#fdf2dd"></stop><stop offset="1" stop-color="#ddd0b6"></stop></linearGradient><linearGradient gradientUnits="objectBoundingBox" id="未命名的渐变_7-2" node-id="19" spreadMethod="pad" x1="338.94" x2="368.36" y1="159.97" y2="210.92"><stop offset="0.25" stop-color="#ffffff"></stop><stop offset="1" stop-color="#fcf2de"></stop></linearGradient><linearGradient gradientUnits="objectBoundingBox" id="未命名的渐变_7-3" node-id="20" spreadMethod="pad" x1="843.41" x2="872.82" y1="186.39" y2="237.34"><stop offset="0.25" stop-color="#ffffff"></stop><stop offset="1" stop-color="#fcf2de"></stop></linearGradient><linearGradient gradientUnits="objectBoundingBox" id="未命名的渐变_58" node-id="21" spreadMethod="pad" x1="930.57" x2="930.57" y1="968.23" y2="902.97"><stop offset="0.24" stop-color="#ffffff"></stop><stop offset="0.98" stop-color="#e5c798"></stop></linearGradient><linearGradient gradientUnits="objectBoundingBox" id="未命名的渐变_58-2" node-id="24" spreadMethod="pad" x1="173.7" x2="173.7" y1="954.26" y2="889"><stop offset="0.24" stop-color="#ffffff"></stop><stop offset="0.98" stop-color="#e5c798"></stop></linearGradient><linearGradient gradientUnits="objectBoundingBox" id="未命名的渐变_53" node-id="25" spreadMethod="pad" x1="675.93" x2="675.93" y1="1043.25" y2="865.27"><stop offset="0.24" stop-color="#ffffff"></stop><stop offset="0.98" stop-color="#dac49b"></stop></linearGradient><linearGradient gradientUnits="objectBoundingBox" id="未命名的渐变_18" node-id="28" spreadMethod="pad" x1="1052.37" x2="889.92" y1="-667.85" y2="-667.85"><stop offset="0.24" stop-color="#f5efe4"></stop><stop offset="0.98" stop-color="#dac49b"></stop></linearGradient><linearGradient gradientUnits="objectBoundingBox" id="未命名的渐变_53-2" node-id="31" spreadMethod="pad" x1="448.42" x2="964.91" y1="484.55" y2="484.55"><stop offset="0.24" stop-color="#ffffff"></stop><stop offset="0.98" stop-color="#dac49b"></stop></linearGradient><linearGradient gradientUnits="objectBoundingBox" id="未命名的渐变_53-3" node-id="32" spreadMethod="pad" x1="424.62" x2="424.62" y1="824.66" y2="149.4"><stop offset="0.24" stop-color="#ffffff"></stop><stop offset="0.98" stop-color="#dac49b"></stop></linearGradient><linearGradient gradientUnits="objectBoundingBox" id="未命名的渐变_20" node-id="33" spreadMethod="pad" x1="424.62" x2="590.89" y1="516.06" y2="516.06"><stop offset="0.24" stop-color="#ece0cb"></stop><stop offset="0.98" stop-color="#dac49b"></stop></linearGradient><linearGradient gradientUnits="objectBoundingBox" id="未命名的渐变_20-2" node-id="36" spreadMethod="pad" x1="600.89" x2="248.35" y1="487.03" y2="487.03"><stop offset="0.24" stop-color="#ece0cb"></stop><stop offset="0.98" stop-color="#dac49b"></stop></linearGradient><linearGradient gradientUnits="objectBoundingBox" id="未命名的渐变_21" node-id="37" spreadMethod="pad" x1="792.66" x2="900.53" y1="544.8" y2="544.8"><stop offset="0.02" stop-color="#f1e1c5"></stop><stop offset="1" stop-color="#ccb48d"></stop></linearGradient><linearGradient gradientUnits="objectBoundingBox" id="未命名的渐变_27" node-id="40" spreadMethod="pad" x1="792.66" x2="889.76" y1="543.87" y2="543.87"><stop offset="0.25" stop-color="#ffffff"></stop><stop offset="1" stop-color="#f9f1e4"></stop></linearGradient></defs><path d="M 1109.99 870.17 C 1109.99 920.97 1057.02 969.69 962.72 1005.61 C 868.43 1041.53 740.54 1061.71 607.19 1061.71 C 473.84 1061.71 345.95 1041.53 251.66 1005.61 C 157.36 969.69 104.39 920.97 104.39 870.17 C 104.39 819.37 157.36 770.65 251.66 734.73 C 345.95 698.81 473.84 678.63 607.19 678.63 C 740.54 678.63 868.43 698.81 962.72 734.73 C 1057.02 770.65 1109.99 819.37 1109.99 870.17 Z" fill="url(#未命名的渐变_7)" fill-rule="nonzero" node-id="191" stroke="none" target-height="383.07996" target-width="1005.6" target-x="104.390015" target-y="678.63"></path><path d="M 1100.13 786.00 L 1065.13 693.06 C 1063.57 688.91 1059.60 686.15 1055.16 686.15 C 1050.72 686.15 1046.75 688.91 1045.19 693.06 L 1010.19 786.00 C 1008.95 789.28 1009.41 792.95 1011.40 795.83 C 1013.40 798.71 1016.69 800.42 1020.19 800.41 L 1049.00 800.41 L 1049.00 842.80 C 1049.00 846.19 1061.26 846.19 1061.26 842.80 L 1061.26 800.45 L 1090.15 800.45 C 1093.66 800.46 1096.95 798.74 1098.94 795.85 C 1100.94 792.96 1101.38 789.28 1100.13 786.00 Z" fill="url(#未命名的渐变_57)" fill-rule="nonzero" node-id="193" stroke="none" target-height="160.03546" target-width="92.42914" target-x="1008.9532" target-y="686.15454"></path><path d="M 205.14 796.38 L 180.67 731.44 C 179.58 728.54 176.81 726.62 173.71 726.62 C 170.61 726.62 167.83 728.54 166.74 731.44 L 142.26 796.38 C 141.40 798.67 141.72 801.24 143.12 803.25 C 144.51 805.26 146.81 806.46 149.26 806.45 L 169.45 806.45 L 169.45 836.05 C 169.45 838.41 178.02 838.41 178.02 836.05 L 178.02 806.45 L 198.21 806.45 C 200.65 806.44 202.93 805.24 204.31 803.23 C 205.69 801.22 206.00 798.66 205.14 796.38 Z" fill="url(#未命名的渐变_57-2)" fill-rule="nonzero" node-id="195" stroke="none" target-height="111.79413" target-width="64.60315" target-x="141.39879" target-y="726.61584"></path><g node-id="252"><path d="M 178.73 232.03 L 186.51 267.46 L 217.31 276.41 L 186.51 285.35 L 178.73 320.78 L 170.96 285.35 L 140.16 276.41 L 170.96 267.46 L 178.73 232.03 Z" fill="url(#未命名的渐变_11)" fill-opacity="0.9" fill-rule="nonzero" group-id="1" node-id="199" stroke="none" target-height="88.75" target-width="77.149994" target-x="140.16" target-y="232.03"></path></g><path d="M 1072.38 393.38 L 1082.79 440.84 L 1124.05 452.82 L 1082.79 464.81 L 1072.38 512.27 L 1061.96 464.81 L 1020.71 452.82 L 1061.96 440.84 L 1072.38 393.38 Z" fill="url(#未命名的渐变_11-2)" fill-rule="nonzero" node-id="202" stroke="none" target-height="118.890015" target-width="103.34003" target-x="1020.71" target-y="393.38"></path><g node-id="253"><path d="M 1100.83 557.40 L 1107.59 588.21 L 1134.37 595.99 L 1107.59 603.77 L 1100.83 634.58 L 1094.07 603.77 L 1067.28 595.99 L 1094.07 588.21 L 1100.83 557.40 Z" fill="url(#未命名的渐变_11-3)" fill-opacity="0.7" fill-rule="nonzero" group-id="2" node-id="206" stroke="none" target-height="77.17999" target-width="67.089966" target-x="1067.28" target-y="557.4"></path></g><g node-id="254"><path d="M 140.16 606.03 L 146.92 636.84 L 173.70 644.62 L 146.92 652.40 L 140.16 683.21 L 133.40 652.40 L 106.61 644.62 L 133.40 636.84 L 140.16 606.03 Z" fill="url(#未命名的渐变_11-4)" fill-opacity="0.7" fill-rule="nonzero" group-id="3" node-id="211" stroke="none" target-height="77.17999" target-width="67.09" target-x="106.61" target-y="606.03"></path></g><g node-id="255"><path d="M 683.36 134.97 L 687.52 153.93 L 704.00 158.72 L 687.52 163.50 L 683.36 182.46 L 679.20 163.50 L 662.72 158.72 L 679.20 153.93 L 683.36 134.97 Z" fill="url(#未命名的渐变_11-5)" fill-opacity="0.6" fill-rule="nonzero" group-id="4" node-id="216" stroke="none" target-height="47.490005" target-width="41.28003" target-x="662.72" target-y="134.97"></path></g><path d="M 383.06 185.45 C 383.06 201.69 369.89 214.86 353.65 214.86 C 337.41 214.86 324.24 201.69 324.24 185.45 C 324.24 169.21 337.41 156.04 353.65 156.04 C 369.89 156.04 383.06 169.21 383.06 185.45 Z" fill="url(#未命名的渐变_7-2)" fill-rule="nonzero" node-id="219" stroke="none" target-height="58.820007" target-width="58.820007" target-x="324.24" target-y="156.04"></path><path d="M 887.52 211.87 C 887.52 228.11 874.35 241.28 858.11 241.28 C 841.87 241.28 828.70 228.11 828.70 211.87 C 828.70 195.63 841.87 182.46 858.11 182.46 C 874.35 182.46 887.52 195.63 887.52 211.87 Z" fill="url(#未命名的渐变_7-3)" fill-rule="nonzero" node-id="221" stroke="none" target-height="58.820007" target-width="58.819946" target-x="828.7" target-y="182.45999"></path><g node-id="256"><path d="M 1001.39 935.60 C 1001.39 953.62 969.68 968.23 930.57 968.23 C 891.46 968.23 859.75 953.62 859.75 935.60 C 859.75 917.58 891.46 902.97 930.57 902.97 C 969.68 902.97 1001.39 917.58 1001.39 935.60 Z" fill="url(#未命名的渐变_58)" fill-opacity="0.5" fill-rule="nonzero" group-id="5" node-id="225" stroke="none" target-height="65.26001" target-width="141.64001" target-x="859.75" target-y="902.97"></path></g><g node-id="257"><path d="M 244.52 921.63 C 244.52 939.65 212.81 954.26 173.70 954.26 C 134.59 954.26 102.88 939.65 102.88 921.63 C 102.88 903.61 134.59 889.00 173.70 889.00 C 212.81 889.00 244.52 903.61 244.52 921.63 Z" fill="url(#未命名的渐变_58-2)" fill-opacity="0.5" fill-rule="nonzero" group-id="6" node-id="230" stroke="none" target-height="65.26001" target-width="141.64001" target-x="102.87999" target-y="889"></path></g><path d="M 755.14 865.27 L 442.61 1043.25 L 909.26 1043.25 L 755.14 865.27 Z" fill="url(#未命名的渐变_53)" fill-rule="nonzero" node-id="233" stroke="none" target-height="177.97998" target-width="466.65002" target-x="442.61" target-y="865.27"></path><g node-id="258"><path d="M 772.68 493.47 L 866.60 510.89 C 884.77 514.26 896.77 531.72 893.40 549.89 L 828.69 898.67 C 820.51 942.78 778.12 971.90 734.02 963.71 L 734.02 963.71 C 689.91 955.53 660.79 913.15 668.98 869.04 L 733.68 520.27 C 737.05 502.10 754.51 490.11 772.68 493.48 Z" fill="url(#未命名的渐变_18)" fill-rule="nonzero" group-id="7" node-id="237" stroke="none" target-height="481.78955" target-width="235.97296" target-x="660.79297" target-y="490.10754"></path></g><path d="M 448.42 526.05 L 472.72 163.77 C 472.72 163.77 640.14 354.69 787.72 386.93 C 811.54 392.03 856.72 395.86 895.80 398.40 C 935.70 401.00 966.29 434.88 964.80 474.84 L 958.59 639.84 C 957.82 659.93 948.90 678.84 933.88 692.20 C 918.86 705.56 899.04 712.21 879.00 710.63 C 848.74 708.21 812.15 705.74 774.20 704.20 C 606.20 697.42 480.20 805.33 480.20 805.33 Z" fill="url(#未命名的渐变_53-2)" fill-rule="nonzero" node-id="240" stroke="none" target-height="641.56" target-width="517.8668" target-x="448.42" target-y="163.77"></path><path d="M 590.89 487.03 C 590.89 673.50 516.45 824.66 424.62 824.66 C 332.79 824.66 258.35 673.50 258.35 487.03 C 258.35 300.56 332.79 149.40 424.62 149.40 C 516.45 149.40 590.89 300.56 590.89 487.03 Z" fill="url(#未命名的渐变_53-3)" fill-rule="nonzero" node-id="242" stroke="none" target-height="675.2601" target-width="332.54004" target-x="258.34998" target-y="149.39998"></path><path d="M 424.62 516.06 L 424.62 516.06 C 424.62 574.89 472.32 622.59 531.15 622.59 L 576.93 622.59 C 585.93 581.10 590.93 535.25 590.93 487.03 C 590.95 461.13 589.48 435.25 586.52 409.52 L 531.15 409.52 C 472.31 409.53 424.62 457.22 424.62 516.06 Z" fill="url(#未命名的渐变_20)" fill-rule="nonzero" node-id="244" stroke="none" target-height="213.07" target-width="166.3274" target-x="424.62" target-y="409.52002"></path><path d="M 590.89 487.03 C 590.89 673.50 516.45 824.66 424.62 824.66 C 332.79 824.66 258.35 673.50 258.35 487.03 C 258.35 300.56 332.79 149.40 424.62 149.40 C 516.45 149.40 590.89 300.56 590.89 487.03 Z" fill="none" node-id="246" stroke="url(#未命名的渐变_20-2)" stroke-linecap="butt" stroke-width="20" target-height="675.2601" target-width="332.54004" target-x="258.34998" target-y="149.39998"></path><path d="M 900.52 544.80 C 900.52 574.58 876.37 598.73 846.59 598.73 C 816.81 598.73 792.66 574.58 792.66 544.80 C 792.66 515.02 816.81 490.87 846.59 490.87 C 876.37 490.87 900.52 515.02 900.52 544.80 Z" fill="url(#未命名的渐变_21)" fill-rule="nonzero" node-id="248" stroke="none" target-height="107.859985" target-width="107.859985" target-x="792.66003" target-y="490.87"></path><path d="M 889.76 543.87 C 889.76 570.68 868.02 592.42 841.21 592.42 C 814.40 592.42 792.66 570.68 792.66 543.87 C 792.66 517.06 814.40 495.32 841.21 495.32 C 868.02 495.32 889.76 517.06 889.76 543.87 Z" fill="url(#未命名的渐变_27)" fill-rule="nonzero" node-id="250" stroke="none" target-height="97.099945" target-width="97.099976" target-x="792.66003" target-y="495.32004"></path></svg>