<?xml version="1.0" standalone="no"?><!DOCTYPE svg PUBLIC "-//W3C//DTD SVG 1.1//EN" "http://www.w3.org/Graphics/SVG/1.1/DTD/svg11.dtd"><svg height="1200" node-id="1" sillyvg="true" template-height="1200" template-width="1200" version="1.1" viewBox="0 0 1200 1200" width="1200" xmlns="http://www.w3.org/2000/svg" xmlns:xlink="http://www.w3.org/1999/xlink"><defs node-id="83"><linearGradient gradientUnits="objectBoundingBox" id="未命名的渐变_7" node-id="5" spreadMethod="pad" x1="600.33" x2="600.33" y1="1061.71" y2="678.62"><stop offset="0.25" stop-color="#ffffff"></stop><stop offset="1" stop-color="#fcf2de"></stop></linearGradient><linearGradient gradientUnits="objectBoundingBox" id="未命名的渐变_57" node-id="8" spreadMethod="pad" x1="1048.29" x2="1048.29" y1="686.2" y2="845.34"><stop offset="0" stop-color="#ffffff"></stop><stop offset="0.83" stop-color="#e8d3af"></stop></linearGradient><linearGradient gradientUnits="objectBoundingBox" id="未命名的渐变_57-2" node-id="11" spreadMethod="pad" x1="166.85" x2="166.85" y1="726.62" y2="837.82"><stop offset="0" stop-color="#ffffff"></stop><stop offset="0.83" stop-color="#e8d3af"></stop></linearGradient><linearGradient gradientUnits="objectBoundingBox" id="未命名的渐变_11" node-id="12" spreadMethod="pad" x1="152.66" x2="191.09" y1="243.13" y2="309.69"><stop offset="0.02" stop-color="#fdf2dd"></stop><stop offset="1" stop-color="#ddd0b6"></stop></linearGradient><linearGradient gradientUnits="objectBoundingBox" id="未命名的渐变_11-2" node-id="15" spreadMethod="pad" x1="1039.78" x2="1091.26" y1="408.24" y2="497.4"><stop offset="0.02" stop-color="#fdf2dd"></stop><stop offset="1" stop-color="#ddd0b6"></stop></linearGradient><linearGradient gradientUnits="objectBoundingBox" id="未命名的渐变_11-3" node-id="16" spreadMethod="pad" x1="1077.26" x2="1110.68" y1="567.04" y2="624.93"><stop offset="0.02" stop-color="#fdf2dd"></stop><stop offset="1" stop-color="#ddd0b6"></stop></linearGradient><linearGradient gradientUnits="objectBoundingBox" id="未命名的渐变_11-4" node-id="17" spreadMethod="pad" x1="116.59" x2="150.01" y1="615.68" y2="673.57"><stop offset="0.02" stop-color="#fdf2dd"></stop><stop offset="1" stop-color="#ddd0b6"></stop></linearGradient><linearGradient gradientUnits="objectBoundingBox" id="未命名的渐变_11-5" node-id="18" spreadMethod="pad" x1="666.22" x2="686.78" y1="140.91" y2="176.52"><stop offset="0.02" stop-color="#fdf2dd"></stop><stop offset="1" stop-color="#ddd0b6"></stop></linearGradient><linearGradient gradientUnits="objectBoundingBox" id="未命名的渐变_7-2" node-id="19" spreadMethod="pad" x1="332.08" x2="361.5" y1="159.97" y2="210.92"><stop offset="0.25" stop-color="#ffffff"></stop><stop offset="1" stop-color="#fcf2de"></stop></linearGradient><linearGradient gradientUnits="objectBoundingBox" id="未命名的渐变_7-3" node-id="20" spreadMethod="pad" x1="836.55" x2="865.96" y1="186.39" y2="237.34"><stop offset="0.25" stop-color="#ffffff"></stop><stop offset="1" stop-color="#fcf2de"></stop></linearGradient><linearGradient gradientUnits="objectBoundingBox" id="未命名的渐变_58" node-id="21" spreadMethod="pad" x1="923.72" x2="923.72" y1="968.23" y2="902.97"><stop offset="0.24" stop-color="#ffffff"></stop><stop offset="0.98" stop-color="#e5c798"></stop></linearGradient><linearGradient gradientUnits="objectBoundingBox" id="未命名的渐变_58-2" node-id="24" spreadMethod="pad" x1="166.85" x2="166.85" y1="954.26" y2="889"><stop offset="0.24" stop-color="#ffffff"></stop><stop offset="0.98" stop-color="#e5c798"></stop></linearGradient><linearGradient gradientUnits="objectBoundingBox" id="未命名的渐变_53" node-id="25" spreadMethod="pad" x1="447.88" x2="447.88" y1="1004.57" y2="833.19"><stop offset="0.24" stop-color="#ffffff"></stop><stop offset="0.98" stop-color="#dac49b"></stop></linearGradient><linearGradient gradientUnits="objectBoundingBox" id="未命名的渐变_53-2" node-id="28" spreadMethod="pad" x1="706.53" x2="706.53" y1="1004.57" y2="833.19"><stop offset="0.24" stop-color="#ffffff"></stop><stop offset="0.98" stop-color="#dac49b"></stop></linearGradient><linearGradient gradientUnits="objectBoundingBox" id="未命名的渐变_21" node-id="29" spreadMethod="pad" x1="531.82" x2="1041.11" y1="659.44" y2="659.44"><stop offset="0.02" stop-color="#f1e1c5"></stop><stop offset="1" stop-color="#ccb48d"></stop></linearGradient><linearGradient gradientUnits="objectBoundingBox" id="未命名的渐变_11-6" node-id="32" spreadMethod="pad" x1="531.82" x2="1024.97" y1="666.21" y2="666.21"><stop offset="0.02" stop-color="#fdf2dd"></stop><stop offset="1" stop-color="#ddd0b6"></stop></linearGradient><linearGradient gradientUnits="objectBoundingBox" id="未命名的渐变_21-2" node-id="33" spreadMethod="pad" x1="739.35" x2="823.83" y1="626" y2="626"><stop offset="0.02" stop-color="#f1e1c5"></stop><stop offset="1" stop-color="#ccb48d"></stop></linearGradient><linearGradient gradientUnits="objectBoundingBox" id="未命名的渐变_27" node-id="34" spreadMethod="pad" x1="740.84" x2="814.76" y1="629.63" y2="629.63"><stop offset="0.25" stop-color="#ffffff"></stop><stop offset="1" stop-color="#f9f1e4"></stop></linearGradient><linearGradient gradientUnits="objectBoundingBox" id="未命名的渐变_21-3" node-id="37" spreadMethod="pad" x1="606.37" x2="690.85" y1="626" y2="626"><stop offset="0.02" stop-color="#f1e1c5"></stop><stop offset="1" stop-color="#ccb48d"></stop></linearGradient><linearGradient gradientUnits="objectBoundingBox" id="未命名的渐变_27-2" node-id="38" spreadMethod="pad" x1="607.86" x2="681.78" y1="629.63" y2="629.63"><stop offset="0.25" stop-color="#ffffff"></stop><stop offset="1" stop-color="#f9f1e4"></stop></linearGradient><linearGradient gradientUnits="objectBoundingBox" id="未命名的渐变_21-4" node-id="39" spreadMethod="pad" x1="878.58" x2="963.06" y1="626" y2="626"><stop offset="0.02" stop-color="#f1e1c5"></stop><stop offset="1" stop-color="#ccb48d"></stop></linearGradient><linearGradient gradientUnits="objectBoundingBox" id="未命名的渐变_27-3" node-id="40" spreadMethod="pad" x1="880.07" x2="953.99" y1="629.63" y2="629.63"><stop offset="0.25" stop-color="#ffffff"></stop><stop offset="1" stop-color="#f9f1e4"></stop></linearGradient><linearGradient gradientUnits="objectBoundingBox" id="未命名的渐变_21-5" node-id="41" spreadMethod="pad" x1="171.4" x2="880.75" y1="534.19" y2="534.19"><stop offset="0.02" stop-color="#f1e1c5"></stop><stop offset="1" stop-color="#ccb48d"></stop></linearGradient><linearGradient gradientUnits="objectBoundingBox" id="未命名的渐变_11-7" node-id="42" spreadMethod="pad" x1="171.4" x2="858.27" y1="543.62" y2="543.62"><stop offset="0.02" stop-color="#fdf2dd"></stop><stop offset="1" stop-color="#ddd0b6"></stop></linearGradient><linearGradient gradientUnits="objectBoundingBox" id="未命名的渐变_21-6" node-id="43" spreadMethod="pad" x1="460.46" x2="578.13" y1="487.61" y2="487.61"><stop offset="0.02" stop-color="#f1e1c5"></stop><stop offset="1" stop-color="#ccb48d"></stop></linearGradient><linearGradient gradientUnits="objectBoundingBox" id="未命名的渐变_27-4" node-id="44" spreadMethod="pad" x1="462.53" x2="565.48" y1="492.67" y2="492.67"><stop offset="0.25" stop-color="#ffffff"></stop><stop offset="1" stop-color="#f9f1e4"></stop></linearGradient><linearGradient gradientUnits="objectBoundingBox" id="未命名的渐变_21-7" node-id="45" spreadMethod="pad" x1="275.24" x2="392.91" y1="487.61" y2="487.61"><stop offset="0.02" stop-color="#f1e1c5"></stop><stop offset="1" stop-color="#ccb48d"></stop></linearGradient><linearGradient gradientUnits="objectBoundingBox" id="未命名的渐变_27-5" node-id="46" spreadMethod="pad" x1="277.31" x2="380.27" y1="492.67" y2="492.67"><stop offset="0.25" stop-color="#ffffff"></stop><stop offset="1" stop-color="#f9f1e4"></stop></linearGradient><linearGradient gradientUnits="objectBoundingBox" id="未命名的渐变_21-8" node-id="47" spreadMethod="pad" x1="654.38" x2="772.05" y1="487.61" y2="487.61"><stop offset="0.02" stop-color="#f1e1c5"></stop><stop offset="1" stop-color="#ccb48d"></stop></linearGradient><linearGradient gradientUnits="objectBoundingBox" id="未命名的渐变_27-6" node-id="48" spreadMethod="pad" x1="656.45" x2="759.4" y1="492.67" y2="492.67"><stop offset="0.25" stop-color="#ffffff"></stop><stop offset="1" stop-color="#f9f1e4"></stop></linearGradient></defs><path d="M 1103.13 870.17 C 1103.13 920.97 1050.16 969.69 955.86 1005.61 C 861.57 1041.53 733.68 1061.71 600.33 1061.71 C 466.98 1061.71 339.09 1041.53 244.80 1005.61 C 150.50 969.69 97.53 920.97 97.53 870.17 C 97.53 819.37 150.50 770.65 244.80 734.73 C 339.09 698.81 466.98 678.63 600.33 678.63 C 733.68 678.63 861.57 698.81 955.86 734.73 C 1050.16 770.65 1103.13 819.37 1103.13 870.17 Z" fill="url(#未命名的渐变_7)" fill-rule="nonzero" node-id="267" stroke="none" target-height="383.07996" target-width="1005.6" target-x="97.53003" target-y="678.63"></path><path d="M 1093.28 786.00 L 1058.28 693.06 C 1056.72 688.91 1052.75 686.17 1048.32 686.17 C 1043.88 686.17 1039.91 688.91 1038.35 693.06 L 1003.35 786.00 C 1002.12 789.28 1002.57 792.95 1004.57 795.83 C 1006.57 798.70 1009.85 800.42 1013.35 800.41 L 1042.24 800.41 L 1042.24 842.80 C 1042.24 846.19 1054.51 846.19 1054.51 842.80 L 1054.51 800.45 L 1083.40 800.45 C 1086.89 800.42 1090.15 798.69 1092.12 795.81 C 1094.09 792.93 1094.52 789.26 1093.28 786.00 Z" fill="url(#未命名的渐变_57)" fill-rule="nonzero" node-id="269" stroke="none" target-height="160.02216" target-width="92.40283" target-x="1002.1183" target-y="686.16785"></path><path d="M 198.29 796.38 L 173.81 731.44 C 172.72 728.54 169.94 726.62 166.84 726.62 C 163.75 726.62 160.97 728.54 159.88 731.44 L 135.41 796.38 C 134.54 798.67 134.86 801.24 136.26 803.26 C 137.66 805.27 139.96 806.46 142.41 806.45 L 162.60 806.45 L 162.60 836.05 C 162.60 838.41 171.17 838.41 171.17 836.05 L 171.17 806.45 L 191.36 806.45 C 193.80 806.44 196.07 805.23 197.45 803.22 C 198.83 801.22 199.15 798.66 198.29 796.38 Z" fill="url(#未命名的渐变_57-2)" fill-rule="nonzero" node-id="271" stroke="none" target-height="111.79413" target-width="64.60324" target-x="134.54367" target-y="726.61584"></path><g node-id="345"><path d="M 171.88 232.03 L 179.65 267.46 L 210.45 276.41 L 179.65 285.35 L 171.88 320.78 L 164.10 285.35 L 133.30 276.41 L 164.10 267.46 L 171.88 232.03 Z" fill="url(#未命名的渐变_11)" fill-opacity="0.9" fill-rule="nonzero" group-id="1" node-id="275" stroke="none" target-height="88.75" target-width="77.149994" target-x="133.3" target-y="232.03"></path></g><path d="M 1065.52 393.38 L 1075.94 440.84 L 1117.19 452.82 L 1075.94 464.81 L 1065.52 512.27 L 1055.11 464.81 L 1013.85 452.82 L 1055.11 440.84 L 1065.52 393.38 Z" fill="url(#未命名的渐变_11-2)" fill-rule="nonzero" node-id="278" stroke="none" target-height="118.890015" target-width="103.339966" target-x="1013.85" target-y="393.38"></path><g node-id="346"><path d="M 1093.97 557.40 L 1100.73 588.21 L 1127.52 595.99 L 1100.73 603.77 L 1093.97 634.58 L 1087.21 603.77 L 1060.42 595.99 L 1087.21 588.21 L 1093.97 557.40 Z" fill="url(#未命名的渐变_11-3)" fill-opacity="0.7" fill-rule="nonzero" group-id="2" node-id="282" stroke="none" target-height="77.17999" target-width="67.099976" target-x="1060.42" target-y="557.4"></path></g><g node-id="347"><path d="M 133.30 606.03 L 140.06 636.84 L 166.85 644.62 L 140.06 652.40 L 133.30 683.21 L 126.54 652.40 L 99.75 644.62 L 126.54 636.84 L 133.30 606.03 Z" fill="url(#未命名的渐变_11-4)" fill-opacity="0.7" fill-rule="nonzero" group-id="3" node-id="287" stroke="none" target-height="77.17999" target-width="67.100006" target-x="99.75" target-y="606.03"></path></g><g node-id="348"><path d="M 676.50 134.97 L 680.66 153.93 L 697.14 158.72 L 680.66 163.50 L 676.50 182.46 L 672.34 163.50 L 655.87 158.72 L 672.34 153.93 L 676.50 134.97 Z" fill="url(#未命名的渐变_11-5)" fill-opacity="0.6" fill-rule="nonzero" group-id="4" node-id="292" stroke="none" target-height="47.490005" target-width="41.27002" target-x="655.87" target-y="134.97"></path></g><path d="M 376.20 185.45 C 376.20 201.69 363.03 214.86 346.79 214.86 C 330.55 214.86 317.38 201.69 317.38 185.45 C 317.38 169.21 330.55 156.04 346.79 156.04 C 363.03 156.04 376.20 169.21 376.20 185.45 Z" fill="url(#未命名的渐变_7-2)" fill-rule="nonzero" node-id="295" stroke="none" target-height="58.820007" target-width="58.820038" target-x="317.38" target-y="156.04"></path><path d="M 880.67 211.87 C 880.67 228.11 867.50 241.28 851.26 241.28 C 835.02 241.28 821.85 228.11 821.85 211.87 C 821.85 195.63 835.02 182.46 851.26 182.46 C 867.50 182.46 880.67 195.63 880.67 211.87 Z" fill="url(#未命名的渐变_7-3)" fill-rule="nonzero" node-id="297" stroke="none" target-height="58.820007" target-width="58.819946" target-x="821.85004" target-y="182.45999"></path><g node-id="349"><path d="M 994.54 935.60 C 994.54 953.62 962.83 968.23 923.72 968.23 C 884.61 968.23 852.90 953.62 852.90 935.60 C 852.90 917.58 884.61 902.97 923.72 902.97 C 962.83 902.97 994.54 917.58 994.54 935.60 Z" fill="url(#未命名的渐变_58)" fill-opacity="0.5" fill-rule="nonzero" group-id="5" node-id="301" stroke="none" target-height="65.26001" target-width="141.64001" target-x="852.9" target-y="902.97"></path></g><g node-id="350"><path d="M 237.67 921.63 C 237.67 939.65 205.96 954.26 166.85 954.26 C 127.74 954.26 96.03 939.65 96.03 921.63 C 96.03 903.61 127.74 889.00 166.85 889.00 C 205.96 889.00 237.67 903.61 237.67 921.63 Z" fill="url(#未命名的渐变_58-2)" fill-opacity="0.5" fill-rule="nonzero" group-id="6" node-id="306" stroke="none" target-height="65.26001" target-width="141.64001" target-x="96.03001" target-y="889"></path></g><path d="M 524.14 833.19 L 223.22 1004.57 L 672.54 1004.57 L 524.14 833.19 Z" fill="url(#未命名的渐变_53)" fill-rule="nonzero" node-id="309" stroke="none" target-height="171.38" target-width="449.31998" target-x="223.22" target-y="833.18994"></path><path d="M 782.80 833.19 L 481.87 1004.57 L 931.19 1004.57 L 782.80 833.19 Z" fill="url(#未命名的渐变_53-2)" fill-rule="nonzero" node-id="311" stroke="none" target-height="171.38" target-width="449.31995" target-x="481.87" target-y="833.18994"></path><path d="M 954.76 429.70 L 618.17 429.70 C 595.30 429.67 573.35 438.74 557.15 454.89 C 540.96 471.05 531.85 492.98 531.82 515.85 L 531.82 741.11 C 531.84 763.99 540.96 785.92 557.15 802.08 C 573.34 818.23 595.29 827.30 618.17 827.27 L 719.50 827.27 L 773.50 883.63 C 776.90 887.18 781.59 889.18 786.50 889.18 C 791.41 889.18 796.10 887.18 799.50 883.63 L 853.45 827.27 L 954.76 827.27 C 977.64 827.30 999.59 818.23 1015.78 802.08 C 1031.97 785.92 1041.09 763.99 1041.11 741.11 L 1041.11 515.85 C 1041.08 492.98 1031.97 471.05 1015.78 454.89 C 999.58 438.74 977.63 429.67 954.76 429.70 Z" fill="url(#未命名的渐变_21)" fill-rule="nonzero" node-id="313" stroke="none" target-height="459.5066" target-width="509.28998" target-x="531.82" target-y="429.67346"></path><path d="M 941.35 443.23 L 615.43 443.23 C 569.25 443.23 531.82 480.66 531.82 526.84 L 531.82 745.47 C 531.82 767.65 540.63 788.92 556.31 804.60 C 571.99 820.28 593.25 829.09 615.43 829.09 L 713.55 829.09 L 765.79 883.80 C 769.08 887.24 773.63 889.19 778.39 889.19 C 783.16 889.19 787.71 887.24 791.00 883.80 L 843.23 829.09 L 941.35 829.09 C 963.53 829.10 984.81 820.29 1000.50 804.61 C 1016.19 788.93 1025.00 767.65 1025.00 745.47 L 1025.00 526.84 C 1025.00 504.66 1016.19 483.39 1000.50 467.70 C 984.81 452.02 963.53 443.22 941.35 443.23 Z" fill="url(#未命名的渐变_11-6)" fill-rule="nonzero" node-id="315" stroke="none" target-height="445.97238" target-width="493.18268" target-x="531.8173" target-y="443.2194"></path><path d="M 823.83 626.00 C 823.83 649.33 804.92 668.24 781.59 668.24 C 758.26 668.24 739.35 649.33 739.35 626.00 C 739.35 602.67 758.26 583.76 781.59 583.76 C 804.92 583.76 823.83 602.67 823.83 626.00 Z" fill="url(#未命名的渐变_21-2)" fill-rule="nonzero" node-id="317" stroke="none" target-height="84.47998" target-width="84.47998" target-x="739.35004" target-y="583.76"></path><path d="M 814.76 629.63 C 814.76 639.43 810.87 648.83 803.93 655.76 C 797.00 662.70 787.60 666.59 777.80 666.59 C 768.00 666.59 758.60 662.70 751.67 655.76 C 744.73 648.83 740.84 639.43 740.84 629.63 C 740.84 619.83 744.73 610.43 751.67 603.50 C 758.60 596.56 768.00 592.67 777.80 592.67 C 787.60 592.67 797.00 596.56 803.93 603.50 C 810.87 610.43 814.76 619.83 814.76 629.63 Z" fill="url(#未命名的渐变_27)" fill-rule="nonzero" node-id="319" stroke="none" target-height="73.920044" target-width="73.91998" target-x="740.84" target-y="592.67"></path><path d="M 690.85 626.00 C 690.85 649.33 671.94 668.24 648.61 668.24 C 625.28 668.24 606.37 649.33 606.37 626.00 C 606.37 602.67 625.28 583.76 648.61 583.76 C 671.94 583.76 690.85 602.67 690.85 626.00 Z" fill="url(#未命名的渐变_21-3)" fill-rule="nonzero" node-id="321" stroke="none" target-height="84.47998" target-width="84.47998" target-x="606.37" target-y="583.76"></path><path d="M 681.78 629.63 C 681.78 639.43 677.89 648.83 670.95 655.76 C 664.02 662.70 654.62 666.59 644.82 666.59 C 635.02 666.59 625.62 662.70 618.69 655.76 C 611.75 648.83 607.86 639.43 607.86 629.63 C 607.86 619.83 611.75 610.43 618.69 603.50 C 625.62 596.56 635.02 592.67 644.82 592.67 C 654.62 592.67 664.02 596.56 670.95 603.50 C 677.89 610.43 681.78 619.83 681.78 629.63 Z" fill="url(#未命名的渐变_27-2)" fill-rule="nonzero" node-id="323" stroke="none" target-height="73.920044" target-width="73.920044" target-x="607.86" target-y="592.67"></path><path d="M 963.06 626.00 C 963.06 649.33 944.15 668.24 920.82 668.24 C 897.49 668.24 878.58 649.33 878.58 626.00 C 878.58 602.67 897.49 583.76 920.82 583.76 C 944.15 583.76 963.06 602.67 963.06 626.00 Z" fill="url(#未命名的渐变_21-4)" fill-rule="nonzero" node-id="325" stroke="none" target-height="84.47998" target-width="84.47992" target-x="878.58" target-y="583.76"></path><path d="M 953.99 629.63 C 953.99 639.43 950.10 648.83 943.16 655.76 C 936.23 662.70 926.83 666.59 917.03 666.59 C 907.23 666.59 897.83 662.70 890.90 655.76 C 883.96 648.83 880.07 639.43 880.07 629.63 C 880.07 619.83 883.96 610.43 890.90 603.50 C 897.83 596.56 907.23 592.67 917.03 592.67 C 926.83 592.67 936.23 596.56 943.16 603.50 C 950.10 610.43 953.99 619.83 953.99 629.63 Z" fill="url(#未命名的渐变_27-3)" fill-rule="nonzero" node-id="327" stroke="none" target-height="73.920044" target-width="73.920044" target-x="880.07" target-y="592.67"></path><path d="M 760.48 214.20 L 291.67 214.20 C 225.25 214.20 171.40 267.92 171.40 334.20 L 171.40 648.00 C 171.40 714.27 225.25 768.00 291.67 768.00 L 432.81 768.00 L 508.00 846.45 C 512.73 851.40 519.28 854.19 526.13 854.19 C 532.98 854.19 539.53 851.40 544.26 846.45 L 619.39 767.94 L 760.48 767.94 C 826.90 767.94 880.75 714.22 880.75 647.94 L 880.75 334.19 C 880.75 267.92 826.90 214.20 760.48 214.20 Z" fill="url(#未命名的渐变_21-5)" fill-rule="nonzero" node-id="329" stroke="none" target-height="639.99164" target-width="709.35" target-x="171.4" target-y="214.2"></path><path d="M 741.80 233.00 L 287.86 233.00 C 256.97 233.00 227.34 245.28 205.50 267.12 C 183.65 288.97 171.39 318.61 171.40 349.50 L 171.40 654.00 C 171.39 684.89 183.66 714.52 205.50 736.36 C 227.34 758.21 256.97 770.48 287.86 770.48 L 424.52 770.48 L 497.28 846.68 C 501.86 851.47 508.20 854.19 514.84 854.19 C 521.47 854.19 527.81 851.47 532.39 846.68 L 605.14 770.48 L 741.80 770.48 C 772.69 770.48 802.32 758.21 824.16 736.36 C 846.00 714.52 858.27 684.89 858.27 654.00 L 858.27 349.50 C 858.28 318.61 846.01 288.97 824.17 267.12 C 802.32 245.28 772.69 233.00 741.80 233.00 Z" fill="url(#未命名的渐变_11-7)" fill-rule="nonzero" node-id="331" stroke="none" target-height="621.1868" target-width="686.88855" target-x="171.38939" target-y="233"></path><path d="M 578.12 487.61 C 578.12 503.21 571.92 518.18 560.89 529.21 C 549.86 540.24 534.89 546.44 519.29 546.44 C 503.69 546.44 488.72 540.24 477.69 529.21 C 466.66 518.18 460.46 503.21 460.46 487.61 C 460.46 472.01 466.66 457.04 477.69 446.01 C 488.72 434.98 503.69 428.78 519.29 428.78 C 534.89 428.78 549.86 434.98 560.89 446.01 C 571.92 457.04 578.12 472.01 578.12 487.61 Z" fill="url(#未命名的渐变_21-6)" fill-rule="nonzero" node-id="333" stroke="none" target-height="117.660034" target-width="117.660034" target-x="460.45996" target-y="428.77997"></path><path d="M 565.48 492.67 C 565.48 521.10 542.43 544.15 514.00 544.15 C 500.35 544.15 487.25 538.73 477.60 529.07 C 467.94 519.42 462.52 506.32 462.52 492.67 C 462.52 479.02 467.94 465.92 477.60 456.27 C 487.25 446.61 500.35 441.19 514.00 441.19 C 542.43 441.19 565.48 464.24 565.48 492.67 Z" fill="url(#未命名的渐变_27-4)" fill-rule="nonzero" node-id="335" stroke="none" target-height="102.96002" target-width="102.95999" target-x="462.52" target-y="441.19"></path><path d="M 392.90 487.61 C 392.90 503.21 386.70 518.18 375.67 529.21 C 364.64 540.24 349.67 546.44 334.07 546.44 C 318.47 546.44 303.50 540.24 292.47 529.21 C 281.44 518.18 275.24 503.21 275.24 487.61 C 275.24 472.01 281.44 457.04 292.47 446.01 C 303.50 434.98 318.47 428.78 334.07 428.78 C 349.67 428.78 364.64 434.98 375.67 446.01 C 386.70 457.04 392.90 472.01 392.90 487.61 Z" fill="url(#未命名的渐变_21-7)" fill-rule="nonzero" node-id="337" stroke="none" target-height="117.660034" target-width="117.660034" target-x="275.24" target-y="428.77997"></path><path d="M 380.27 492.67 C 380.27 506.32 374.85 519.42 365.19 529.07 C 355.54 538.73 342.44 544.15 328.79 544.15 C 315.14 544.15 302.04 538.73 292.39 529.07 C 282.73 519.42 277.31 506.32 277.31 492.67 C 277.31 479.02 282.73 465.92 292.39 456.27 C 302.04 446.61 315.14 441.19 328.79 441.19 C 342.44 441.19 355.54 446.61 365.19 456.27 C 374.85 465.92 380.27 479.02 380.27 492.67 Z" fill="url(#未命名的渐变_27-5)" fill-rule="nonzero" node-id="339" stroke="none" target-height="102.96002" target-width="102.96002" target-x="277.31" target-y="441.19"></path><path d="M 772.04 487.61 C 772.04 503.21 765.84 518.18 754.81 529.21 C 743.78 540.24 728.81 546.44 713.21 546.44 C 697.61 546.44 682.64 540.24 671.61 529.21 C 660.58 518.18 654.38 503.21 654.38 487.61 C 654.38 472.01 660.58 457.04 671.61 446.01 C 682.64 434.98 697.61 428.78 713.21 428.78 C 728.81 428.78 743.78 434.98 754.81 446.01 C 765.84 457.04 772.04 472.01 772.04 487.61 Z" fill="url(#未命名的渐变_21-8)" fill-rule="nonzero" node-id="341" stroke="none" target-height="117.660034" target-width="117.660034" target-x="654.38" target-y="428.77997"></path><path d="M 759.40 492.67 C 759.40 521.10 736.35 544.15 707.92 544.15 C 679.49 544.15 656.44 521.10 656.44 492.67 C 656.44 464.24 679.49 441.19 707.92 441.19 C 736.35 441.19 759.40 464.24 759.40 492.67 Z" fill="url(#未命名的渐变_27-6)" fill-rule="nonzero" node-id="343" stroke="none" target-height="102.96002" target-width="102.95996" target-x="656.44" target-y="441.19"></path></svg>