<?xml version="1.0" standalone="no"?><!DOCTYPE svg PUBLIC "-//W3C//DTD SVG 1.1//EN" "http://www.w3.org/Graphics/SVG/1.1/DTD/svg11.dtd"><svg t="1772512931743" class="icon" viewBox="0 0 1024 1024" version="1.1" xmlns="http://www.w3.org/2000/svg" p-id="6909" xmlns:xlink="http://www.w3.org/1999/xlink" width="200" height="200"><path d="M512 983.04a471.04 471.04 0 1 1 471.04-471.04 471.3472 471.3472 0 0 1-471.04 471.04z m0-880.64a409.6 409.6 0 1 0 409.6 409.6 409.856 409.856 0 0 0-409.6-409.6z" fill="#6366f1" p-id="6910"></path><path d="M512 728.576a84.5824 84.5824 0 0 1-59.904-24.7808L320.2048 571.904a84.6848 84.6848 0 0 1 0-119.808L452.096 320.2048a84.8384 84.8384 0 0 1 119.808 0l131.8912 131.8912a84.6848 84.6848 0 0 1 0 119.808l-131.8912 131.8912a84.5824 84.5824 0 0 1-59.904 24.7808z m0-371.712a23.2448 23.2448 0 0 0-16.4864 6.656L363.52 495.5136a23.2448 23.2448 0 0 0 0 32.9728L495.5136 660.48a23.296 23.296 0 0 0 32.9728 0L660.48 528.4864a23.2448 23.2448 0 0 0 0-32.9728L528.4864 363.52a23.2448 23.2448 0 0 0-16.4864-6.656z" fill="#6366f1" p-id="6911"></path></svg>