<?xml version="1.0" standalone="no"?><!DOCTYPE svg PUBLIC "-//W3C//DTD SVG 1.1//EN" "http://www.w3.org/Graphics/SVG/1.1/DTD/svg11.dtd"><svg t="1772512851254" class="icon" viewBox="0 0 1024 1024" version="1.1" xmlns="http://www.w3.org/2000/svg" p-id="1264" xmlns:xlink="http://www.w3.org/1999/xlink" width="200" height="200"><path d="M723.6096 928.2048H296.6528a197.0688 197.0688 0 0 1-196.864-196.8128V304.4352A197.12 197.12 0 0 1 296.6528 107.52h249.2928a30.72 30.72 0 1 1 0 61.44H296.6528a135.5776 135.5776 0 0 0-135.424 135.4752v426.9568a135.5776 135.5776 0 0 0 135.424 135.3728h426.9568a135.5776 135.5776 0 0 0 135.424-135.3728V482.0992a30.72 30.72 0 0 1 61.44 0v249.2928a197.0688 197.0688 0 0 1-196.864 196.8128z" fill="#6366f1" p-id="1265"></path><path d="M906.6496 188.3648l-61.44-61.184a59.8016 59.8016 0 0 0-84.5824 0L389.12 488.6528a54.1184 54.1184 0 0 0-13.9264 24.4224l-25.2416 98.2528a53.248 53.248 0 0 0 51.6608 66.56 51.5072 51.5072 0 0 0 14.6944-2.0992l95.6928-27.5456a53.4528 53.4528 0 0 0 22.8864-13.5168l371.968-361.728a59.904 59.904 0 0 0-0.2048-84.6336zM492.6976 589.824l-79.7184 22.9888 21.1456-82.2784 279.552-271.7696 58.7776 59.0336z m323.84-314.8288L757.76 215.9616l45.4656-44.1856 58.9312 58.88z" fill="#6366f1" p-id="1266"></path></svg>