<?xml version="1.0" standalone="no"?><!DOCTYPE svg PUBLIC "-//W3C//DTD SVG 1.1//EN" "http://www.w3.org/Graphics/SVG/1.1/DTD/svg11.dtd"><svg height="1200" node-id="1" sillyvg="true" template-height="1200" template-width="1200" version="1.1" viewBox="0 0 1200 1200" width="1200" xmlns="http://www.w3.org/2000/svg" xmlns:xlink="http://www.w3.org/1999/xlink"><defs node-id="86"><linearGradient gradientUnits="objectBoundingBox" id="未命名的渐变_7" node-id="5" spreadMethod="pad" x1="602.11" x2="602.11" y1="1061.71" y2="678.62"><stop offset="0.25" stop-color="#ffffff"></stop><stop offset="1" stop-color="#fcf2de"></stop></linearGradient><linearGradient gradientUnits="objectBoundingBox" id="未命名的渐变_57" node-id="8" spreadMethod="pad" x1="1050.06" x2="1050.06" y1="686.2" y2="845.34"><stop offset="0" stop-color="#ffffff"></stop><stop offset="0.83" stop-color="#e8d3af"></stop></linearGradient><linearGradient gradientUnits="objectBoundingBox" id="未命名的渐变_57-2" node-id="11" spreadMethod="pad" x1="168.62" x2="168.62" y1="726.62" y2="837.82"><stop offset="0" stop-color="#ffffff"></stop><stop offset="0.83" stop-color="#e8d3af"></stop></linearGradient><linearGradient gradientUnits="objectBoundingBox" id="未命名的渐变_11" node-id="12" spreadMethod="pad" x1="154.43" x2="192.86" y1="243.13" y2="309.69"><stop offset="0.02" stop-color="#fdf2dd"></stop><stop offset="1" stop-color="#ddd0b6"></stop></linearGradient><linearGradient gradientUnits="objectBoundingBox" id="未命名的渐变_11-2" node-id="15" spreadMethod="pad" x1="1041.55" x2="1093.03" y1="408.24" y2="497.4"><stop offset="0.02" stop-color="#fdf2dd"></stop><stop offset="1" stop-color="#ddd0b6"></stop></linearGradient><linearGradient gradientUnits="objectBoundingBox" id="未命名的渐变_11-3" node-id="16" spreadMethod="pad" x1="1079.03" x2="1112.46" y1="567.04" y2="624.93"><stop offset="0.02" stop-color="#fdf2dd"></stop><stop offset="1" stop-color="#ddd0b6"></stop></linearGradient><linearGradient gradientUnits="objectBoundingBox" id="未命名的渐变_11-4" node-id="17" spreadMethod="pad" x1="118.36" x2="151.79" y1="615.68" y2="673.57"><stop offset="0.02" stop-color="#fdf2dd"></stop><stop offset="1" stop-color="#ddd0b6"></stop></linearGradient><linearGradient gradientUnits="objectBoundingBox" id="未命名的渐变_11-5" node-id="18" spreadMethod="pad" x1="668" x2="688.56" y1="140.91" y2="176.52"><stop offset="0.02" stop-color="#fdf2dd"></stop><stop offset="1" stop-color="#ddd0b6"></stop></linearGradient><linearGradient gradientUnits="objectBoundingBox" id="未命名的渐变_7-2" node-id="19" spreadMethod="pad" x1="333.86" x2="363.27" y1="159.97" y2="210.92"><stop offset="0.25" stop-color="#ffffff"></stop><stop offset="1" stop-color="#fcf2de"></stop></linearGradient><linearGradient gradientUnits="objectBoundingBox" id="未命名的渐变_7-3" node-id="20" spreadMethod="pad" x1="838.32" x2="867.74" y1="186.39" y2="237.34"><stop offset="0.25" stop-color="#ffffff"></stop><stop offset="1" stop-color="#fcf2de"></stop></linearGradient><linearGradient gradientUnits="objectBoundingBox" id="未命名的渐变_58" node-id="21" spreadMethod="pad" x1="925.49" x2="925.49" y1="968.23" y2="902.97"><stop offset="0.24" stop-color="#ffffff"></stop><stop offset="0.98" stop-color="#e5c798"></stop></linearGradient><linearGradient gradientUnits="objectBoundingBox" id="未命名的渐变_58-2" node-id="24" spreadMethod="pad" x1="168.62" x2="168.62" y1="954.26" y2="889"><stop offset="0.24" stop-color="#ffffff"></stop><stop offset="0.98" stop-color="#e5c798"></stop></linearGradient><linearGradient gradientUnits="objectBoundingBox" id="未命名的渐变_53" node-id="25" spreadMethod="pad" x1="514.18" x2="514.18" y1="1029.44" y2="748.56"><stop offset="0.24" stop-color="#ffffff"></stop><stop offset="0.98" stop-color="#dac49b"></stop></linearGradient><linearGradient gradientUnits="objectBoundingBox" id="未命名的渐变_21" node-id="28" spreadMethod="pad" x1="793.99" x2="1054.06" y1="356.48" y2="356.48"><stop offset="0.02" stop-color="#f1e1c5"></stop><stop offset="1" stop-color="#ccb48d"></stop></linearGradient><linearGradient gradientUnits="objectBoundingBox" id="未命名的渐变_11-6" node-id="31" spreadMethod="pad" x1="793.99" x2="1054.06" y1="340.48" y2="340.48"><stop offset="0.02" stop-color="#fdf2dd"></stop><stop offset="1" stop-color="#ddd0b6"></stop></linearGradient><linearGradient gradientUnits="objectBoundingBox" id="未命名的渐变_21-2" node-id="32" spreadMethod="pad" x1="341.57" x2="462.01" y1="714.2" y2="714.2"><stop offset="0.02" stop-color="#f1e1c5"></stop><stop offset="1" stop-color="#ccb48d"></stop></linearGradient><linearGradient gradientUnits="objectBoundingBox" id="未命名的渐变_11-7" node-id="33" spreadMethod="pad" x1="355.95" x2="461.03" y1="721.88" y2="721.88"><stop offset="0.02" stop-color="#fdf2dd"></stop><stop offset="1" stop-color="#ddd0b6"></stop></linearGradient><linearGradient gradientUnits="objectBoundingBox" id="未命名的渐变_21-3" node-id="34" spreadMethod="pad" x1="653.71" x2="774.15" y1="714.2" y2="714.2"><stop offset="0.02" stop-color="#f1e1c5"></stop><stop offset="1" stop-color="#ccb48d"></stop></linearGradient><linearGradient gradientUnits="objectBoundingBox" id="未命名的渐变_11-8" node-id="35" spreadMethod="pad" x1="668.1" x2="773.18" y1="721.88" y2="721.88"><stop offset="0.02" stop-color="#fdf2dd"></stop><stop offset="1" stop-color="#ddd0b6"></stop></linearGradient><linearGradient gradientUnits="objectBoundingBox" id="未命名的渐变_21-4" node-id="36" spreadMethod="pad" x1="341.57" x2="847.62" y1="726.21" y2="726.21"><stop offset="0.02" stop-color="#f1e1c5"></stop><stop offset="1" stop-color="#ccb48d"></stop></linearGradient><linearGradient gradientUnits="objectBoundingBox" id="未命名的渐变_11-9" node-id="37" spreadMethod="pad" x1="354.15" x2="863.03" y1="733.86" y2="733.86"><stop offset="0.02" stop-color="#fdf2dd"></stop><stop offset="1" stop-color="#ddd0b6"></stop></linearGradient><linearGradient gradientUnits="objectBoundingBox" id="未命名的渐变_11-10" node-id="38" spreadMethod="pad" x1="299.98" x2="937.02" y1="589.02" y2="589.02"><stop offset="0.02" stop-color="#fdf2dd"></stop><stop offset="1" stop-color="#ddd0b6"></stop></linearGradient><linearGradient gradientUnits="objectBoundingBox" id="未命名的渐变_11-11" node-id="39" spreadMethod="pad" x1="227.37" x2="938.98" y1="396.9" y2="396.9"><stop offset="0.02" stop-color="#fdf2dd"></stop><stop offset="1" stop-color="#ddd0b6"></stop></linearGradient><linearGradient gradientUnits="objectBoundingBox" id="未命名的渐变_11-12" node-id="40" spreadMethod="pad" x1="227.37" x2="340.73" y1="524.6" y2="524.6"><stop offset="0.02" stop-color="#fdf2dd"></stop><stop offset="1" stop-color="#ddd0b6"></stop></linearGradient><linearGradient gradientUnits="objectBoundingBox" id="未命名的渐变_21-5" node-id="41" spreadMethod="pad" x1="247.44" x2="918.8" y1="396.9" y2="396.9"><stop offset="0.02" stop-color="#f1e1c5"></stop><stop offset="1" stop-color="#ccb48d"></stop></linearGradient><linearGradient gradientUnits="objectBoundingBox" id="未命名的渐变_21-6" node-id="42" spreadMethod="pad" x1="383.22" x2="503.66" y1="839.78" y2="839.78"><stop offset="0.02" stop-color="#f1e1c5"></stop><stop offset="1" stop-color="#ccb48d"></stop></linearGradient><linearGradient gradientUnits="objectBoundingBox" id="未命名的渐变_11-14" node-id="43" spreadMethod="pad" x1="397.6" x2="502.68" y1="847.46" y2="847.46"><stop offset="0.02" stop-color="#fdf2dd"></stop><stop offset="1" stop-color="#ddd0b6"></stop></linearGradient><linearGradient gradientUnits="objectBoundingBox" id="未命名的渐变_21-7" node-id="44" spreadMethod="pad" x1="695.37" x2="815.8" y1="839.78" y2="839.78"><stop offset="0.02" stop-color="#f1e1c5"></stop><stop offset="1" stop-color="#ccb48d"></stop></linearGradient><linearGradient gradientUnits="objectBoundingBox" id="未命名的渐变_11-15" node-id="45" spreadMethod="pad" x1="709.75" x2="814.83" y1="847.46" y2="847.46"><stop offset="0.02" stop-color="#fdf2dd"></stop><stop offset="1" stop-color="#ddd0b6"></stop></linearGradient><linearGradient gradientUnits="objectBoundingBox" id="未命名的渐变_21-8" node-id="46" spreadMethod="pad" x1="438.59" x2="758.59" y1="622.42" y2="622.42"><stop offset="0.02" stop-color="#f1e1c5"></stop><stop offset="1" stop-color="#ccb48d"></stop></linearGradient><linearGradient gradientUnits="objectBoundingBox" id="未命名的渐变_27" node-id="47" spreadMethod="pad" x1="446.75" x2="757.46" y1="625.71" y2="625.71"><stop offset="0.25" stop-color="#ffffff"></stop><stop offset="1" stop-color="#f9f1e4"></stop></linearGradient></defs><path d="M 1104.91 870.17 C 1104.91 920.97 1051.94 969.69 957.64 1005.61 C 863.35 1041.53 735.46 1061.71 602.11 1061.71 C 468.76 1061.71 340.87 1041.53 246.58 1005.61 C 152.28 969.69 99.31 920.97 99.31 870.17 C 99.31 819.37 152.28 770.65 246.58 734.73 C 340.87 698.81 468.76 678.63 602.11 678.63 C 735.46 678.63 863.35 698.81 957.64 734.73 C 1051.94 770.65 1104.91 819.37 1104.91 870.17 Z" fill="url(#未命名的渐变_7)" fill-rule="nonzero" node-id="276" stroke="none" target-height="383.07996" target-width="1005.5999" target-x="99.31" target-y="678.63"></path><path d="M 1095.05 786.00 L 1060.05 693.06 C 1058.49 688.91 1054.52 686.15 1050.08 686.15 C 1045.64 686.15 1041.67 688.91 1040.11 693.06 L 1005.11 786.00 C 1003.87 789.28 1004.33 792.95 1006.32 795.83 C 1008.32 798.71 1011.61 800.42 1015.11 800.41 L 1044.00 800.41 L 1044.00 842.80 C 1044.00 846.19 1056.26 846.19 1056.26 842.80 L 1056.26 800.45 L 1085.15 800.45 C 1088.65 800.43 1091.91 798.70 1093.89 795.82 C 1095.86 792.94 1096.30 789.27 1095.05 786.00 Z" fill="url(#未命名的渐变_57)" fill-rule="nonzero" node-id="278" stroke="none" target-height="160.03546" target-width="92.424194" target-x="1003.87317" target-y="686.15454"></path><path d="M 200.06 796.38 L 175.59 731.44 C 174.50 728.54 171.72 726.62 168.62 726.62 C 165.52 726.62 162.74 728.54 161.65 731.44 L 137.18 796.38 C 136.32 798.67 136.64 801.24 138.04 803.25 C 139.43 805.26 141.73 806.46 144.18 806.45 L 164.37 806.45 L 164.37 836.05 C 164.37 838.41 172.93 838.41 172.93 836.05 L 172.93 806.45 L 193.12 806.45 C 195.56 806.44 197.84 805.24 199.22 803.23 C 200.60 801.22 200.92 798.66 200.06 796.38 Z" fill="url(#未命名的渐变_57-2)" fill-rule="nonzero" node-id="280" stroke="none" target-height="111.78906" target-width="64.598724" target-x="136.31879" target-y="726.6209"></path><g node-id="358"><path d="M 173.65 232.03 L 181.43 267.46 L 212.22 276.41 L 181.43 285.35 L 173.65 320.78 L 165.87 285.35 L 135.07 276.41 L 165.87 267.46 L 173.65 232.03 Z" fill="url(#未命名的渐变_11)" fill-opacity="0.9" fill-rule="nonzero" group-id="1" node-id="284" stroke="none" target-height="88.75" target-width="77.149994" target-x="135.07" target-y="232.03"></path></g><path d="M 1067.29 393.38 L 1077.71 440.84 L 1118.97 452.82 L 1077.71 464.81 L 1067.29 512.27 L 1056.88 464.81 L 1015.62 452.82 L 1056.88 440.84 L 1067.29 393.38 Z" fill="url(#未命名的渐变_11-2)" fill-rule="nonzero" node-id="287" stroke="none" target-height="118.890015" target-width="103.349976" target-x="1015.62" target-y="393.38"></path><g node-id="359"><path d="M 1095.74 557.40 L 1102.51 588.21 L 1129.29 595.99 L 1102.51 603.77 L 1095.74 634.58 L 1088.98 603.77 L 1062.20 595.99 L 1088.98 588.21 L 1095.74 557.40 Z" fill="url(#未命名的渐变_11-3)" fill-opacity="0.7" fill-rule="nonzero" group-id="2" node-id="291" stroke="none" target-height="77.17999" target-width="67.09009" target-x="1062.2" target-y="557.4"></path></g><g node-id="360"><path d="M 135.07 606.03 L 141.84 636.84 L 168.62 644.62 L 141.84 652.40 L 135.07 683.21 L 128.31 652.40 L 101.53 644.62 L 128.31 636.84 L 135.07 606.03 Z" fill="url(#未命名的渐变_11-4)" fill-opacity="0.7" fill-rule="nonzero" group-id="3" node-id="296" stroke="none" target-height="77.17999" target-width="67.09" target-x="101.53" target-y="606.03"></path></g><g node-id="361"><path d="M 678.28 134.97 L 682.44 153.93 L 698.91 158.72 L 682.44 163.50 L 678.28 182.46 L 674.12 163.50 L 657.64 158.72 L 674.12 153.93 L 678.28 134.97 Z" fill="url(#未命名的渐变_11-5)" fill-opacity="0.6" fill-rule="nonzero" group-id="4" node-id="301" stroke="none" target-height="47.490005" target-width="41.26996" target-x="657.64" target-y="134.97"></path></g><path d="M 377.98 185.45 C 377.98 201.69 364.81 214.86 348.57 214.86 C 332.33 214.86 319.16 201.69 319.16 185.45 C 319.16 169.21 332.33 156.04 348.57 156.04 C 364.81 156.04 377.98 169.21 377.98 185.45 Z" fill="url(#未命名的渐变_7-2)" fill-rule="nonzero" node-id="304" stroke="none" target-height="58.820007" target-width="58.820038" target-x="319.16" target-y="156.04"></path><path d="M 882.44 211.87 C 882.44 228.11 869.27 241.28 853.03 241.28 C 836.79 241.28 823.62 228.11 823.62 211.87 C 823.62 195.63 836.79 182.46 853.03 182.46 C 869.27 182.46 882.44 195.63 882.44 211.87 Z" fill="url(#未命名的渐变_7-3)" fill-rule="nonzero" node-id="306" stroke="none" target-height="58.820007" target-width="58.819946" target-x="823.62006" target-y="182.45999"></path><g node-id="362"><path d="M 996.31 935.60 C 996.31 953.62 964.60 968.23 925.49 968.23 C 886.38 968.23 854.67 953.62 854.67 935.60 C 854.67 917.58 886.38 902.97 925.49 902.97 C 964.60 902.97 996.31 917.58 996.31 935.60 Z" fill="url(#未命名的渐变_58)" fill-opacity="0.5" fill-rule="nonzero" group-id="5" node-id="310" stroke="none" target-height="65.26001" target-width="141.64001" target-x="854.67" target-y="902.97"></path></g><g node-id="363"><path d="M 239.44 921.63 C 239.44 939.65 207.73 954.26 168.62 954.26 C 129.51 954.26 97.80 939.65 97.80 921.63 C 97.80 903.61 129.51 889.00 168.62 889.00 C 207.73 889.00 239.44 903.61 239.44 921.63 Z" fill="url(#未命名的渐变_58-2)" fill-opacity="0.5" fill-rule="nonzero" group-id="6" node-id="315" stroke="none" target-height="65.26001" target-width="141.64001" target-x="97.79999" target-y="889"></path></g><path d="M 355.48 748.56 L 176.65 978.89 L 828.72 1029.44 L 851.71 842.01 L 784.16 748.91 L 355.48 748.56 Z" fill="url(#未命名的渐变_53)" fill-rule="nonzero" node-id="318" stroke="none" target-height="280.87994" target-width="675.06006" target-x="176.65" target-y="748.56"></path><path d="M 915.34 510.82 C 903.58 510.81 893.81 501.73 892.94 490.00 C 887.17 413.40 924.39 369.39 956.62 346.00 C 965.96 339.25 975.90 333.36 986.31 328.42 C 964.90 311.01 932.66 284.75 890.31 250.13 C 866.15 260.61 850.31 279.31 843.15 305.83 C 839.29 320.52 838.10 335.77 839.64 350.88 C 841.45 363.16 832.97 374.59 820.68 376.40 C 808.40 378.22 796.97 369.73 795.16 357.45 C 792.72 336.24 794.28 314.76 799.74 294.12 C 812.00 248.50 842.53 217.00 888.00 203.12 C 895.18 200.92 902.99 202.45 908.81 207.20 C 997.81 279.86 1045.26 318.36 1045.73 318.74 C 1052.54 324.26 1055.52 333.22 1053.37 341.72 C 1051.23 350.21 1044.34 356.68 1035.73 358.30 C 1016.30 362.96 997.99 371.43 981.86 383.23 C 949.25 407.50 934.41 442.29 937.75 486.65 C 938.20 492.60 936.27 498.48 932.38 503.00 C 928.49 507.52 922.97 510.31 917.02 510.76 C 916.48 510.80 915.90 510.82 915.34 510.82 Z" fill="url(#未命名的渐变_21)" fill-rule="nonzero" node-id="320" stroke="none" target-height="309.901" target-width="262.79755" target-x="792.7225" target-y="200.91904"></path><path d="M 915.34 494.82 C 903.58 494.81 893.81 485.73 892.94 474.00 C 887.17 397.40 924.39 353.39 956.62 330.00 C 965.96 323.25 975.90 317.36 986.31 312.42 C 964.90 295.01 932.66 268.75 890.31 234.13 C 866.15 244.61 850.31 263.31 843.15 289.83 C 839.29 304.52 838.10 319.77 839.64 334.88 C 841.45 347.16 832.97 358.59 820.68 360.40 C 808.40 362.22 796.97 353.73 795.16 341.45 C 792.72 320.24 794.28 298.76 799.74 278.12 C 812.00 232.50 842.53 201.00 888.00 187.12 C 895.18 184.92 902.99 186.45 908.81 191.20 C 997.81 263.86 1045.26 302.36 1045.73 302.74 C 1052.54 308.26 1055.52 317.22 1053.37 325.72 C 1051.23 334.21 1044.34 340.68 1035.73 342.30 C 1016.30 346.96 997.99 355.43 981.86 367.23 C 949.25 391.50 934.41 426.29 937.75 470.65 C 938.20 476.60 936.27 482.48 932.38 487.00 C 928.49 491.52 922.97 494.31 917.02 494.76 C 916.48 494.80 915.90 494.82 915.34 494.82 Z" fill="url(#未命名的渐变_11-6)" fill-rule="nonzero" node-id="322" stroke="none" target-height="309.901" target-width="262.79755" target-x="792.7225" target-y="184.91904"></path><path d="M 462.01 714.20 C 462.01 730.17 455.67 745.49 444.37 756.78 C 433.08 768.08 417.76 774.42 401.79 774.42 C 385.82 774.42 370.50 768.08 359.21 756.78 C 347.91 745.49 341.57 730.17 341.57 714.20 C 341.57 698.23 347.91 682.91 359.21 671.62 C 370.50 660.32 385.82 653.98 401.79 653.98 C 417.76 653.98 433.08 660.32 444.37 671.62 C 455.67 682.91 462.01 698.23 462.01 714.20 Z" fill="url(#未命名的渐变_21-2)" fill-rule="nonzero" node-id="324" stroke="none" target-height="120.44006" target-width="120.44" target-x="341.57" target-y="653.98"></path><path d="M 461.03 721.88 C 461.03 750.90 437.51 774.42 408.49 774.42 C 379.47 774.42 355.95 750.90 355.95 721.88 C 355.95 692.86 379.47 669.34 408.49 669.34 C 437.51 669.34 461.03 692.86 461.03 721.88 Z" fill="url(#未命名的渐变_11-7)" fill-rule="nonzero" node-id="326" stroke="none" target-height="105.079956" target-width="105.08002" target-x="355.94998" target-y="669.34"></path><path d="M 774.15 714.20 C 774.15 730.17 767.81 745.49 756.51 756.78 C 745.22 768.08 729.90 774.42 713.93 774.42 C 697.96 774.42 682.64 768.08 671.35 756.78 C 660.05 745.49 653.71 730.17 653.71 714.20 C 653.71 698.23 660.05 682.91 671.35 671.62 C 682.64 660.32 697.96 653.98 713.93 653.98 C 729.90 653.98 745.22 660.32 756.51 671.62 C 767.81 682.91 774.15 698.23 774.15 714.20 Z" fill="url(#未命名的渐变_21-3)" fill-rule="nonzero" node-id="328" stroke="none" target-height="120.44006" target-width="120.440125" target-x="653.70996" target-y="653.98"></path><path d="M 773.18 721.88 C 773.18 750.90 749.66 774.42 720.64 774.42 C 691.62 774.42 668.10 750.90 668.10 721.88 C 668.10 692.86 691.62 669.34 720.64 669.34 C 749.66 669.34 773.18 692.86 773.18 721.88 Z" fill="url(#未命名的渐变_11-8)" fill-rule="nonzero" node-id="330" stroke="none" target-height="105.079956" target-width="105.079956" target-x="668.10004" target-y="669.34"></path><path d="M 819.31 836.16 L 374.15 851.46 C 363.15 851.46 341.57 844.92 341.57 822.64 C 341.57 811.64 348.89 796.16 368.84 796.16 L 784.18 796.16 C 773.54 757.79 774.18 714.72 784.18 673.77 C 793.64 635.18 810.43 610.61 811.18 609.58 C 817.45 600.48 829.90 598.19 839.00 604.46 C 848.10 610.73 850.39 623.18 844.12 632.28 C 843.96 632.52 830.24 652.94 822.71 684.79 C 812.82 726.64 817.71 767.86 837.24 807.29 C 840.31 813.49 839.95 820.83 836.31 826.71 C 832.66 832.58 826.24 836.16 819.32 836.16 Z" fill="url(#未命名的渐变_21-4)" fill-rule="nonzero" node-id="332" stroke="none" target-height="253.26843" target-width="508.81842" target-x="341.57" target-y="598.1916"></path><path d="M 834.72 851.46 L 374.15 851.46 C 363.10 851.46 354.15 842.51 354.15 831.46 C 354.15 820.41 363.10 811.46 374.15 811.46 L 804.81 811.46 C 791.40 772.00 789.60 729.52 799.62 689.07 C 809.08 650.47 825.87 625.91 826.62 624.88 C 832.93 615.89 845.30 613.67 854.34 619.90 C 863.38 626.12 865.71 638.48 859.56 647.57 C 859.40 647.81 845.68 668.23 838.15 700.09 C 828.26 741.94 833.15 783.15 852.68 822.58 C 855.75 828.78 855.40 836.13 851.75 842.00 C 848.11 847.88 841.68 851.46 834.76 851.46 Z" fill="url(#未命名的渐变_11-9)" fill-rule="nonzero" node-id="334" stroke="none" target-height="237.79034" target-width="511.55893" target-x="354.15" target-y="613.6697"></path><path d="M 331.00 457.79 L 300.00 457.79 L 320.11 683.60 L 323.49 702.38 C 323.49 702.38 340.67 720.24 416.19 720.24 L 826.19 720.24 C 841.68 720.26 855.42 710.28 860.19 695.54 L 937.00 457.79 Z" fill="url(#未命名的渐变_11-10)" fill-rule="nonzero" node-id="336" stroke="none" target-height="262.47232" target-width="637" target-x="300" target-y="457.79"></path><path d="M 257.08 318.59 L 803.87 313.29 C 820.49 313.12 836.34 320.30 847.18 332.91 L 933.18 432.84 C 946.42 448.22 935.68 472.05 915.39 472.34 L 331.72 480.50 C 311.18 480.79 292.11 469.89 281.93 452.05 L 231.35 363.38 C 226.12 354.15 226.15 342.84 231.44 333.64 C 236.72 324.44 246.47 318.72 257.08 318.59 Z" fill="url(#未命名的渐变_11-11)" fill-rule="nonzero" node-id="338" stroke="none" target-height="167.66672" target-width="720.30115" target-x="226.11882" target-y="313.12228"></path><path d="M 307.68 681.15 L 323.49 702.38 C 328.63 706.34 334.49 709.28 340.73 711.05 L 340.73 711.05 L 300.00 457.79 L 253.19 338.15 L 227.37 351.61 L 302.12 669.20 C 303.14 673.52 305.03 677.59 307.68 681.15 Z" fill="url(#未命名的渐变_11-12)" fill-rule="nonzero" node-id="340" stroke="none" target-height="372.89993" target-width="113.36" target-x="227.37001" target-y="338.15"></path><path d="M 257.08 318.59 L 803.87 313.29 C 820.49 313.12 836.34 320.30 847.18 332.91 L 933.18 432.84 C 946.42 448.22 935.68 472.05 915.39 472.34 L 331.72 480.50 C 311.18 480.79 292.11 469.89 281.93 452.05 L 231.35 363.38 C 226.12 354.15 226.15 342.84 231.44 333.64 C 236.72 324.44 246.47 318.72 257.08 318.59 Z" fill="url(#未命名的渐变_11-11)" fill-rule="nonzero" node-id="342" stroke="none" target-height="167.66672" target-width="720.30115" target-x="226.11882" target-y="313.12228"></path><path d="M 334.69 466.78 C 319.43 466.75 305.36 458.52 297.85 445.24 L 258.75 376.24 C 250.07 361.97 243.94 349.99 249.66 341.11 C 256.35 330.72 273.44 332.17 283.96 332.11 L 805.00 327.00 C 817.44 326.97 829.27 332.40 837.35 341.85 L 895.94 410.39 C 903.45 419.18 922.85 434.89 918.12 445.46 C 913.39 456.03 903.20 459.05 891.68 459.21 L 334.88 466.77 Z" fill="url(#未命名的渐变_21-5)" fill-rule="nonzero" node-id="344" stroke="none" target-height="139.81387" target-width="678.9099" target-x="243.94" target-y="326.96613"></path><path d="M 503.66 839.78 C 503.66 873.04 476.70 900.00 443.44 900.00 C 410.18 900.00 383.22 873.04 383.22 839.78 C 383.22 806.52 410.18 779.56 443.44 779.56 C 476.70 779.56 503.66 806.52 503.66 839.78 Z" fill="url(#未命名的渐变_21-6)" fill-rule="nonzero" node-id="346" stroke="none" target-height="120.43994" target-width="120.44" target-x="383.22" target-y="779.56006"></path><path d="M 502.68 847.46 C 502.68 876.48 479.16 900.00 450.14 900.00 C 421.12 900.00 397.60 876.48 397.60 847.46 C 397.60 818.44 421.12 794.92 450.14 794.92 C 479.16 794.92 502.68 818.44 502.68 847.46 Z" fill="url(#未命名的渐变_11-14)" fill-rule="nonzero" node-id="348" stroke="none" target-height="105.079956" target-width="105.08008" target-x="397.59998" target-y="794.92004"></path><path d="M 815.81 839.78 C 815.81 873.04 788.85 900.00 755.59 900.00 C 722.33 900.00 695.37 873.04 695.37 839.78 C 695.37 806.52 722.33 779.56 755.59 779.56 C 788.85 779.56 815.81 806.52 815.81 839.78 Z" fill="url(#未命名的渐变_21-7)" fill-rule="nonzero" node-id="350" stroke="none" target-height="120.43994" target-width="120.44006" target-x="695.37" target-y="779.56006"></path><path d="M 814.83 847.46 C 814.83 876.48 791.31 900.00 762.29 900.00 C 733.27 900.00 709.75 876.48 709.75 847.46 C 709.75 818.44 733.27 794.92 762.29 794.92 C 791.31 794.92 814.83 818.44 814.83 847.46 Z" fill="url(#未命名的渐变_11-15)" fill-rule="nonzero" node-id="352" stroke="none" target-height="105.079956" target-width="105.08002" target-x="709.74994" target-y="794.92004"></path><path d="M 732.84 650.71 L 464.33 650.71 C 450.11 650.71 438.59 638.05 438.59 622.42 C 438.59 606.79 450.11 594.13 464.33 594.13 L 732.84 594.13 C 747.06 594.13 758.59 606.79 758.59 622.42 C 758.59 638.05 747.06 650.71 732.84 650.71 Z" fill="url(#未命名的渐变_21-8)" fill-rule="nonzero" node-id="354" stroke="none" target-height="56.580017" target-width="320" target-x="438.59003" target-y="594.13"></path><path d="M 732.46 650.71 L 471.75 650.71 C 457.94 650.71 446.75 639.52 446.75 625.71 C 446.75 611.90 457.94 600.71 471.75 600.71 L 732.46 600.71 C 746.27 600.71 757.46 611.90 757.46 625.71 C 757.46 639.52 746.27 650.71 732.46 650.71 Z" fill="url(#未命名的渐变_27)" fill-rule="nonzero" node-id="356" stroke="none" target-height="50" target-width="310.71005" target-x="446.74997" target-y="600.71"></path></svg>