<?xml version="1.0" standalone="no"?><!DOCTYPE svg PUBLIC "-//W3C//DTD SVG 1.1//EN" "http://www.w3.org/Graphics/SVG/1.1/DTD/svg11.dtd"><svg t="1772512854119" class="icon" viewBox="0 0 1024 1024" version="1.1" xmlns="http://www.w3.org/2000/svg" p-id="1419" xmlns:xlink="http://www.w3.org/1999/xlink" width="200" height="200"><path d="M665.6 560.2304h-122.88V489.728h122.88a30.72 30.72 0 0 0 0-61.44h-81.92l68.9664-72.1408a30.72 30.72 0 0 0-44.3904-42.4448L512 414.72 415.5392 313.7024a30.72 30.72 0 1 0-44.3904 42.4448L440.32 428.288H358.656a30.72 30.72 0 1 0 0 61.44H481.28v70.5024H358.4a30.72 30.72 0 0 0 0 61.44h122.88v67.4304a30.72 30.72 0 0 0 61.44 0v-67.4304h122.88a30.72 30.72 0 0 0 0-61.44z" fill="#6366f1" p-id="1420"></path><path d="M781.4656 909.7728H242.5344a197.12 197.12 0 0 1-196.864-196.864V670.72a81.92 81.92 0 0 1 52.2752-76.544 88.1664 88.1664 0 0 0 0-164.7616A81.92 81.92 0 0 1 45.6704 353.28v-41.984a197.12 197.12 0 0 1 196.864-197.0688h538.9312a197.12 197.12 0 0 1 196.864 196.864V353.28a81.92 81.92 0 0 1-52.2752 76.8 88.1664 88.1664 0 0 0 0 164.7104A81.92 81.92 0 0 1 978.3296 670.72v41.984a197.12 197.12 0 0 1-196.864 197.0688zM242.5344 175.6672a135.5264 135.5264 0 0 0-135.424 135.424V353.28a20.48 20.48 0 0 0 12.6976 18.944 149.6064 149.6064 0 0 1 0 279.552 20.48 20.48 0 0 0-12.6976 18.944v41.984a135.5264 135.5264 0 0 0 135.424 135.424h538.9312a135.5264 135.5264 0 0 0 135.424-135.424V670.72a20.48 20.48 0 0 0-12.6976-19.1488 149.6064 149.6064 0 0 1 0-279.552 20.48 20.48 0 0 0 12.6976-18.7392v-41.984a135.5264 135.5264 0 0 0-135.424-135.424z" fill="#6366f1" p-id="1421"></path></svg>