<?xml version="1.0" standalone="no"?><!DOCTYPE svg PUBLIC "-//W3C//DTD SVG 1.1//EN" "http://www.w3.org/Graphics/SVG/1.1/DTD/svg11.dtd"><svg height="1200" node-id="1" sillyvg="true" template-height="1200" template-width="1200" version="1.1" viewBox="0 0 1200 1200" width="1200" xmlns="http://www.w3.org/2000/svg" xmlns:xlink="http://www.w3.org/1999/xlink"><defs node-id="73"><linearGradient gradientUnits="objectBoundingBox" id="未命名的渐变_7" node-id="5" spreadMethod="pad" x1="603.15" x2="603.15" y1="1072.54" y2="689.46"><stop offset="0.25" stop-color="#ffffff"></stop><stop offset="1" stop-color="#fcf2de"></stop></linearGradient><linearGradient gradientUnits="objectBoundingBox" id="未命名的渐变_57" node-id="8" spreadMethod="pad" x1="1051.1" x2="1051.1" y1="697.03" y2="856.18"><stop offset="0" stop-color="#ffffff"></stop><stop offset="0.83" stop-color="#e8d3af"></stop></linearGradient><linearGradient gradientUnits="objectBoundingBox" id="未命名的渐变_57-2" node-id="11" spreadMethod="pad" x1="169.66" x2="169.66" y1="737.45" y2="848.66"><stop offset="0" stop-color="#ffffff"></stop><stop offset="0.83" stop-color="#e8d3af"></stop></linearGradient><linearGradient gradientUnits="objectBoundingBox" id="未命名的渐变_11" node-id="12" spreadMethod="pad" x1="155.48" x2="193.91" y1="253.96" y2="320.52"><stop offset="0.02" stop-color="#fdf2dd"></stop><stop offset="1" stop-color="#ddd0b6"></stop></linearGradient><linearGradient gradientUnits="objectBoundingBox" id="未命名的渐变_11-2" node-id="15" spreadMethod="pad" x1="1042.6" x2="1094.08" y1="419.07" y2="508.24"><stop offset="0.02" stop-color="#fdf2dd"></stop><stop offset="1" stop-color="#ddd0b6"></stop></linearGradient><linearGradient gradientUnits="objectBoundingBox" id="未命名的渐变_11-3" node-id="16" spreadMethod="pad" x1="1080.08" x2="1113.5" y1="577.88" y2="635.76"><stop offset="0.02" stop-color="#fdf2dd"></stop><stop offset="1" stop-color="#ddd0b6"></stop></linearGradient><linearGradient gradientUnits="objectBoundingBox" id="未命名的渐变_11-4" node-id="17" spreadMethod="pad" x1="119.41" x2="152.83" y1="626.51" y2="684.4"><stop offset="0.02" stop-color="#fdf2dd"></stop><stop offset="1" stop-color="#ddd0b6"></stop></linearGradient><linearGradient gradientUnits="objectBoundingBox" id="未命名的渐变_11-5" node-id="18" spreadMethod="pad" x1="669.04" x2="689.6" y1="151.74" y2="187.35"><stop offset="0.02" stop-color="#fdf2dd"></stop><stop offset="1" stop-color="#ddd0b6"></stop></linearGradient><linearGradient gradientUnits="objectBoundingBox" id="未命名的渐变_7-2" node-id="19" spreadMethod="pad" x1="334.9" x2="364.32" y1="170.81" y2="221.76"><stop offset="0.25" stop-color="#ffffff"></stop><stop offset="1" stop-color="#fcf2de"></stop></linearGradient><linearGradient gradientUnits="objectBoundingBox" id="未命名的渐变_7-3" node-id="20" spreadMethod="pad" x1="839.37" x2="868.78" y1="197.23" y2="248.17"><stop offset="0.25" stop-color="#ffffff"></stop><stop offset="1" stop-color="#fcf2de"></stop></linearGradient><linearGradient gradientUnits="objectBoundingBox" id="未命名的渐变_58" node-id="21" spreadMethod="pad" x1="926.53" x2="926.53" y1="979.06" y2="913.8"><stop offset="0.24" stop-color="#ffffff"></stop><stop offset="0.98" stop-color="#e5c798"></stop></linearGradient><linearGradient gradientUnits="objectBoundingBox" id="未命名的渐变_58-2" node-id="24" spreadMethod="pad" x1="169.66" x2="169.66" y1="965.09" y2="899.83"><stop offset="0.24" stop-color="#ffffff"></stop><stop offset="0.98" stop-color="#e5c798"></stop></linearGradient><linearGradient gradientUnits="objectBoundingBox" id="未命名的渐变_53" node-id="25" spreadMethod="pad" x1="519.57" x2="519.57" y1="1086.91" y2="824.66"><stop offset="0.24" stop-color="#ffffff"></stop><stop offset="0.98" stop-color="#dac49b"></stop></linearGradient><linearGradient gradientUnits="objectBoundingBox" id="未命名的渐变_21" node-id="28" spreadMethod="pad" x1="272.22" x2="963.75" y1="589" y2="589"><stop offset="0.02" stop-color="#f1e1c5"></stop><stop offset="1" stop-color="#ccb48d"></stop></linearGradient><linearGradient gradientUnits="objectBoundingBox" id="未命名的渐变_11-6" node-id="31" spreadMethod="pad" x1="272.22" x2="931.99" y1="598.82" y2="598.82"><stop offset="0.02" stop-color="#fdf2dd"></stop><stop offset="1" stop-color="#ddd0b6"></stop></linearGradient><linearGradient gradientUnits="objectBoundingBox" id="未命名的渐变_21-2" node-id="32" spreadMethod="pad" x1="339.76" x2="868.88" y1="597.55" y2="597.55"><stop offset="0.02" stop-color="#f1e1c5"></stop><stop offset="1" stop-color="#ccb48d"></stop></linearGradient><linearGradient gradientUnits="objectBoundingBox" id="未命名的渐变_27" node-id="33" spreadMethod="pad" x1="339.76" x2="862.19" y1="600.1" y2="600.1"><stop offset="0.25" stop-color="#ffffff"></stop><stop offset="1" stop-color="#f9f1e4"></stop></linearGradient><linearGradient gradientUnits="objectBoundingBox" id="未命名的渐变_21-3" node-id="36" spreadMethod="pad" x1="443.77" x2="785.03" y1="231.65" y2="231.65"><stop offset="0.02" stop-color="#f1e1c5"></stop><stop offset="1" stop-color="#ccb48d"></stop></linearGradient><linearGradient gradientUnits="objectBoundingBox" id="未命名的渐变_11-7" node-id="37" spreadMethod="pad" x1="443.77" x2="760.44" y1="242.18" y2="242.18"><stop offset="0.02" stop-color="#fdf2dd"></stop><stop offset="1" stop-color="#ddd0b6"></stop></linearGradient><linearGradient gradientUnits="objectBoundingBox" id="未命名的渐变_21-4" node-id="38" spreadMethod="pad" x1="417.03" x2="782.36" y1="431.74" y2="431.74"><stop offset="0.02" stop-color="#f1e1c5"></stop><stop offset="1" stop-color="#ccb48d"></stop></linearGradient><linearGradient gradientUnits="objectBoundingBox" id="未命名的渐变_53-2" node-id="39" spreadMethod="pad" x1="417.03" x2="773.18" y1="437.07" y2="437.07"><stop offset="0.24" stop-color="#ffffff"></stop><stop offset="0.98" stop-color="#dac49b"></stop></linearGradient><linearGradient gradientUnits="objectBoundingBox" id="未命名的渐变_21-5" node-id="40" spreadMethod="pad" x1="417.03" x2="782.36" y1="591.4" y2="591.4"><stop offset="0.02" stop-color="#f1e1c5"></stop><stop offset="1" stop-color="#ccb48d"></stop></linearGradient><linearGradient gradientUnits="objectBoundingBox" id="未命名的渐变_53-3" node-id="41" spreadMethod="pad" x1="417.03" x2="773.18" y1="596.73" y2="596.73"><stop offset="0.24" stop-color="#ffffff"></stop><stop offset="0.98" stop-color="#dac49b"></stop></linearGradient><linearGradient gradientUnits="objectBoundingBox" id="未命名的渐变_21-6" node-id="42" spreadMethod="pad" x1="417.03" x2="782.36" y1="748.98" y2="748.98"><stop offset="0.02" stop-color="#f1e1c5"></stop><stop offset="1" stop-color="#ccb48d"></stop></linearGradient><linearGradient gradientUnits="objectBoundingBox" id="未命名的渐变_53-4" node-id="43" spreadMethod="pad" x1="417.03" x2="773.18" y1="754.32" y2="754.32"><stop offset="0.24" stop-color="#ffffff"></stop><stop offset="0.98" stop-color="#dac49b"></stop></linearGradient></defs><path d="M 1105.95 881.00 C 1105.95 931.80 1052.98 980.52 958.68 1016.44 C 864.39 1052.36 736.50 1072.54 603.15 1072.54 C 469.80 1072.54 341.91 1052.36 247.62 1016.44 C 153.32 980.52 100.35 931.80 100.35 881.00 C 100.35 830.20 153.32 781.48 247.62 745.56 C 341.91 709.64 469.80 689.46 603.15 689.46 C 736.50 689.46 864.39 709.64 958.68 745.56 C 1052.98 781.48 1105.95 830.20 1105.95 881.00 Z" fill="url(#未命名的渐变_7)" fill-rule="nonzero" node-id="227" stroke="none" target-height="383.08002" target-width="1005.6" target-x="100.350006" target-y="689.46"></path><path d="M 1096.09 796.88 L 1061.09 703.88 C 1059.53 699.73 1055.56 696.97 1051.12 696.97 C 1046.68 696.97 1042.71 699.73 1041.15 703.88 L 1006.15 796.88 C 1004.91 800.16 1005.37 803.83 1007.36 806.71 C 1009.36 809.59 1012.65 811.30 1016.15 811.29 L 1045.00 811.29 L 1045.00 853.64 C 1045.00 857.02 1057.26 857.02 1057.26 853.64 L 1057.26 811.29 L 1086.15 811.29 C 1089.64 811.28 1092.91 809.56 1094.89 806.69 C 1096.88 803.81 1097.32 800.15 1096.09 796.88 Z" fill="url(#未命名的渐变_57)" fill-rule="nonzero" node-id="229" stroke="none" target-height="160.04547" target-width="92.40997" target-x="1004.91315" target-y="696.97455"></path><path d="M 201.10 807.22 L 176.63 742.22 C 175.54 739.32 172.76 737.40 169.66 737.40 C 166.57 737.40 163.79 739.32 162.70 742.22 L 138.22 807.22 C 137.36 809.51 137.68 812.08 139.08 814.09 C 140.47 816.10 142.77 817.30 145.22 817.29 L 165.41 817.29 L 165.41 846.88 C 165.41 849.25 173.98 849.25 173.98 846.88 L 173.98 817.29 L 194.17 817.29 C 196.61 817.28 198.89 816.08 200.27 814.07 C 201.65 812.06 201.96 809.50 201.10 807.22 Z" fill="url(#未命名的渐变_57-2)" fill-rule="nonzero" node-id="231" stroke="none" target-height="111.85419" target-width="64.603134" target-x="137.3588" target-y="737.3958"></path><g node-id="295"><path d="M 174.69 242.87 L 182.47 278.30 L 213.27 287.24 L 182.47 296.19 L 174.69 331.62 L 166.91 296.19 L 136.12 287.24 L 166.91 278.30 L 174.69 242.87 Z" fill="url(#未命名的渐变_11)" fill-opacity="0.9" fill-rule="nonzero" group-id="1" node-id="235" stroke="none" target-height="88.750015" target-width="77.149994" target-x="136.12" target-y="242.86998"></path></g><path d="M 1068.34 404.21 L 1078.75 451.67 L 1120.01 463.66 L 1078.75 475.64 L 1068.34 523.10 L 1057.92 475.64 L 1016.66 463.66 L 1057.92 451.67 L 1068.34 404.21 Z" fill="url(#未命名的渐变_11-2)" fill-rule="nonzero" node-id="238" stroke="none" target-height="118.889984" target-width="103.35004" target-x="1016.66" target-y="404.21"></path><g node-id="296"><path d="M 1096.79 568.23 L 1103.55 599.04 L 1130.33 606.82 L 1103.55 614.60 L 1096.79 645.41 L 1090.03 614.60 L 1063.24 606.82 L 1090.03 599.04 L 1096.79 568.23 Z" fill="url(#未命名的渐变_11-3)" fill-opacity="0.7" fill-rule="nonzero" group-id="2" node-id="242" stroke="none" target-height="77.17999" target-width="67.089966" target-x="1063.24" target-y="568.23"></path></g><g node-id="297"><path d="M 136.12 616.86 L 142.88 647.68 L 169.66 655.46 L 142.88 663.24 L 136.12 694.05 L 129.35 663.24 L 102.57 655.46 L 129.35 647.68 L 136.12 616.86 Z" fill="url(#未命名的渐变_11-4)" fill-opacity="0.7" fill-rule="nonzero" group-id="3" node-id="247" stroke="none" target-height="77.19" target-width="67.09" target-x="102.57001" target-y="616.86"></path></g><g node-id="298"><path d="M 679.32 145.81 L 683.48 164.76 L 699.96 169.55 L 683.48 174.33 L 679.32 193.29 L 675.16 174.33 L 658.68 169.55 L 675.16 164.76 L 679.32 145.81 Z" fill="url(#未命名的渐变_11-5)" fill-opacity="0.6" fill-rule="nonzero" group-id="4" node-id="252" stroke="none" target-height="47.479996" target-width="41.28003" target-x="658.68" target-y="145.81"></path></g><path d="M 379.02 196.28 C 379.02 212.52 365.85 225.69 349.61 225.69 C 333.37 225.69 320.20 212.52 320.20 196.28 C 320.20 180.04 333.37 166.87 349.61 166.87 C 365.85 166.87 379.02 180.04 379.02 196.28 Z" fill="url(#未命名的渐变_7-2)" fill-rule="nonzero" node-id="255" stroke="none" target-height="58.820007" target-width="58.820007" target-x="320.19998" target-y="166.87"></path><path d="M 883.48 222.70 C 883.48 238.94 870.31 252.11 854.07 252.11 C 837.83 252.11 824.66 238.94 824.66 222.70 C 824.66 206.46 837.83 193.29 854.07 193.29 C 870.31 193.29 883.48 206.46 883.48 222.70 Z" fill="url(#未命名的渐变_7-3)" fill-rule="nonzero" node-id="257" stroke="none" target-height="58.820023" target-width="58.819946" target-x="824.66003" target-y="193.29"></path><g node-id="299"><path d="M 997.35 946.43 C 997.35 964.45 965.64 979.06 926.53 979.06 C 887.42 979.06 855.71 964.45 855.71 946.43 C 855.71 928.41 887.42 913.80 926.53 913.80 C 965.64 913.80 997.35 928.41 997.35 946.43 Z" fill="url(#未命名的渐变_58)" fill-opacity="0.5" fill-rule="nonzero" group-id="5" node-id="261" stroke="none" target-height="65.26001" target-width="141.64001" target-x="855.71" target-y="913.8"></path></g><g node-id="300"><path d="M 240.48 932.46 C 240.48 950.48 208.77 965.09 169.66 965.09 C 130.55 965.09 98.84 950.48 98.84 932.46 C 98.84 914.44 130.55 899.83 169.66 899.83 C 208.77 899.83 240.48 914.44 240.48 932.46 Z" fill="url(#未命名的渐变_58-2)" fill-opacity="0.5" fill-rule="nonzero" group-id="6" node-id="266" stroke="none" target-height="65.26001" target-width="141.64001" target-x="98.83999" target-y="899.83"></path></g><path d="M 413.31 824.65 L 99.30 1054.98 L 901.88 1086.91 L 939.84 899.83 L 413.31 824.65 Z" fill="url(#未命名的渐变_53)" fill-rule="nonzero" node-id="269" stroke="none" target-height="262.25995" target-width="840.5401" target-x="99.3" target-y="824.6501"></path><path d="M 403.13 222.70 L 832.83 222.70 C 905.13 222.70 963.74 281.31 963.74 353.61 L 963.74 824.40 C 963.74 896.70 905.13 955.31 832.83 955.31 L 403.13 955.31 C 330.83 955.31 272.22 896.70 272.22 824.40 L 272.22 353.61 C 272.22 281.31 330.83 222.70 403.13 222.70 Z" fill="url(#未命名的渐变_21)" fill-rule="nonzero" node-id="271" stroke="none" target-height="732.61" target-width="691.52" target-x="272.22" target-y="222.7"></path><path d="M 394.22 242.34 L 809.98 242.34 C 877.36 242.34 931.98 296.96 931.98 364.34 L 931.98 833.31 C 931.98 900.69 877.36 955.31 809.98 955.31 L 394.22 955.31 C 326.84 955.31 272.22 900.69 272.22 833.31 L 272.22 364.34 C 272.22 296.96 326.84 242.34 394.22 242.34 Z" fill="url(#未命名的渐变_11-6)" fill-rule="nonzero" node-id="273" stroke="none" target-height="712.97" target-width="659.76" target-x="272.22" target-y="242.34"></path><path d="M 422.29 305.77 L 786.36 305.77 C 831.94 305.77 868.89 342.72 868.89 388.30 L 868.89 806.80 C 868.89 828.69 860.20 849.68 844.72 865.16 C 829.24 880.63 808.25 889.33 786.36 889.33 L 422.29 889.33 C 376.71 889.33 339.76 852.38 339.76 806.80 L 339.76 388.30 C 339.76 342.72 376.71 305.77 422.29 305.77 Z" fill="url(#未命名的渐变_21-2)" fill-rule="nonzero" node-id="275" stroke="none" target-height="583.56006" target-width="529.1301" target-x="339.75998" target-y="305.76996"></path><path d="M 422.29 310.87 L 779.67 310.87 C 825.25 310.87 862.20 347.82 862.20 393.40 L 862.20 806.80 C 862.20 852.38 825.25 889.33 779.67 889.33 L 422.29 889.33 C 376.71 889.33 339.76 852.38 339.76 806.80 L 339.76 393.40 C 339.76 347.82 376.71 310.87 422.29 310.87 Z" fill="url(#未命名的渐变_27)" fill-rule="nonzero" node-id="277" stroke="none" target-height="578.46" target-width="522.43994" target-x="339.76" target-y="310.87"></path><path d="M 729.21 199.41 L 668.51 199.41 C 666.67 169.48 643.16 145.81 614.40 145.81 L 614.40 145.81 C 585.65 145.81 562.13 169.48 560.29 199.41 L 499.59 199.41 C 468.76 199.41 443.77 225.84 443.77 258.41 L 443.77 258.41 C 443.77 291.02 468.77 317.41 499.59 317.41 L 729.21 317.41 C 760.04 317.41 785.03 290.98 785.03 258.41 L 785.03 258.41 C 785.00 225.84 760.00 199.41 729.21 199.41 Z" fill="url(#未命名的渐变_21-3)" fill-rule="nonzero" node-id="279" stroke="none" target-height="171.6" target-width="341.26004" target-x="443.77" target-y="145.81"></path><path d="M 708.64 213.89 L 652.32 213.89 C 650.57 187.45 628.61 166.90 602.11 166.89 L 602.11 166.89 C 575.61 166.89 553.65 187.45 551.90 213.89 L 495.57 213.89 C 466.96 213.89 443.77 237.08 443.77 265.69 L 443.77 265.69 C 443.77 294.30 466.96 317.49 495.57 317.49 L 708.64 317.49 C 737.25 317.49 760.44 294.30 760.44 265.69 L 760.44 265.69 C 760.44 237.08 737.25 213.89 708.64 213.89 Z" fill="url(#未命名的渐变_11-7)" fill-rule="nonzero" node-id="281" stroke="none" target-height="150.59999" target-width="316.67" target-x="443.77" target-y="166.89"></path><path d="M 455.22 393.55 L 744.17 393.55 C 765.26 393.55 782.36 410.65 782.36 431.74 L 782.36 431.74 C 782.36 452.83 765.26 469.93 744.17 469.93 L 455.22 469.93 C 434.13 469.93 417.03 452.83 417.03 431.74 L 417.03 431.74 C 417.03 410.65 434.13 393.55 455.22 393.55 Z" fill="url(#未命名的渐变_21-4)" fill-rule="nonzero" node-id="283" stroke="none" target-height="76.380005" target-width="365.33002" target-x="417.02997" target-y="393.55"></path><path d="M 449.89 404.21 L 740.32 404.21 C 758.47 404.21 773.18 418.92 773.18 437.07 L 773.18 437.07 C 773.18 455.22 758.47 469.93 740.32 469.93 L 449.89 469.93 C 431.74 469.93 417.03 455.22 417.03 437.07 L 417.03 437.07 C 417.03 428.35 420.49 420.00 426.65 413.83 C 432.82 407.67 441.18 404.21 449.89 404.21 Z" fill="url(#未命名的渐变_53-2)" fill-rule="nonzero" node-id="285" stroke="none" target-height="65.72" target-width="356.15002" target-x="417.02997" target-y="404.21"></path><path d="M 455.22 553.21 L 744.17 553.21 C 765.26 553.21 782.36 570.31 782.36 591.40 L 782.36 591.40 C 782.36 612.49 765.26 629.59 744.17 629.59 L 455.22 629.59 C 434.13 629.59 417.03 612.49 417.03 591.40 L 417.03 591.40 C 417.03 570.31 434.13 553.21 455.22 553.21 Z" fill="url(#未命名的渐变_21-5)" fill-rule="nonzero" node-id="287" stroke="none" target-height="76.380005" target-width="365.33002" target-x="417.02997" target-y="553.21"></path><path d="M 449.89 563.88 L 740.32 563.88 C 758.47 563.88 773.18 578.59 773.18 596.74 L 773.18 596.74 C 773.18 614.89 758.47 629.60 740.32 629.60 L 449.89 629.60 C 431.74 629.60 417.03 614.89 417.03 596.74 L 417.03 596.74 C 417.03 578.59 431.74 563.88 449.89 563.88 Z" fill="url(#未命名的渐变_53-3)" fill-rule="nonzero" node-id="289" stroke="none" target-height="65.71997" target-width="356.15002" target-x="417.02997" target-y="563.88"></path><path d="M 455.22 710.79 L 744.17 710.79 C 765.26 710.79 782.36 727.89 782.36 748.98 L 782.36 748.98 C 782.36 770.07 765.26 787.17 744.17 787.17 L 455.22 787.17 C 434.13 787.17 417.03 770.07 417.03 748.98 L 417.03 748.98 C 417.03 727.89 434.13 710.79 455.22 710.79 Z" fill="url(#未命名的渐变_21-6)" fill-rule="nonzero" node-id="291" stroke="none" target-height="76.38013" target-width="365.33002" target-x="417.02997" target-y="710.7899"></path><path d="M 449.89 721.46 L 740.32 721.46 C 758.47 721.46 773.18 736.17 773.18 754.32 L 773.18 754.32 C 773.18 772.47 758.47 787.18 740.32 787.18 L 449.89 787.18 C 431.74 787.18 417.03 772.47 417.03 754.32 L 417.03 754.32 C 417.03 736.17 431.74 721.46 449.89 721.46 Z" fill="url(#未命名的渐变_53-4)" fill-rule="nonzero" node-id="293" stroke="none" target-height="65.72009" target-width="356.15002" target-x="417.02997" target-y="721.46"></path></svg>