<?xml version="1.0" standalone="no"?><!DOCTYPE svg PUBLIC "-//W3C//DTD SVG 1.1//EN" "http://www.w3.org/Graphics/SVG/1.1/DTD/svg11.dtd"><svg height="1200" node-id="1" sillyvg="true" template-height="1200" template-width="1200" version="1.1" viewBox="0 0 1200 1200" width="1200" xmlns="http://www.w3.org/2000/svg" xmlns:xlink="http://www.w3.org/1999/xlink"><defs node-id="59"><linearGradient gradientUnits="objectBoundingBox" id="未命名的渐变_7" node-id="5" spreadMethod="pad" x1="604.17" x2="604.17" y1="1061.71" y2="678.62"><stop offset="0.25" stop-color="#ffffff"></stop><stop offset="1" stop-color="#fcf2de"></stop></linearGradient><linearGradient gradientUnits="objectBoundingBox" id="未命名的渐变_57" node-id="8" spreadMethod="pad" x1="1052.13" x2="1052.13" y1="686.2" y2="845.34"><stop offset="0" stop-color="#ffffff"></stop><stop offset="0.83" stop-color="#e8d3af"></stop></linearGradient><linearGradient gradientUnits="objectBoundingBox" id="未命名的渐变_57-2" node-id="11" spreadMethod="pad" x1="170.69" x2="170.69" y1="726.62" y2="837.82"><stop offset="0" stop-color="#ffffff"></stop><stop offset="0.83" stop-color="#e8d3af"></stop></linearGradient><linearGradient gradientUnits="objectBoundingBox" id="未命名的渐变_11" node-id="12" spreadMethod="pad" x1="156.5" x2="194.93" y1="243.13" y2="309.69"><stop offset="0.02" stop-color="#fdf2dd"></stop><stop offset="1" stop-color="#ddd0b6"></stop></linearGradient><linearGradient gradientUnits="objectBoundingBox" id="未命名的渐变_11-2" node-id="15" spreadMethod="pad" x1="1043.62" x2="1095.1" y1="408.24" y2="497.4"><stop offset="0.02" stop-color="#fdf2dd"></stop><stop offset="1" stop-color="#ddd0b6"></stop></linearGradient><linearGradient gradientUnits="objectBoundingBox" id="未命名的渐变_11-3" node-id="16" spreadMethod="pad" x1="1081.1" x2="1114.52" y1="567.04" y2="624.93"><stop offset="0.02" stop-color="#fdf2dd"></stop><stop offset="1" stop-color="#ddd0b6"></stop></linearGradient><linearGradient gradientUnits="objectBoundingBox" id="未命名的渐变_11-4" node-id="17" spreadMethod="pad" x1="120.43" x2="153.85" y1="615.68" y2="673.57"><stop offset="0.02" stop-color="#fdf2dd"></stop><stop offset="1" stop-color="#ddd0b6"></stop></linearGradient><linearGradient gradientUnits="objectBoundingBox" id="未命名的渐变_11-5" node-id="18" spreadMethod="pad" x1="670.07" x2="690.63" y1="140.91" y2="176.52"><stop offset="0.02" stop-color="#fdf2dd"></stop><stop offset="1" stop-color="#ddd0b6"></stop></linearGradient><linearGradient gradientUnits="objectBoundingBox" id="未命名的渐变_7-2" node-id="19" spreadMethod="pad" x1="335.93" x2="365.34" y1="159.97" y2="210.92"><stop offset="0.25" stop-color="#ffffff"></stop><stop offset="1" stop-color="#fcf2de"></stop></linearGradient><linearGradient gradientUnits="objectBoundingBox" id="未命名的渐变_7-3" node-id="20" spreadMethod="pad" x1="840.39" x2="869.81" y1="186.39" y2="237.34"><stop offset="0.25" stop-color="#ffffff"></stop><stop offset="1" stop-color="#fcf2de"></stop></linearGradient><linearGradient gradientUnits="objectBoundingBox" id="未命名的渐变_58" node-id="21" spreadMethod="pad" x1="927.56" x2="927.56" y1="968.23" y2="902.97"><stop offset="0.24" stop-color="#ffffff"></stop><stop offset="0.98" stop-color="#e5c798"></stop></linearGradient><linearGradient gradientUnits="objectBoundingBox" id="未命名的渐变_58-2" node-id="24" spreadMethod="pad" x1="170.69" x2="170.69" y1="954.26" y2="889"><stop offset="0.24" stop-color="#ffffff"></stop><stop offset="0.98" stop-color="#e5c798"></stop></linearGradient><linearGradient gradientUnits="objectBoundingBox" id="未命名的渐变_53" node-id="25" spreadMethod="pad" x1="638.74" x2="638.74" y1="1048.14" y2="870.17"><stop offset="0.24" stop-color="#ffffff"></stop><stop offset="0.98" stop-color="#dac49b"></stop></linearGradient><linearGradient gradientUnits="objectBoundingBox" id="未命名的渐变_60" node-id="28" spreadMethod="pad" x1="318.71" x2="318.71" y1="843.59" y2="689.85"><stop offset="0.24" stop-color="#fef9f1"></stop><stop offset="0.98" stop-color="#dac49b"></stop></linearGradient><linearGradient gradientUnits="objectBoundingBox" id="未命名的渐变_21" node-id="31" spreadMethod="pad" x1="245.2" x2="544.8" y1="522.17" y2="522.17"><stop offset="0.02" stop-color="#f1e1c5"></stop><stop offset="1" stop-color="#ccb48d"></stop></linearGradient><linearGradient gradientUnits="objectBoundingBox" id="未命名的渐变_11-6" node-id="34" spreadMethod="pad" x1="207.61" x2="527.69" y1="520.01" y2="520.01"><stop offset="0.02" stop-color="#fdf2dd"></stop><stop offset="1" stop-color="#ddd0b6"></stop></linearGradient><linearGradient gradientUnits="objectBoundingBox" id="未命名的渐变_21-2" node-id="35" spreadMethod="pad" x1="444.91" x2="1019.33" y1="538.37" y2="538.37"><stop offset="0.02" stop-color="#f1e1c5"></stop><stop offset="1" stop-color="#ccb48d"></stop></linearGradient><linearGradient gradientUnits="objectBoundingBox" id="未命名的渐变_11-7" node-id="36" spreadMethod="pad" x1="371.79" x2="994.47" y1="534.17" y2="534.17"><stop offset="0.02" stop-color="#fdf2dd"></stop><stop offset="1" stop-color="#ddd0b6"></stop></linearGradient></defs><path d="M 1106.97 870.17 C 1106.97 920.97 1054.00 969.69 959.70 1005.61 C 865.41 1041.53 737.52 1061.71 604.17 1061.71 C 470.82 1061.71 342.93 1041.53 248.64 1005.61 C 154.34 969.69 101.37 920.97 101.37 870.17 C 101.37 819.37 154.34 770.65 248.64 734.73 C 342.93 698.81 470.82 678.63 604.17 678.63 C 737.52 678.63 865.41 698.81 959.70 734.73 C 1054.00 770.65 1106.97 819.37 1106.97 870.17 Z" fill="url(#未命名的渐变_7)" fill-rule="nonzero" node-id="171" stroke="none" target-height="383.07996" target-width="1005.6" target-x="101.37" target-y="678.63"></path><path d="M 1097.12 786.00 L 1062.12 693.06 C 1060.56 688.91 1056.59 686.15 1052.15 686.15 C 1047.71 686.15 1043.74 688.91 1042.18 693.06 L 1007.18 786.00 C 1005.94 789.28 1006.40 792.95 1008.39 795.83 C 1010.39 798.71 1013.68 800.42 1017.18 800.41 L 1046.00 800.41 L 1046.00 842.80 C 1046.00 846.19 1058.26 846.19 1058.26 842.80 L 1058.26 800.45 L 1087.15 800.45 C 1090.66 800.46 1093.94 798.74 1095.94 795.85 C 1097.93 792.96 1098.37 789.28 1097.12 786.00 Z" fill="url(#未命名的渐变_57)" fill-rule="nonzero" node-id="173" stroke="none" target-height="160.03546" target-width="92.42853" target-x="1005.9432" target-y="686.15454"></path><path d="M 202.13 796.38 L 177.66 731.44 C 176.57 728.54 173.79 726.62 170.69 726.62 C 167.59 726.62 164.81 728.54 163.72 731.44 L 139.25 796.38 C 138.39 798.67 138.71 801.24 140.11 803.25 C 141.50 805.26 143.80 806.46 146.25 806.45 L 166.44 806.45 L 166.44 836.05 C 166.44 838.41 175.00 838.41 175.00 836.05 L 175.00 806.45 L 195.19 806.45 C 197.63 806.44 199.91 805.24 201.29 803.23 C 202.67 801.22 202.99 798.66 202.13 796.38 Z" fill="url(#未命名的渐变_57-2)" fill-rule="nonzero" node-id="175" stroke="none" target-height="111.78906" target-width="64.59868" target-x="138.3888" target-y="726.6209"></path><g node-id="225"><path d="M 175.72 232.03 L 183.49 267.46 L 214.29 276.41 L 183.49 285.35 L 175.72 320.78 L 167.94 285.35 L 137.14 276.41 L 167.94 267.46 L 175.72 232.03 Z" fill="url(#未命名的渐变_11)" fill-opacity="0.9" fill-rule="nonzero" group-id="1" node-id="179" stroke="none" target-height="88.75" target-width="77.15001" target-x="137.14" target-y="232.03"></path></g><path d="M 1069.36 393.38 L 1079.78 440.84 L 1121.04 452.82 L 1079.78 464.81 L 1069.36 512.27 L 1058.95 464.81 L 1017.69 452.82 L 1058.95 440.84 L 1069.36 393.38 Z" fill="url(#未命名的渐变_11-2)" fill-rule="nonzero" node-id="182" stroke="none" target-height="118.890015" target-width="103.35004" target-x="1017.69" target-y="393.38"></path><g node-id="226"><path d="M 1097.81 557.40 L 1104.58 588.21 L 1131.36 595.99 L 1104.58 603.77 L 1097.81 634.58 L 1091.05 603.77 L 1064.27 595.99 L 1091.05 588.21 L 1097.81 557.40 Z" fill="url(#未命名的渐变_11-3)" fill-opacity="0.7" fill-rule="nonzero" group-id="2" node-id="186" stroke="none" target-height="77.17999" target-width="67.089966" target-x="1064.27" target-y="557.4"></path></g><g node-id="227"><path d="M 137.14 606.03 L 143.91 636.84 L 170.69 644.62 L 143.91 652.40 L 137.14 683.21 L 130.38 652.40 L 103.60 644.62 L 130.38 636.84 L 137.14 606.03 Z" fill="url(#未命名的渐变_11-4)" fill-opacity="0.7" fill-rule="nonzero" group-id="3" node-id="191" stroke="none" target-height="77.17999" target-width="67.090004" target-x="103.6" target-y="606.03"></path></g><g node-id="228"><path d="M 680.35 134.97 L 684.51 153.93 L 700.98 158.72 L 684.51 163.50 L 680.35 182.46 L 676.19 163.50 L 659.71 158.72 L 676.19 153.93 L 680.35 134.97 Z" fill="url(#未命名的渐变_11-5)" fill-opacity="0.6" fill-rule="nonzero" group-id="4" node-id="196" stroke="none" target-height="47.490005" target-width="41.27002" target-x="659.71" target-y="134.97"></path></g><path d="M 380.05 185.45 C 380.05 201.69 366.88 214.86 350.64 214.86 C 334.40 214.86 321.23 201.69 321.23 185.45 C 321.23 169.21 334.40 156.04 350.64 156.04 C 366.88 156.04 380.05 169.21 380.05 185.45 Z" fill="url(#未命名的渐变_7-2)" fill-rule="nonzero" node-id="199" stroke="none" target-height="58.820007" target-width="58.820007" target-x="321.23" target-y="156.04"></path><path d="M 884.51 211.87 C 884.51 228.11 871.34 241.28 855.10 241.28 C 838.86 241.28 825.69 228.11 825.69 211.87 C 825.69 195.63 838.86 182.46 855.10 182.46 C 871.34 182.46 884.51 195.63 884.51 211.87 Z" fill="url(#未命名的渐变_7-3)" fill-rule="nonzero" node-id="201" stroke="none" target-height="58.820007" target-width="58.820007" target-x="825.69" target-y="182.45999"></path><g node-id="229"><path d="M 998.38 935.60 C 998.38 953.62 966.67 968.23 927.56 968.23 C 888.45 968.23 856.74 953.62 856.74 935.60 C 856.74 917.58 888.45 902.97 927.56 902.97 C 966.67 902.97 998.38 917.58 998.38 935.60 Z" fill="url(#未命名的渐变_58)" fill-opacity="0.5" fill-rule="nonzero" group-id="5" node-id="205" stroke="none" target-height="65.26001" target-width="141.64001" target-x="856.74" target-y="902.97"></path></g><g node-id="230"><path d="M 241.51 921.63 C 241.51 939.65 209.80 954.26 170.69 954.26 C 131.58 954.26 99.87 939.65 99.87 921.63 C 99.87 903.61 131.58 889.00 170.69 889.00 C 209.80 889.00 241.51 903.61 241.51 921.63 Z" fill="url(#未命名的渐变_58-2)" fill-opacity="0.5" fill-rule="nonzero" group-id="6" node-id="210" stroke="none" target-height="65.26001" target-width="141.64001" target-x="99.869995" target-y="889"></path></g><path d="M 717.94 870.17 L 405.42 1048.14 L 872.06 1048.14 L 717.94 870.17 Z" fill="url(#未命名的渐变_53)" fill-rule="nonzero" node-id="213" stroke="none" target-height="177.97003" target-width="466.63995" target-x="405.42004" target-y="870.17"></path><path d="M 387.13 689.85 L 117.16 843.59 L 520.26 843.59 L 387.13 689.85 Z" fill="url(#未命名的渐变_60)" fill-rule="nonzero" node-id="215" stroke="none" target-height="153.74005" target-width="403.1" target-x="117.16001" target-y="689.85"></path><path d="M 395.00 327.14 C 377.49 326.91 381.67 327.02 363.00 327.21 C 305.40 349.51 245.18 417.94 245.18 487.21 C 245.18 560.45 308.05 664.56 367.63 712.91 C 375.72 719.47 388.10 718.56 399.22 711.58 C 459.22 669.00 544.78 573.58 544.78 487.21 C 544.80 398.79 477.73 328.19 395.00 327.14 Z M 395.00 539.34 C 364.00 539.34 338.92 512.52 338.92 479.43 C 338.92 446.34 364.00 419.51 395.00 419.51 C 426.00 419.51 451.08 446.34 451.08 479.43 C 451.08 512.52 426.00 539.34 395.00 539.34 Z" fill="url(#未命名的渐变_21)" fill-rule="nonzero" node-id="217" stroke="none" target-height="392.5599" target-width="299.62" target-x="245.18" target-y="326.91"></path><path d="M 367.65 327.14 C 279.28 327.14 207.65 398.77 207.65 487.14 C 207.65 573.69 292.90 662.73 363.23 711.41 C 365.93 713.29 369.49 713.33 372.23 711.51 C 436.36 668.93 527.74 573.51 527.74 487.14 C 527.74 444.69 510.87 403.98 480.85 373.97 C 450.82 343.96 410.10 327.12 367.65 327.14 Z M 367.65 539.34 C 343.41 539.34 321.56 524.74 312.29 502.35 C 303.02 479.96 308.14 454.18 325.28 437.05 C 342.42 419.91 368.20 414.79 390.59 424.06 C 412.98 433.34 427.57 455.19 427.57 479.43 C 427.57 495.32 421.26 510.56 410.02 521.80 C 398.78 533.03 383.54 539.34 367.65 539.34 Z" fill="url(#未命名的渐变_11-6)" fill-rule="nonzero" node-id="219" stroke="none" target-height="386.2114" target-width="320.09" target-x="207.65" target-y="327.11612"></path><path d="M 732.12 159.00 C 698.54 158.56 706.55 158.78 670.81 159.14 C 560.37 202.52 444.91 335.64 444.91 470.34 C 444.91 612.83 565.46 815.34 679.69 909.41 C 695.19 922.18 718.93 920.41 740.25 906.83 C 855.33 824.00 1019.33 638.25 1019.33 470.30 C 1019.33 298.35 890.73 161.00 732.12 159.00 Z M 732.12 571.82 C 672.74 571.82 624.60 519.63 624.60 455.26 C 624.60 390.89 672.74 338.71 732.12 338.71 C 791.50 338.71 839.64 390.89 839.64 455.26 C 839.64 519.63 791.50 571.78 732.12 571.78 Z" fill="url(#未命名的渐变_21-2)" fill-rule="nonzero" node-id="221" stroke="none" target-height="763.62" target-width="574.4199" target-x="444.91" target-y="158.56"></path><path d="M 683.13 159.00 C 511.18 159.00 371.79 298.35 371.79 470.30 C 371.79 638.67 537.63 811.90 674.45 906.59 C 679.69 910.23 686.62 910.31 691.94 906.79 C 816.69 824.00 994.47 638.25 994.47 470.30 C 994.47 298.35 855.08 159.00 683.13 159.00 Z M 683.13 571.82 C 618.76 571.83 566.57 519.65 566.56 455.28 C 566.55 390.91 618.72 338.72 683.09 338.70 C 747.46 338.68 799.66 390.85 799.68 455.22 C 799.67 519.59 747.50 571.77 683.13 571.78 Z" fill="url(#未命名的渐变_11-7)" fill-rule="nonzero" node-id="223" stroke="none" target-height="751.30536" target-width="622.67993" target-x="371.79004" target-y="159"></path></svg>