<svg viewBox="0 0 1024 1024" xmlns="http://www.w3.org/2000/svg" width="200" height="200"><path d="M736 352a128 128 0 1 0-128-128 128 128 0 0 0 128 128z m0-180a52 52 0 1 1-52 52 52 52 0 0 1 52-52zM288 640a128 128 0 1 0-128-128 128 128 0 0 0 128 128z m0-180a52 52 0 1 1-52 52 52 52 0 0 1 52-52zM736 672a128 128 0 1 0 128 128 128 128 0 0 0-128-128z m0 180a52 52 0 1 1 52-52 52 52 0 0 1-52 52z" fill="#6366f1"/><path d="M391.2 470.4l241.6-150.8a38 38 0 0 0-40.4-64.4l-241.6 150.8a38 38 0 0 0 40.4 64.4zM632.8 704.4l-241.6-150.8a38 38 0 0 0-40.4 64.4l241.6 150.8a38 38 0 0 0 40.4-64.4z" fill="#6366f1"/></svg>