<?xml version="1.0" standalone="no"?><!DOCTYPE svg PUBLIC "-//W3C//DTD SVG 1.1//EN" "http://www.w3.org/Graphics/SVG/1.1/DTD/svg11.dtd"><svg t="1772512911636" class="icon" viewBox="0 0 1024 1024" version="1.1" xmlns="http://www.w3.org/2000/svg" p-id="4382" xmlns:xlink="http://www.w3.org/1999/xlink" width="200" height="200"><path d="M512 983.04a471.04 471.04 0 1 1 471.04-471.04 471.3472 471.3472 0 0 1-471.04 471.04z m0-880.64a409.6 409.6 0 1 0 409.6 409.6 409.856 409.856 0 0 0-409.6-409.6z" fill="#6366f1" p-id="4383"></path><path d="M512 304.896m-44.1856 0a44.1856 44.1856 0 1 0 88.3712 0 44.1856 44.1856 0 1 0-88.3712 0Z" fill="#6366f1" p-id="4384"></path><path d="M512 789.8624a30.72 30.72 0 0 1-30.72-30.72V432.128a30.72 30.72 0 0 1 61.44 0v327.0144a30.72 30.72 0 0 1-30.72 30.72z" fill="#6366f1" p-id="4385"></path></svg>