<?xml version="1.0" standalone="no"?><!DOCTYPE svg PUBLIC "-//W3C//DTD SVG 1.1//EN" "http://www.w3.org/Graphics/SVG/1.1/DTD/svg11.dtd"><svg height="1200" node-id="1" sillyvg="true" template-height="1200" template-width="1200" version="1.1" viewBox="0 0 1200 1200" width="1200" xmlns="http://www.w3.org/2000/svg" xmlns:xlink="http://www.w3.org/1999/xlink"><defs node-id="79"><linearGradient gradientUnits="objectBoundingBox" id="未命名的渐变_7" node-id="5" spreadMethod="pad" x1="600.17" x2="600.17" y1="1072.54" y2="689.46"><stop offset="0.25" stop-color="#ffffff"></stop><stop offset="1" stop-color="#fcf2de"></stop></linearGradient><linearGradient gradientUnits="objectBoundingBox" id="未命名的渐变_57" node-id="8" spreadMethod="pad" x1="1048.12" x2="1048.12" y1="697.03" y2="856.18"><stop offset="0" stop-color="#ffffff"></stop><stop offset="0.83" stop-color="#e8d3af"></stop></linearGradient><linearGradient gradientUnits="objectBoundingBox" id="未命名的渐变_57-2" node-id="11" spreadMethod="pad" x1="166.68" x2="166.68" y1="737.45" y2="848.66"><stop offset="0" stop-color="#ffffff"></stop><stop offset="0.83" stop-color="#e8d3af"></stop></linearGradient><linearGradient gradientUnits="objectBoundingBox" id="未命名的渐变_11" node-id="12" spreadMethod="pad" x1="152.49" x2="190.93" y1="253.96" y2="320.52"><stop offset="0.02" stop-color="#fdf2dd"></stop><stop offset="1" stop-color="#ddd0b6"></stop></linearGradient><linearGradient gradientUnits="objectBoundingBox" id="未命名的渐变_11-2" node-id="15" spreadMethod="pad" x1="1039.62" x2="1091.09" y1="419.07" y2="508.24"><stop offset="0.02" stop-color="#fdf2dd"></stop><stop offset="1" stop-color="#ddd0b6"></stop></linearGradient><linearGradient gradientUnits="objectBoundingBox" id="未命名的渐变_11-3" node-id="16" spreadMethod="pad" x1="1077.1" x2="1110.52" y1="577.88" y2="635.76"><stop offset="0.02" stop-color="#fdf2dd"></stop><stop offset="1" stop-color="#ddd0b6"></stop></linearGradient><linearGradient gradientUnits="objectBoundingBox" id="未命名的渐变_11-4" node-id="17" spreadMethod="pad" x1="116.42" x2="149.85" y1="626.51" y2="684.4"><stop offset="0.02" stop-color="#fdf2dd"></stop><stop offset="1" stop-color="#ddd0b6"></stop></linearGradient><linearGradient gradientUnits="objectBoundingBox" id="未命名的渐变_11-5" node-id="18" spreadMethod="pad" x1="666.06" x2="686.62" y1="151.74" y2="187.35"><stop offset="0.02" stop-color="#fdf2dd"></stop><stop offset="1" stop-color="#ddd0b6"></stop></linearGradient><linearGradient gradientUnits="objectBoundingBox" id="未命名的渐变_7-2" node-id="19" spreadMethod="pad" x1="331.92" x2="361.33" y1="170.81" y2="221.76"><stop offset="0.25" stop-color="#ffffff"></stop><stop offset="1" stop-color="#fcf2de"></stop></linearGradient><linearGradient gradientUnits="objectBoundingBox" id="未命名的渐变_7-3" node-id="20" spreadMethod="pad" x1="836.38" x2="865.8" y1="197.23" y2="248.17"><stop offset="0.25" stop-color="#ffffff"></stop><stop offset="1" stop-color="#fcf2de"></stop></linearGradient><linearGradient gradientUnits="objectBoundingBox" id="未命名的渐变_58" node-id="21" spreadMethod="pad" x1="923.55" x2="923.55" y1="979.06" y2="913.8"><stop offset="0.24" stop-color="#ffffff"></stop><stop offset="0.98" stop-color="#e5c798"></stop></linearGradient><linearGradient gradientUnits="objectBoundingBox" id="未命名的渐变_58-2" node-id="24" spreadMethod="pad" x1="166.68" x2="166.68" y1="965.09" y2="899.83"><stop offset="0.24" stop-color="#ffffff"></stop><stop offset="0.98" stop-color="#e5c798"></stop></linearGradient><linearGradient gradientUnits="objectBoundingBox" id="未命名的渐变_53" node-id="25" spreadMethod="pad" x1="627.17" x2="627.17" y1="1030.9" y2="785.04"><stop offset="0.24" stop-color="#ffffff"></stop><stop offset="0.98" stop-color="#dac49b"></stop></linearGradient><linearGradient gradientUnits="objectBoundingBox" id="未命名的渐变_4" node-id="28" spreadMethod="pad" x1="198.61" x2="1046.3" y1="412.33" y2="412.33"><stop offset="0.02" stop-color="#f0e4cd"></stop><stop offset="1" stop-color="#ddd0b6"></stop></linearGradient><linearGradient gradientUnits="objectBoundingBox" id="未命名的渐变_5" node-id="31" spreadMethod="pad" x1="198.61" x2="417.23" y1="422.85" y2="422.85"><stop offset="0.02" stop-color="#ddc9a7"></stop><stop offset="1" stop-color="#ccb48d"></stop></linearGradient><linearGradient gradientUnits="objectBoundingBox" id="未命名的渐变_5-2" node-id="34" spreadMethod="pad" x1="832.37" x2="1000.02" y1="408.97" y2="408.97"><stop offset="0.02" stop-color="#ddc9a7"></stop><stop offset="1" stop-color="#ccb48d"></stop></linearGradient><linearGradient gradientUnits="objectBoundingBox" id="未命名的渐变_4-2" node-id="35" spreadMethod="pad" x1="832.37" x2="417.23" y1="313.71" y2="313.71"><stop offset="0.02" stop-color="#f0e4cd"></stop><stop offset="1" stop-color="#ddd0b6"></stop></linearGradient><linearGradient gradientUnits="objectBoundingBox" id="未命名的渐变_27" node-id="36" spreadMethod="pad" x1="298.04" x2="898.43" y1="528.9" y2="528.9"><stop offset="0.25" stop-color="#ffffff"></stop><stop offset="1" stop-color="#f9f1e4"></stop></linearGradient><linearGradient gradientUnits="objectBoundingBox" id="未命名的渐变_4-3" node-id="39" spreadMethod="pad" x1="198.61" x2="417.23" y1="357.8" y2="357.8"><stop offset="0.02" stop-color="#f0e4cd"></stop><stop offset="1" stop-color="#ddd0b6"></stop></linearGradient><linearGradient gradientUnits="objectBoundingBox" id="未命名的渐变_4-4" node-id="40" spreadMethod="pad" x1="832.37" x2="1046.3" y1="357.8" y2="357.8"><stop offset="0.02" stop-color="#f0e4cd"></stop><stop offset="1" stop-color="#ddd0b6"></stop></linearGradient><linearGradient gradientUnits="objectBoundingBox" id="未命名的渐变_10" node-id="41" spreadMethod="pad" x1="198.61" x2="1046.3" y1="541.3" y2="541.3"><stop offset="0.02" stop-color="#f9efe1"></stop><stop offset="1" stop-color="#ede1c9"></stop></linearGradient><linearGradient gradientUnits="objectBoundingBox" id="未命名的渐变_4-5" node-id="44" spreadMethod="pad" x1="397.47" x2="850.34" y1="235.51" y2="235.51"><stop offset="0.02" stop-color="#f0e4cd"></stop><stop offset="1" stop-color="#ddd0b6"></stop></linearGradient><linearGradient gradientUnits="objectBoundingBox" id="未命名的渐变_4-6" node-id="45" spreadMethod="pad" x1="198.61" x2="1046.3" y1="668.98" y2="668.98"><stop offset="0.02" stop-color="#f0e4cd"></stop><stop offset="1" stop-color="#ddd0b6"></stop></linearGradient><linearGradient gradientUnits="objectBoundingBox" id="未命名的渐变_21" node-id="46" spreadMethod="pad" x1="442.57" x2="791.78" y1="720.82" y2="720.82"><stop offset="0.02" stop-color="#f1e1c5"></stop><stop offset="1" stop-color="#ccb48d"></stop></linearGradient><linearGradient gradientUnits="objectBoundingBox" id="未命名的渐变_27-2" node-id="49" spreadMethod="pad" x1="451.48" x2="790.55" y1="724.41" y2="724.41"><stop offset="0.25" stop-color="#ffffff"></stop><stop offset="1" stop-color="#f9f1e4"></stop></linearGradient></defs><path d="M 1102.97 881.00 C 1102.97 931.80 1050.00 980.52 955.70 1016.44 C 861.41 1052.36 733.52 1072.54 600.17 1072.54 C 466.82 1072.54 338.93 1052.36 244.64 1016.44 C 150.34 980.52 97.37 931.80 97.37 881.00 C 97.37 830.20 150.34 781.48 244.64 745.56 C 338.93 709.64 466.82 689.46 600.17 689.46 C 733.52 689.46 861.41 709.64 955.70 745.56 C 1050.00 781.48 1102.97 830.20 1102.97 881.00 Z" fill="url(#未命名的渐变_7)" fill-rule="nonzero" node-id="233" stroke="none" target-height="383.08002" target-width="1005.6" target-x="97.36997" target-y="689.46"></path><path d="M 1093.11 796.88 L 1058.11 703.88 C 1056.55 699.73 1052.58 696.97 1048.14 696.97 C 1043.70 696.97 1039.73 699.73 1038.17 703.88 L 1003.17 796.88 C 1001.93 800.16 1002.39 803.83 1004.38 806.71 C 1006.38 809.59 1009.67 811.30 1013.17 811.29 L 1042.00 811.29 L 1042.00 853.64 C 1042.00 857.02 1054.26 857.02 1054.26 853.64 L 1054.26 811.29 L 1083.15 811.29 C 1086.65 811.29 1089.92 809.57 1091.91 806.70 C 1093.89 803.82 1094.34 800.15 1093.11 796.88 Z" fill="url(#未命名的渐变_57)" fill-rule="nonzero" node-id="235" stroke="none" target-height="160.04547" target-width="92.411255" target-x="1001.9331" target-y="696.97455"></path><path d="M 198.12 807.22 L 173.65 742.22 C 172.56 739.32 169.78 737.40 166.69 737.40 C 163.59 737.40 160.81 739.32 159.72 742.22 L 135.24 807.22 C 134.38 809.51 134.70 812.08 136.10 814.09 C 137.49 816.10 139.79 817.30 142.24 817.29 L 162.40 817.29 L 162.40 846.88 C 162.40 849.25 170.97 849.25 170.97 846.88 L 170.97 817.29 L 191.15 817.29 C 193.59 817.29 195.88 816.09 197.27 814.08 C 198.66 812.07 198.98 809.51 198.12 807.22 Z" fill="url(#未命名的渐变_57-2)" fill-rule="nonzero" node-id="237" stroke="none" target-height="111.85419" target-width="64.60054" target-x="134.37878" target-y="737.3958"></path><g node-id="301"><path d="M 171.71 242.87 L 179.49 278.30 L 210.28 287.24 L 179.49 296.19 L 171.71 331.62 L 163.93 296.19 L 133.13 287.24 L 163.93 278.30 L 171.71 242.87 Z" fill="url(#未命名的渐变_11)" fill-opacity="0.9" fill-rule="nonzero" group-id="1" node-id="241" stroke="none" target-height="88.750015" target-width="77.149994" target-x="133.13" target-y="242.86998"></path></g><path d="M 1065.36 404.21 L 1075.77 451.67 L 1117.03 463.66 L 1075.77 475.64 L 1065.36 523.10 L 1054.94 475.64 L 1013.68 463.66 L 1054.94 451.67 L 1065.36 404.21 Z" fill="url(#未命名的渐变_11-2)" fill-rule="nonzero" node-id="244" stroke="none" target-height="118.889984" target-width="103.35004" target-x="1013.68" target-y="404.21"></path><g node-id="302"><path d="M 1093.81 568.23 L 1100.57 599.04 L 1127.35 606.82 L 1100.57 614.60 L 1093.81 645.41 L 1087.04 614.60 L 1060.26 606.82 L 1087.04 599.04 L 1093.81 568.23 Z" fill="url(#未命名的渐变_11-3)" fill-opacity="0.7" fill-rule="nonzero" group-id="2" node-id="248" stroke="none" target-height="77.17999" target-width="67.089966" target-x="1060.26" target-y="568.23"></path></g><g node-id="303"><path d="M 133.13 616.86 L 139.90 647.68 L 166.68 655.46 L 139.90 663.24 L 133.13 694.05 L 126.37 663.24 L 99.59 655.46 L 126.37 647.68 L 133.13 616.86 Z" fill="url(#未命名的渐变_11-4)" fill-opacity="0.7" fill-rule="nonzero" group-id="3" node-id="253" stroke="none" target-height="77.19" target-width="67.08999" target-x="99.590004" target-y="616.86"></path></g><g node-id="304"><path d="M 676.34 145.81 L 680.50 164.76 L 696.98 169.55 L 680.50 174.33 L 676.34 193.29 L 672.18 174.33 L 655.70 169.55 L 672.18 164.76 L 676.34 145.81 Z" fill="url(#未命名的渐变_11-5)" fill-opacity="0.6" fill-rule="nonzero" group-id="4" node-id="258" stroke="none" target-height="47.479996" target-width="41.279907" target-x="655.7" target-y="145.81"></path></g><path d="M 376.04 196.28 C 376.04 212.52 362.87 225.69 346.63 225.69 C 330.39 225.69 317.22 212.52 317.22 196.28 C 317.22 180.04 330.39 166.87 346.63 166.87 C 362.87 166.87 376.04 180.04 376.04 196.28 Z" fill="url(#未命名的渐变_7-2)" fill-rule="nonzero" node-id="261" stroke="none" target-height="58.820007" target-width="58.820007" target-x="317.22" target-y="166.87"></path><path d="M 880.50 222.70 C 880.50 238.94 867.33 252.11 851.09 252.11 C 834.85 252.11 821.68 238.94 821.68 222.70 C 821.68 206.46 834.85 193.29 851.09 193.29 C 867.33 193.29 880.50 206.46 880.50 222.70 Z" fill="url(#未命名的渐变_7-3)" fill-rule="nonzero" node-id="263" stroke="none" target-height="58.820023" target-width="58.819946" target-x="821.68005" target-y="193.29"></path><g node-id="305"><path d="M 994.37 946.43 C 994.37 964.45 962.66 979.06 923.55 979.06 C 884.44 979.06 852.73 964.45 852.73 946.43 C 852.73 928.41 884.44 913.80 923.55 913.80 C 962.66 913.80 994.37 928.41 994.37 946.43 Z" fill="url(#未命名的渐变_58)" fill-opacity="0.5" fill-rule="nonzero" group-id="5" node-id="267" stroke="none" target-height="65.26001" target-width="141.64001" target-x="852.73004" target-y="913.8"></path></g><g node-id="306"><path d="M 237.50 932.46 C 237.50 950.48 205.79 965.09 166.68 965.09 C 127.57 965.09 95.86 950.48 95.86 932.46 C 95.86 914.44 127.57 899.83 166.68 899.83 C 205.79 899.83 237.50 914.44 237.50 932.46 Z" fill="url(#未命名的渐变_58-2)" fill-opacity="0.5" fill-rule="nonzero" group-id="6" node-id="272" stroke="none" target-height="65.26001" target-width="141.64001" target-x="95.859985" target-y="899.83"></path></g><path d="M 231.77 785.04 L 137.31 1018.84 L 1117.03 1030.90 L 1032.17 785.73 L 231.77 785.04 Z" fill="url(#未命名的渐变_53)" fill-rule="nonzero" node-id="275" stroke="none" target-height="245.85999" target-width="979.72003" target-x="137.31" target-y="785.04004"></path><path d="M 391.66 490.62 L 198.60 490.62 L 397.46 224.99 L 850.34 224.99 L 1046.30 490.62 L 848.89 490.62 L 848.89 599.67 L 391.66 599.67 L 391.66 490.62 Z" fill="url(#未命名的渐变_4)" fill-rule="nonzero" node-id="277" stroke="none" target-height="374.68" target-width="847.7001" target-x="198.6" target-y="224.99"></path><path d="M 417.23 246.04 L 417.23 381.39 L 325.06 599.67 L 198.60 557.68 L 243.77 490.62 L 417.23 246.04 Z" fill="url(#未命名的渐变_5)" fill-rule="nonzero" node-id="279" stroke="none" target-height="353.62997" target-width="218.63004" target-x="198.6" target-y="246.04001"></path><path d="M 832.37 246.04 L 832.37 381.39 L 898.43 571.91 L 992.40 544.69 L 1000.02 490.62 L 832.37 246.04 Z" fill="url(#未命名的渐变_5-2)" fill-rule="nonzero" node-id="281" stroke="none" target-height="325.86996" target-width="167.64996" target-x="832.37006" target-y="246.04001"></path><path d="M 417.23 246.04 L 832.37 246.04 L 832.37 381.40 L 417.23 381.40 Z" fill="url(#未命名的渐变_4-2)" fill-rule="nonzero" node-id="283" stroke="none" target-height="135.35999" target-width="415.14" target-x="417.23004" target-y="246.04001"></path><path d="M 298.04 676.42 L 325.06 599.67 L 417.23 381.39 L 832.37 381.39 L 898.43 571.91 L 898.43 668.98 L 298.04 676.42 Z" fill="url(#未命名的渐变_27)" fill-rule="nonzero" node-id="285" stroke="none" target-height="295.02997" target-width="600.39" target-x="298.04" target-y="381.39"></path><path d="M 397.46 224.99 L 417.23 246.04 L 243.77 490.62 L 198.60 490.62 L 397.46 224.99 Z" fill="url(#未命名的渐变_4-3)" fill-rule="nonzero" node-id="287" stroke="none" target-height="265.63" target-width="218.63004" target-x="198.6" target-y="224.99"></path><path d="M 850.34 224.99 L 832.37 246.04 L 1000.02 490.62 L 1046.30 490.62 L 850.34 224.99 Z" fill="url(#未命名的渐变_4-4)" fill-rule="nonzero" node-id="289" stroke="none" target-height="265.63" target-width="213.93" target-x="832.37006" target-y="224.99"></path><path d="M 261.48 465.64 L 372.00 465.64 C 402.22 465.64 426.71 490.13 426.72 520.35 L 426.72 571.91 L 820.00 571.91 L 820.00 520.35 C 820.00 490.13 844.49 465.64 874.71 465.64 L 1027.35 464.98 L 1046.27 490.62 L 838.14 617.62 L 380.94 617.62 L 198.61 490.62 L 217.80 465.00 Z" fill="url(#未命名的渐变_10)" fill-rule="nonzero" node-id="291" stroke="none" target-height="152.63998" target-width="847.66003" target-x="198.61" target-y="464.98"></path><path d="M 417.23 246.04 L 832.37 246.04 L 850.34 224.99 L 397.46 224.99 L 417.23 246.04 Z" fill="url(#未命名的渐变_4-5)" fill-rule="nonzero" node-id="293" stroke="none" target-height="21.050003" target-width="452.88004" target-x="397.46" target-y="224.99"></path><path d="M 250.56 847.33 L 994.34 847.33 C 1023.06 847.33 1046.34 824.05 1046.34 795.33 L 1046.34 490.62 L 882.78 490.62 C 873.79 490.62 865.17 494.19 858.82 500.54 C 852.46 506.89 848.89 515.51 848.89 524.50 L 848.89 569.85 C 848.89 586.32 835.55 599.66 819.08 599.67 L 421.48 599.67 C 405.01 599.67 391.66 586.32 391.66 569.85 L 391.66 524.50 C 391.66 505.79 376.49 490.62 357.78 490.62 L 198.61 490.62 L 198.61 795.38 C 198.64 824.06 221.88 847.30 250.56 847.33 Z" fill="url(#未命名的渐变_4-6)" fill-rule="nonzero" node-id="295" stroke="none" target-height="356.7127" target-width="847.73" target-x="198.61" target-y="490.6173"></path><path d="M 763.68 751.69 L 470.68 751.69 C 455.16 751.69 442.58 737.87 442.58 720.82 C 442.58 703.77 455.16 689.94 470.68 689.94 L 763.68 689.94 C 779.20 689.94 791.78 703.77 791.78 720.82 C 791.78 737.87 779.20 751.69 763.68 751.69 Z" fill="url(#未命名的渐变_21)" fill-rule="nonzero" node-id="297" stroke="none" target-height="61.75" target-width="349.20013" target-x="442.57996" target-y="689.94"></path><path d="M 763.26 751.69 L 478.76 751.69 C 463.69 751.69 451.48 739.48 451.48 724.41 C 451.48 709.34 463.69 697.13 478.76 697.13 L 763.26 697.13 C 778.33 697.13 790.54 709.34 790.54 724.41 C 790.54 739.48 778.33 751.69 763.26 751.69 Z" fill="url(#未命名的渐变_27-2)" fill-rule="nonzero" node-id="299" stroke="none" target-height="54.559998" target-width="339.05997" target-x="451.48" target-y="697.13"></path></svg>