<?xml version="1.0" standalone="no"?><!DOCTYPE svg PUBLIC "-//W3C//DTD SVG 1.1//EN" "http://www.w3.org/Graphics/SVG/1.1/DTD/svg11.dtd"><svg height="1200" node-id="1" sillyvg="true" template-height="1200" template-width="1200" version="1.1" viewBox="0 0 1200 1200" width="1200" xmlns="http://www.w3.org/2000/svg" xmlns:xlink="http://www.w3.org/1999/xlink"><defs node-id="61"><linearGradient gradientUnits="objectBoundingBox" id="未命名的渐变_7" node-id="5" spreadMethod="pad" x1="603.31" x2="603.31" y1="1072.54" y2="689.46"><stop offset="0.25" stop-color="#ffffff"></stop><stop offset="1" stop-color="#fcf2de"></stop></linearGradient><linearGradient gradientUnits="objectBoundingBox" id="未命名的渐变_57" node-id="8" spreadMethod="pad" x1="1051.27" x2="1051.27" y1="697.03" y2="856.18"><stop offset="0" stop-color="#ffffff"></stop><stop offset="0.83" stop-color="#e8d3af"></stop></linearGradient><linearGradient gradientUnits="objectBoundingBox" id="未命名的渐变_57-2" node-id="11" spreadMethod="pad" x1="169.83" x2="169.83" y1="737.45" y2="848.66"><stop offset="0" stop-color="#ffffff"></stop><stop offset="0.83" stop-color="#e8d3af"></stop></linearGradient><linearGradient gradientUnits="objectBoundingBox" id="未命名的渐变_11" node-id="12" spreadMethod="pad" x1="155.64" x2="194.07" y1="253.96" y2="320.52"><stop offset="0.02" stop-color="#fdf2dd"></stop><stop offset="1" stop-color="#ddd0b6"></stop></linearGradient><linearGradient gradientUnits="objectBoundingBox" id="未命名的渐变_11-2" node-id="15" spreadMethod="pad" x1="1042.76" x2="1094.24" y1="419.07" y2="508.24"><stop offset="0.02" stop-color="#fdf2dd"></stop><stop offset="1" stop-color="#ddd0b6"></stop></linearGradient><linearGradient gradientUnits="objectBoundingBox" id="未命名的渐变_11-3" node-id="16" spreadMethod="pad" x1="1080.24" x2="1113.66" y1="577.88" y2="635.76"><stop offset="0.02" stop-color="#fdf2dd"></stop><stop offset="1" stop-color="#ddd0b6"></stop></linearGradient><linearGradient gradientUnits="objectBoundingBox" id="未命名的渐变_11-4" node-id="17" spreadMethod="pad" x1="119.57" x2="152.99" y1="626.51" y2="684.4"><stop offset="0.02" stop-color="#fdf2dd"></stop><stop offset="1" stop-color="#ddd0b6"></stop></linearGradient><linearGradient gradientUnits="objectBoundingBox" id="未命名的渐变_11-5" node-id="18" spreadMethod="pad" x1="669.2" x2="689.77" y1="151.74" y2="187.35"><stop offset="0.02" stop-color="#fdf2dd"></stop><stop offset="1" stop-color="#ddd0b6"></stop></linearGradient><linearGradient gradientUnits="objectBoundingBox" id="未命名的渐变_7-2" node-id="19" spreadMethod="pad" x1="335.07" x2="364.48" y1="170.81" y2="221.76"><stop offset="0.25" stop-color="#ffffff"></stop><stop offset="1" stop-color="#fcf2de"></stop></linearGradient><linearGradient gradientUnits="objectBoundingBox" id="未命名的渐变_7-3" node-id="20" spreadMethod="pad" x1="839.53" x2="868.95" y1="197.23" y2="248.17"><stop offset="0.25" stop-color="#ffffff"></stop><stop offset="1" stop-color="#fcf2de"></stop></linearGradient><linearGradient gradientUnits="objectBoundingBox" id="未命名的渐变_58" node-id="21" spreadMethod="pad" x1="926.7" x2="926.7" y1="979.06" y2="913.8"><stop offset="0.24" stop-color="#ffffff"></stop><stop offset="0.98" stop-color="#e5c798"></stop></linearGradient><linearGradient gradientUnits="objectBoundingBox" id="未命名的渐变_58-2" node-id="24" spreadMethod="pad" x1="169.83" x2="169.83" y1="965.09" y2="899.83"><stop offset="0.24" stop-color="#ffffff"></stop><stop offset="0.98" stop-color="#e5c798"></stop></linearGradient><linearGradient gradientUnits="objectBoundingBox" id="未命名的渐变_53" node-id="25" spreadMethod="pad" x1="510.89" x2="510.89" y1="1086.87" y2="805.99"><stop offset="0.24" stop-color="#ffffff"></stop><stop offset="0.98" stop-color="#dac49b"></stop></linearGradient><linearGradient gradientUnits="objectBoundingBox" id="未命名的渐变_21" node-id="28" spreadMethod="pad" x1="395.65" x2="816.67" y1="320.55" y2="320.55"><stop offset="0.02" stop-color="#f1e1c5"></stop><stop offset="1" stop-color="#ccb48d"></stop></linearGradient><linearGradient gradientUnits="objectBoundingBox" id="未命名的渐变_11-6" node-id="31" spreadMethod="pad" x1="392.22" x2="797.85" y1="328.27" y2="328.27"><stop offset="0.02" stop-color="#fdf2dd"></stop><stop offset="1" stop-color="#ddd0b6"></stop></linearGradient><linearGradient gradientUnits="objectBoundingBox" id="未命名的渐变_21-2" node-id="32" spreadMethod="pad" x1="262.29" x2="952.24" y1="651.2" y2="651.2"><stop offset="0.02" stop-color="#f1e1c5"></stop><stop offset="1" stop-color="#ccb48d"></stop></linearGradient><linearGradient gradientUnits="objectBoundingBox" id="未命名的渐变_11-7" node-id="33" spreadMethod="pad" x1="262.29" x2="919.76" y1="666.23" y2="666.23"><stop offset="0.02" stop-color="#fdf2dd"></stop><stop offset="1" stop-color="#ddd0b6"></stop></linearGradient><linearGradient gradientUnits="objectBoundingBox" id="未命名的渐变_21-3" node-id="34" spreadMethod="pad" x1="512" x2="689.86" y1="658.96" y2="658.96"><stop offset="0.02" stop-color="#f1e1c5"></stop><stop offset="1" stop-color="#ccb48d"></stop></linearGradient><linearGradient gradientUnits="objectBoundingBox" id="未命名的渐变_27" node-id="35" spreadMethod="pad" x1="512" x2="678.06" y1="663" y2="663"><stop offset="0.25" stop-color="#ffffff"></stop><stop offset="1" stop-color="#f9f1e4"></stop></linearGradient></defs><path d="M 1106.11 881.00 C 1106.11 931.80 1053.14 980.52 958.84 1016.44 C 864.55 1052.36 736.66 1072.54 603.31 1072.54 C 469.96 1072.54 342.07 1052.36 247.78 1016.44 C 153.48 980.52 100.51 931.80 100.51 881.00 C 100.51 830.20 153.48 781.48 247.78 745.56 C 342.07 709.64 469.96 689.46 603.31 689.46 C 736.66 689.46 864.55 709.64 958.84 745.56 C 1053.14 781.48 1106.11 830.20 1106.11 881.00 Z" fill="url(#未命名的渐变_7)" fill-rule="nonzero" node-id="179" stroke="none" target-height="383.08002" target-width="1005.6" target-x="100.50998" target-y="689.46"></path><path d="M 1096.26 796.88 L 1061.26 703.88 C 1059.70 699.73 1055.73 696.97 1051.29 696.97 C 1046.85 696.97 1042.88 699.73 1041.32 703.88 L 1006.32 796.88 C 1005.08 800.16 1005.54 803.83 1007.53 806.71 C 1009.53 809.59 1012.82 811.30 1016.32 811.29 L 1045.22 811.29 L 1045.22 853.64 C 1045.22 857.02 1057.48 857.02 1057.48 853.64 L 1057.48 811.29 L 1086.37 811.29 C 1089.85 811.26 1093.10 809.53 1095.07 806.66 C 1097.04 803.79 1097.48 800.14 1096.26 796.88 Z" fill="url(#未命名的渐变_57)" fill-rule="nonzero" node-id="181" stroke="none" target-height="160.04547" target-width="92.401794" target-x="1005.0832" target-y="696.97455"></path><path d="M 201.27 807.22 L 176.79 742.22 C 175.70 739.32 172.92 737.40 169.82 737.40 C 166.73 737.40 163.95 739.32 162.86 742.22 L 138.39 807.22 C 137.52 809.51 137.84 812.08 139.24 814.10 C 140.64 816.11 142.94 817.30 145.39 817.29 L 165.57 817.29 L 165.57 846.88 C 165.57 849.25 174.14 849.25 174.14 846.88 L 174.14 817.29 L 194.30 817.29 C 196.74 817.29 199.03 816.09 200.42 814.08 C 201.81 812.07 202.13 809.51 201.27 807.22 Z" fill="url(#未命名的渐变_57-2)" fill-rule="nonzero" node-id="183" stroke="none" target-height="111.85419" target-width="64.60567" target-x="137.52367" target-y="737.3958"></path><g node-id="235"><path d="M 174.86 242.87 L 182.63 278.30 L 213.43 287.24 L 182.63 296.19 L 174.86 331.62 L 167.08 296.19 L 136.28 287.24 L 167.08 278.30 L 174.86 242.87 Z" fill="url(#未命名的渐变_11)" fill-opacity="0.9" fill-rule="nonzero" group-id="1" node-id="187" stroke="none" target-height="88.750015" target-width="77.149994" target-x="136.28" target-y="242.86998"></path></g><path d="M 1068.50 404.21 L 1078.92 451.67 L 1120.17 463.66 L 1078.92 475.64 L 1068.50 523.10 L 1058.09 475.64 L 1016.83 463.66 L 1058.09 451.67 L 1068.50 404.21 Z" fill="url(#未命名的渐变_11-2)" fill-rule="nonzero" node-id="190" stroke="none" target-height="118.889984" target-width="103.34003" target-x="1016.83" target-y="404.21"></path><g node-id="236"><path d="M 1096.95 568.23 L 1103.71 599.04 L 1130.50 606.82 L 1103.71 614.60 L 1096.95 645.41 L 1090.19 614.60 L 1063.41 606.82 L 1090.19 599.04 L 1096.95 568.23 Z" fill="url(#未命名的渐变_11-3)" fill-opacity="0.7" fill-rule="nonzero" group-id="2" node-id="194" stroke="none" target-height="77.17999" target-width="67.089966" target-x="1063.41" target-y="568.23"></path></g><g node-id="237"><path d="M 136.28 616.86 L 143.04 647.68 L 169.83 655.46 L 143.04 663.24 L 136.28 694.05 L 129.52 663.24 L 102.74 655.46 L 129.52 647.68 L 136.28 616.86 Z" fill="url(#未命名的渐变_11-4)" fill-opacity="0.7" fill-rule="nonzero" group-id="3" node-id="199" stroke="none" target-height="77.19" target-width="67.090004" target-x="102.74" target-y="616.86"></path></g><g node-id="238"><path d="M 679.49 145.81 L 683.64 164.76 L 700.12 169.55 L 683.64 174.33 L 679.49 193.29 L 675.33 174.33 L 658.85 169.55 L 675.33 164.76 L 679.49 145.81 Z" fill="url(#未命名的渐变_11-5)" fill-opacity="0.6" fill-rule="nonzero" group-id="4" node-id="204" stroke="none" target-height="47.479996" target-width="41.27002" target-x="658.85" target-y="145.81"></path></g><path d="M 379.18 196.28 C 379.18 212.52 366.01 225.69 349.77 225.69 C 333.53 225.69 320.36 212.52 320.36 196.28 C 320.36 180.04 333.53 166.87 349.77 166.87 C 366.01 166.87 379.18 180.04 379.18 196.28 Z" fill="url(#未命名的渐变_7-2)" fill-rule="nonzero" node-id="207" stroke="none" target-height="58.820007" target-width="58.820007" target-x="320.36" target-y="166.87"></path><path d="M 883.65 222.70 C 883.65 238.94 870.48 252.11 854.24 252.11 C 838.00 252.11 824.83 238.94 824.83 222.70 C 824.83 206.46 838.00 193.29 854.24 193.29 C 870.48 193.29 883.65 206.46 883.65 222.70 Z" fill="url(#未命名的渐变_7-3)" fill-rule="nonzero" node-id="209" stroke="none" target-height="58.820023" target-width="58.819946" target-x="824.83" target-y="193.29"></path><g node-id="239"><path d="M 997.52 946.43 C 997.52 964.45 965.81 979.06 926.70 979.06 C 887.59 979.06 855.88 964.45 855.88 946.43 C 855.88 928.41 887.59 913.80 926.70 913.80 C 965.81 913.80 997.52 928.41 997.52 946.43 Z" fill="url(#未命名的渐变_58)" fill-opacity="0.5" fill-rule="nonzero" group-id="5" node-id="213" stroke="none" target-height="65.26001" target-width="141.64001" target-x="855.88" target-y="913.8"></path></g><g node-id="240"><path d="M 240.65 932.46 C 240.65 950.48 208.94 965.09 169.83 965.09 C 130.72 965.09 99.01 950.48 99.01 932.46 C 99.01 914.44 130.72 899.83 169.83 899.83 C 208.94 899.83 240.65 914.44 240.65 932.46 Z" fill="url(#未命名的渐变_58-2)" fill-opacity="0.5" fill-rule="nonzero" group-id="6" node-id="218" stroke="none" target-height="65.26001" target-width="141.64" target-x="99.009995" target-y="899.83"></path></g><path d="M 392.74 805.99 L 78.73 1036.32 L 767.49 1086.87 L 943.04 855.93 L 392.74 805.99 Z" fill="url(#未命名的渐变_53)" fill-rule="nonzero" node-id="221" stroke="none" target-height="280.88" target-width="864.30994" target-x="78.73" target-y="805.99"></path><path d="M 816.67 494.64 L 723.26 494.64 L 723.26 358.64 C 723.26 293.55 670.73 240.64 606.16 240.64 C 541.59 240.64 489.07 293.64 489.07 358.69 L 489.07 494.69 L 395.65 494.69 L 395.65 358.69 C 395.65 241.69 490.09 146.46 606.16 146.46 C 722.23 146.46 816.67 241.67 816.67 358.69 Z" fill="url(#未命名的渐变_21)" fill-rule="nonzero" node-id="223" stroke="none" target-height="348.22998" target-width="421.02" target-x="395.65" target-y="146.46"></path><path d="M 797.85 494.64 L 707.85 494.64 L 707.85 364.71 C 707.27 302.82 656.93 252.95 595.03 252.95 C 533.14 252.95 482.80 302.82 482.22 364.71 L 482.22 494.64 L 392.22 494.64 L 392.22 364.71 C 392.22 252.88 483.22 161.90 595.03 161.90 C 706.84 161.90 797.85 252.90 797.85 364.71 Z" fill="url(#未命名的渐变_11-6)" fill-rule="nonzero" node-id="225" stroke="none" target-height="332.74002" target-width="405.63" target-x="392.22003" target-y="161.9"></path><path d="M 342.20 394.42 L 872.34 394.42 C 916.47 394.42 952.25 430.20 952.25 474.33 L 952.25 828.05 C 952.25 849.24 943.83 869.57 928.84 884.55 C 913.86 899.54 893.53 907.96 872.34 907.96 L 342.20 907.96 C 298.07 907.96 262.29 872.18 262.29 828.05 L 262.29 474.33 C 262.29 430.20 298.07 394.42 342.20 394.42 Z" fill="url(#未命名的渐变_21-2)" fill-rule="nonzero" node-id="227" stroke="none" target-height="513.54004" target-width="689.9601" target-x="262.28998" target-y="394.41998"></path><path d="M 325.27 424.48 L 856.78 424.48 C 891.56 424.48 919.76 452.68 919.76 487.46 L 919.76 844.98 C 919.76 879.76 891.56 907.96 856.78 907.96 L 325.27 907.96 C 290.49 907.96 262.29 879.76 262.29 844.98 L 262.29 487.46 C 262.29 452.68 290.49 424.48 325.27 424.48 Z" fill="url(#未命名的渐变_11-7)" fill-rule="nonzero" node-id="229" stroke="none" target-height="483.47998" target-width="657.47" target-x="262.29" target-y="424.48004"></path><path d="M 689.86 612.22 C 689.86 564.92 650.05 526.57 600.93 526.57 C 551.81 526.57 512.00 564.92 512.00 612.22 C 512.00 649.22 536.32 680.67 570.39 692.67 L 570.39 761.93 C 570.39 778.18 584.06 791.35 600.93 791.35 C 617.80 791.35 631.48 778.18 631.48 761.93 L 631.48 692.67 C 665.55 680.67 689.86 649.18 689.86 612.22 Z" fill="url(#未命名的渐变_21-3)" fill-rule="nonzero" node-id="231" stroke="none" target-height="264.77997" target-width="177.85992" target-x="512" target-y="526.57"></path><path d="M 678.06 617.68 C 678.03 575.60 646.51 540.20 604.71 535.31 C 562.91 530.42 524.07 557.58 514.32 598.51 C 504.57 639.45 527.00 681.20 566.51 695.68 L 566.51 762.83 C 566.12 773.27 571.46 783.08 580.44 788.42 C 589.42 793.75 600.60 793.75 609.58 788.42 C 618.56 783.08 623.90 773.27 623.51 762.83 L 623.51 695.68 C 656.28 683.72 678.07 652.56 678.06 617.68 Z" fill="url(#未命名的渐变_27)" fill-rule="nonzero" node-id="233" stroke="none" target-height="263.3365" target-width="173.50381" target-x="504.56802" target-y="530.41504"></path></svg>