<?xml version="1.0" standalone="no"?><!DOCTYPE svg PUBLIC "-//W3C//DTD SVG 1.1//EN" "http://www.w3.org/Graphics/SVG/1.1/DTD/svg11.dtd"><svg height="1200" node-id="1" sillyvg="true" template-height="1200" template-width="1200" version="1.1" viewBox="0 0 1200 1200" width="1200" xmlns="http://www.w3.org/2000/svg" xmlns:xlink="http://www.w3.org/1999/xlink"><defs node-id="85"><linearGradient gradientUnits="objectBoundingBox" id="未命名的渐变_7" node-id="5" spreadMethod="pad" x1="602.72" x2="602.72" y1="1061.71" y2="678.62"><stop offset="0.25" stop-color="#ffffff"></stop><stop offset="1" stop-color="#fcf2de"></stop></linearGradient><linearGradient gradientUnits="objectBoundingBox" id="未命名的渐变_57" node-id="8" spreadMethod="pad" x1="1050.67" x2="1050.67" y1="686.2" y2="845.34"><stop offset="0" stop-color="#ffffff"></stop><stop offset="0.83" stop-color="#e8d3af"></stop></linearGradient><linearGradient gradientUnits="objectBoundingBox" id="未命名的渐变_57-2" node-id="11" spreadMethod="pad" x1="169.23" x2="169.23" y1="726.62" y2="837.82"><stop offset="0" stop-color="#ffffff"></stop><stop offset="0.83" stop-color="#e8d3af"></stop></linearGradient><linearGradient gradientUnits="objectBoundingBox" id="未命名的渐变_11" node-id="12" spreadMethod="pad" x1="155.04" x2="193.48" y1="243.13" y2="309.69"><stop offset="0.02" stop-color="#fdf2dd"></stop><stop offset="1" stop-color="#ddd0b6"></stop></linearGradient><linearGradient gradientUnits="objectBoundingBox" id="未命名的渐变_11-2" node-id="15" spreadMethod="pad" x1="1042.17" x2="1093.64" y1="408.24" y2="497.4"><stop offset="0.02" stop-color="#fdf2dd"></stop><stop offset="1" stop-color="#ddd0b6"></stop></linearGradient><linearGradient gradientUnits="objectBoundingBox" id="未命名的渐变_11-3" node-id="16" spreadMethod="pad" x1="1079.65" x2="1113.07" y1="567.04" y2="624.93"><stop offset="0.02" stop-color="#fdf2dd"></stop><stop offset="1" stop-color="#ddd0b6"></stop></linearGradient><linearGradient gradientUnits="objectBoundingBox" id="未命名的渐变_11-4" node-id="17" spreadMethod="pad" x1="118.98" x2="152.4" y1="615.68" y2="673.57"><stop offset="0.02" stop-color="#fdf2dd"></stop><stop offset="1" stop-color="#ddd0b6"></stop></linearGradient><linearGradient gradientUnits="objectBoundingBox" id="未命名的渐变_11-5" node-id="18" spreadMethod="pad" x1="668.61" x2="689.17" y1="140.91" y2="176.52"><stop offset="0.02" stop-color="#fdf2dd"></stop><stop offset="1" stop-color="#ddd0b6"></stop></linearGradient><linearGradient gradientUnits="objectBoundingBox" id="未命名的渐变_7-2" node-id="19" spreadMethod="pad" x1="334.47" x2="363.88" y1="159.97" y2="210.92"><stop offset="0.25" stop-color="#ffffff"></stop><stop offset="1" stop-color="#fcf2de"></stop></linearGradient><linearGradient gradientUnits="objectBoundingBox" id="未命名的渐变_7-3" node-id="20" spreadMethod="pad" x1="838.93" x2="868.35" y1="186.39" y2="237.34"><stop offset="0.25" stop-color="#ffffff"></stop><stop offset="1" stop-color="#fcf2de"></stop></linearGradient><linearGradient gradientUnits="objectBoundingBox" id="未命名的渐变_58" node-id="21" spreadMethod="pad" x1="926.1" x2="926.1" y1="968.23" y2="902.97"><stop offset="0.24" stop-color="#ffffff"></stop><stop offset="0.98" stop-color="#e5c798"></stop></linearGradient><linearGradient gradientUnits="objectBoundingBox" id="未命名的渐变_58-2" node-id="24" spreadMethod="pad" x1="169.23" x2="169.23" y1="954.26" y2="889"><stop offset="0.24" stop-color="#ffffff"></stop><stop offset="0.98" stop-color="#e5c798"></stop></linearGradient><linearGradient gradientUnits="objectBoundingBox" id="未命名的渐变_53" node-id="25" spreadMethod="pad" x1="581.98" x2="581.98" y1="1077.93" y2="832.07"><stop offset="0.24" stop-color="#ffffff"></stop><stop offset="0.98" stop-color="#dac49b"></stop></linearGradient><linearGradient gradientUnits="objectBoundingBox" id="未命名的渐变_21" node-id="28" spreadMethod="pad" x1="547.26" x2="270.01" y1="599.16" y2="599.16"><stop offset="0.02" stop-color="#f1e1c5"></stop><stop offset="1" stop-color="#ccb48d"></stop></linearGradient><linearGradient gradientUnits="objectBoundingBox" id="未命名的渐变_21-2" node-id="31" spreadMethod="pad" x1="901.14" x2="547.26" y1="599.16" y2="599.16"><stop offset="0.02" stop-color="#f1e1c5"></stop><stop offset="1" stop-color="#ccb48d"></stop></linearGradient><linearGradient gradientUnits="objectBoundingBox" id="未命名的渐变_21-3" node-id="32" spreadMethod="pad" x1="682.88" x2="698.63" y1="237.34" y2="237.34"><stop offset="0.02" stop-color="#f1e1c5"></stop><stop offset="1" stop-color="#ccb48d"></stop></linearGradient><linearGradient gradientUnits="objectBoundingBox" id="未命名的渐变_21-4" node-id="33" spreadMethod="pad" x1="515.21" x2="675.84" y1="409.59" y2="409.59"><stop offset="0.02" stop-color="#f1e1c5"></stop><stop offset="1" stop-color="#ccb48d"></stop></linearGradient><linearGradient gradientUnits="objectBoundingBox" id="未命名的渐变_21-5" node-id="34" spreadMethod="pad" x1="563.45" x2="578.62" y1="587.58" y2="587.58"><stop offset="0.02" stop-color="#f1e1c5"></stop><stop offset="1" stop-color="#ccb48d"></stop></linearGradient><linearGradient gradientUnits="objectBoundingBox" id="未命名的渐变_53-2" node-id="35" spreadMethod="pad" x1="241.79" x2="644.44" y1="504.3" y2="906.94"><stop offset="0.24" stop-color="#ffffff"></stop><stop offset="0.98" stop-color="#dac49b"></stop></linearGradient><linearGradient gradientUnits="objectBoundingBox" id="未命名的渐变_62" node-id="36" spreadMethod="pad" x1="611.35" x2="901.14" y1="707.36" y2="707.36"><stop offset="0" stop-color="#ffffff"></stop><stop offset="0.98" stop-color="#dac49b"></stop></linearGradient><linearGradient gradientUnits="objectBoundingBox" id="未命名的渐变_53-3" node-id="39" spreadMethod="pad" x1="394" x2="394" y1="738.01" y2="476.09"><stop offset="0.24" stop-color="#ffffff"></stop><stop offset="0.98" stop-color="#dac49b"></stop></linearGradient><linearGradient gradientUnits="objectBoundingBox" id="未命名的渐变_53-4" node-id="40" spreadMethod="pad" x1="802.92" x2="802.92" y1="738.01" y2="474.69"><stop offset="0.24" stop-color="#ffffff"></stop><stop offset="0.98" stop-color="#dac49b"></stop></linearGradient><linearGradient gradientUnits="objectBoundingBox" id="未命名的渐变_63" node-id="41" spreadMethod="pad" x1="711.17" x2="711.17" y1="301.64" y2="92.96"><stop offset="0" stop-color="#ffffff"></stop><stop offset="0.98" stop-color="#dac49b"></stop></linearGradient><linearGradient gradientUnits="objectBoundingBox" id="未命名的渐变_53-5" node-id="42" spreadMethod="pad" x1="674.5" x2="674.5" y1="232.08" y2="92.96"><stop offset="0.24" stop-color="#ffffff"></stop><stop offset="0.98" stop-color="#dac49b"></stop></linearGradient><linearGradient gradientUnits="objectBoundingBox" id="未命名的渐变_53-6" node-id="43" spreadMethod="pad" x1="817.41" x2="656.79" y1="197.3" y2="197.3"><stop offset="0.24" stop-color="#ffffff"></stop><stop offset="0.98" stop-color="#dac49b"></stop></linearGradient><linearGradient gradientUnits="objectBoundingBox" id="未命名的渐变_53-7" node-id="44" spreadMethod="pad" x1="745.95" x2="745.95" y1="238.4" y2="92.96"><stop offset="0.24" stop-color="#ffffff"></stop><stop offset="0.98" stop-color="#dac49b"></stop></linearGradient><linearGradient gradientUnits="objectBoundingBox" id="未命名的渐变_53-8" node-id="45" spreadMethod="pad" x1="518" x2="614.14" y1="667.97" y2="667.97"><stop offset="0.24" stop-color="#ffffff"></stop><stop offset="0.98" stop-color="#dac49b"></stop></linearGradient><linearGradient gradientUnits="objectBoundingBox" id="未命名的渐变_62-2" node-id="46" spreadMethod="pad" x1="173.87" x2="521.32" y1="691.66" y2="691.66"><stop offset="0" stop-color="#ffffff"></stop><stop offset="0.98" stop-color="#dac49b"></stop></linearGradient><linearGradient gradientUnits="objectBoundingBox" id="未命名的渐变_53-9" node-id="47" spreadMethod="pad" x1="614.14" x2="713.9" y1="666.71" y2="666.71"><stop offset="0.24" stop-color="#ffffff"></stop><stop offset="0.98" stop-color="#dac49b"></stop></linearGradient><linearGradient gradientUnits="objectBoundingBox" id="未命名的渐变_2" node-id="48" spreadMethod="pad" x1="991.7" x2="709.96" y1="691.09" y2="691.09"><stop offset="0.24" stop-color="#ecdfca"></stop><stop offset="0.98" stop-color="#dac49b"></stop></linearGradient></defs><path d="M 1105.52 870.17 C 1105.52 920.97 1052.55 969.69 958.25 1005.61 C 863.96 1041.53 736.07 1061.71 602.72 1061.71 C 469.37 1061.71 341.48 1041.53 247.19 1005.61 C 152.89 969.69 99.92 920.97 99.92 870.17 C 99.92 819.37 152.89 770.65 247.19 734.73 C 341.48 698.81 469.37 678.63 602.72 678.63 C 736.07 678.63 863.96 698.81 958.25 734.73 C 1052.55 770.65 1105.52 819.37 1105.52 870.17 Z" fill="url(#未命名的渐变_7)" fill-rule="nonzero" node-id="269" stroke="none" target-height="383.07996" target-width="1005.60004" target-x="99.91998" target-y="678.63"></path><path d="M 1095.66 786.00 L 1060.66 693.06 C 1059.10 688.91 1055.13 686.15 1050.69 686.15 C 1046.25 686.15 1042.28 688.91 1040.72 693.06 L 1005.72 786.00 C 1004.48 789.28 1004.94 792.95 1006.93 795.83 C 1008.93 798.71 1012.22 800.42 1015.72 800.41 L 1044.61 800.41 L 1044.61 842.80 C 1044.61 846.19 1056.87 846.19 1056.87 842.80 L 1056.87 800.45 L 1085.76 800.45 C 1089.26 800.43 1092.52 798.70 1094.50 795.82 C 1096.47 792.94 1096.91 789.27 1095.66 786.00 Z" fill="url(#未命名的渐变_57)" fill-rule="nonzero" node-id="271" stroke="none" target-height="160.03546" target-width="92.424194" target-x="1004.48315" target-y="686.15454"></path><path d="M 200.67 796.38 L 176.20 731.44 C 175.11 728.54 172.33 726.62 169.24 726.62 C 166.14 726.62 163.36 728.54 162.27 731.44 L 137.79 796.38 C 136.93 798.67 137.25 801.24 138.65 803.25 C 140.04 805.26 142.34 806.46 144.79 806.45 L 165.00 806.45 L 165.00 836.05 C 165.00 838.41 173.57 838.41 173.57 836.05 L 173.57 806.45 L 193.70 806.45 C 196.14 806.45 198.43 805.25 199.82 803.24 C 201.21 801.23 201.53 798.67 200.67 796.38 Z" fill="url(#未命名的渐变_57-2)" fill-rule="nonzero" node-id="273" stroke="none" target-height="111.79413" target-width="64.60054" target-x="136.92879" target-y="726.61584"></path><g node-id="347"><path d="M 174.26 232.03 L 182.04 267.46 L 212.84 276.41 L 182.04 285.35 L 174.26 320.78 L 166.48 285.35 L 135.69 276.41 L 166.48 267.46 L 174.26 232.03 Z" fill="url(#未命名的渐变_11)" fill-opacity="0.9" fill-rule="nonzero" group-id="1" node-id="277" stroke="none" target-height="88.75" target-width="77.149994" target-x="135.69" target-y="232.03"></path></g><path d="M 1067.90 393.38 L 1078.32 440.84 L 1119.58 452.82 L 1078.32 464.81 L 1067.90 512.27 L 1057.49 464.81 L 1016.23 452.82 L 1057.49 440.84 L 1067.90 393.38 Z" fill="url(#未命名的渐变_11-2)" fill-rule="nonzero" node-id="280" stroke="none" target-height="118.890015" target-width="103.349976" target-x="1016.23" target-y="393.38"></path><g node-id="348"><path d="M 1096.36 557.40 L 1103.12 588.21 L 1129.90 595.99 L 1103.12 603.77 L 1096.36 634.58 L 1089.59 603.77 L 1062.81 595.99 L 1089.59 588.21 L 1096.36 557.40 Z" fill="url(#未命名的渐变_11-3)" fill-opacity="0.7" fill-rule="nonzero" group-id="2" node-id="284" stroke="none" target-height="77.17999" target-width="67.089966" target-x="1062.81" target-y="557.4"></path></g><g node-id="349"><path d="M 135.69 606.03 L 142.45 636.84 L 169.23 644.62 L 142.45 652.40 L 135.69 683.21 L 128.92 652.40 L 102.14 644.62 L 128.92 636.84 L 135.69 606.03 Z" fill="url(#未命名的渐变_11-4)" fill-opacity="0.7" fill-rule="nonzero" group-id="3" node-id="289" stroke="none" target-height="77.17999" target-width="67.09" target-x="102.14" target-y="606.03"></path></g><g node-id="350"><path d="M 678.89 134.97 L 683.05 153.93 L 699.52 158.72 L 683.05 163.50 L 678.89 182.46 L 674.73 163.50 L 658.25 158.72 L 674.73 153.93 L 678.89 134.97 Z" fill="url(#未命名的渐变_11-5)" fill-opacity="0.6" fill-rule="nonzero" group-id="4" node-id="294" stroke="none" target-height="47.490005" target-width="41.27002" target-x="658.25" target-y="134.97"></path></g><path d="M 378.59 185.45 C 378.59 201.69 365.42 214.86 349.18 214.86 C 332.94 214.86 319.77 201.69 319.77 185.45 C 319.77 169.21 332.94 156.04 349.18 156.04 C 365.42 156.04 378.59 169.21 378.59 185.45 Z" fill="url(#未命名的渐变_7-2)" fill-rule="nonzero" node-id="297" stroke="none" target-height="58.820007" target-width="58.820007" target-x="319.77" target-y="156.04"></path><path d="M 883.05 211.87 C 883.05 228.11 869.88 241.28 853.64 241.28 C 837.40 241.28 824.23 228.11 824.23 211.87 C 824.23 195.63 837.40 182.46 853.64 182.46 C 869.88 182.46 883.05 195.63 883.05 211.87 Z" fill="url(#未命名的渐变_7-3)" fill-rule="nonzero" node-id="299" stroke="none" target-height="58.820007" target-width="58.819946" target-x="824.23004" target-y="182.45999"></path><g node-id="351"><path d="M 996.92 935.60 C 996.92 953.62 965.21 968.23 926.10 968.23 C 886.99 968.23 855.28 953.62 855.28 935.60 C 855.28 917.58 886.99 902.97 926.10 902.97 C 965.21 902.97 996.92 917.58 996.92 935.60 Z" fill="url(#未命名的渐变_58)" fill-opacity="0.5" fill-rule="nonzero" group-id="5" node-id="303" stroke="none" target-height="65.26001" target-width="141.63995" target-x="855.27997" target-y="902.97"></path></g><g node-id="352"><path d="M 240.05 921.63 C 240.05 939.65 208.34 954.26 169.23 954.26 C 130.12 954.26 98.41 939.65 98.41 921.63 C 98.41 903.61 130.12 889.00 169.23 889.00 C 208.34 889.00 240.05 903.61 240.05 921.63 Z" fill="url(#未命名的渐变_58-2)" fill-opacity="0.5" fill-rule="nonzero" group-id="6" node-id="308" stroke="none" target-height="65.26001" target-width="141.64001" target-x="98.40998" target-y="889"></path></g><path d="M 270.39 832.07 L 195.95 1065.87 L 968.02 1077.93 L 901.14 832.75 L 270.39 832.07 Z" fill="url(#未命名的渐变_53)" fill-rule="nonzero" node-id="311" stroke="none" target-height="245.85999" target-width="772.07" target-x="195.95" target-y="832.07007"></path><path d="M 547.26 375.31 L 547.26 823.00 L 274.19 823.00 L 270.01 476.09 L 547.26 375.31 Z" fill="url(#未命名的渐变_21)" fill-rule="nonzero" node-id="313" stroke="none" target-height="447.69" target-width="277.25" target-x="270.01" target-y="375.31"></path><path d="M 901.14 474.69 L 892.78 807.68 L 547.26 823.00 L 547.26 375.31 L 901.14 474.69 Z" fill="url(#未命名的渐变_21-2)" fill-rule="nonzero" node-id="315" stroke="none" target-height="447.69" target-width="353.88" target-x="547.26" target-y="375.31"></path><path d="M 688.88 244.00 C 685.98 244.00 683.50 241.93 682.98 239.08 C 682.45 236.23 684.04 233.42 686.75 232.39 C 689.22 231.45 690.58 230.96 690.58 230.96 C 693.68 229.89 697.06 231.50 698.18 234.59 C 699.30 237.67 697.73 241.08 694.67 242.24 C 694.67 242.24 693.35 242.72 691.01 243.61 C 690.33 243.87 689.61 244.00 688.88 244.00 Z" fill="url(#未命名的渐变_21-3)" fill-rule="nonzero" node-id="317" stroke="none" target-height="14.113022" target-width="16.843384" target-x="682.4536" target-y="229.88974"></path><path d="M 588.64 579.54 C 586.11 579.54 583.85 577.95 582.99 575.57 C 582.13 573.19 582.87 570.52 584.82 568.91 C 586.95 567.15 589.03 565.41 591.05 563.70 C 593.58 561.56 597.37 561.87 599.51 564.40 C 601.65 566.93 601.34 570.72 598.81 572.86 C 596.74 574.61 594.63 576.38 592.45 578.17 C 591.38 579.05 590.03 579.54 588.64 579.54 Z M 610.33 560.75 C 607.86 560.75 605.64 559.23 604.74 556.93 C 603.84 554.62 604.45 552.00 606.27 550.33 C 608.27 548.47 610.27 546.62 612.19 544.82 C 613.72 543.24 616.00 542.62 618.12 543.21 C 620.24 543.81 621.87 545.52 622.36 547.67 C 622.84 549.82 622.11 552.06 620.45 553.51 C 618.45 555.37 616.45 557.27 614.38 559.18 C 613.27 560.19 611.83 560.75 610.33 560.75 Z M 630.77 540.64 C 628.38 540.64 626.22 539.22 625.27 537.03 C 624.31 534.83 624.76 532.29 626.39 530.54 C 628.26 528.54 630.07 526.54 631.77 524.60 C 633.15 522.88 635.37 522.06 637.54 522.46 C 639.71 522.87 641.48 524.43 642.15 526.53 C 642.83 528.63 642.30 530.93 640.77 532.52 C 638.99 534.52 637.10 536.64 635.15 538.73 C 634.02 539.95 632.43 540.64 630.77 540.64 Z M 649.00 518.53 C 646.76 518.53 644.71 517.27 643.68 515.29 C 642.65 513.30 642.82 510.90 644.11 509.07 C 645.67 506.86 647.11 504.66 648.44 502.54 C 650.19 499.72 653.89 498.86 656.71 500.61 C 659.52 502.35 660.39 506.05 658.64 508.87 C 657.20 511.19 655.64 513.59 653.91 515.99 C 652.78 517.59 650.95 518.53 649.00 518.53 Z M 662.40 493.29 C 660.48 493.29 658.68 492.37 657.55 490.82 C 656.43 489.26 656.11 487.27 656.70 485.44 C 657.45 483.15 658.02 480.81 658.41 478.44 C 658.69 476.27 660.12 474.43 662.15 473.62 C 664.18 472.82 666.49 473.18 668.18 474.57 C 669.86 475.96 670.66 478.15 670.26 480.30 C 669.78 483.31 669.06 486.28 668.11 489.17 C 667.30 491.63 665.01 493.29 662.42 493.29 Z M 661.73 465.36 C 659.44 465.36 657.35 464.06 656.34 462.00 C 655.35 460.01 654.11 458.14 652.66 456.46 C 651.16 454.85 650.66 452.55 651.36 450.46 C 652.06 448.38 653.85 446.84 656.01 446.46 C 658.18 446.08 660.38 446.92 661.75 448.64 C 663.87 451.10 665.68 453.81 667.12 456.72 C 668.03 458.58 667.92 460.78 666.82 462.54 C 665.73 464.29 663.80 465.36 661.73 465.36 Z M 640.73 446.63 C 639.84 446.63 638.97 446.43 638.17 446.05 C 635.89 444.97 633.55 444.02 631.17 443.18 C 628.04 442.08 626.41 438.65 627.51 435.52 C 628.61 432.39 632.04 430.76 635.17 431.86 C 638.03 432.86 640.77 434.00 643.32 435.20 C 645.86 436.40 647.24 439.20 646.62 441.94 C 646.01 444.68 643.57 446.63 640.76 446.63 Z M 613.26 438.52 C 612.88 438.52 612.50 438.48 612.13 438.41 L 607.32 437.51 L 604.08 436.90 C 600.90 436.21 598.85 433.12 599.45 429.93 C 600.05 426.74 603.08 424.60 606.29 425.11 L 609.52 425.71 L 614.38 426.62 C 617.44 427.18 619.55 429.99 619.26 433.08 C 618.97 436.18 616.37 438.54 613.26 438.52 Z M 585.12 432.71 C 584.62 432.71 584.12 432.65 583.63 432.52 C 580.79 431.79 578.04 431.02 575.46 430.23 C 572.29 429.25 570.52 425.89 571.50 422.73 C 572.47 419.56 575.83 417.78 579.00 418.76 C 581.40 419.49 584.00 420.21 586.63 420.89 C 589.57 421.63 591.50 424.45 591.12 427.46 C 590.74 430.47 588.18 432.73 585.14 432.71 Z M 558.19 422.90 C 557.23 422.90 556.29 422.67 555.44 422.23 C 552.79 420.86 550.23 419.38 547.84 417.84 C 545.06 416.04 544.26 412.32 546.06 409.54 C 547.86 406.76 551.58 405.96 554.36 407.76 C 556.42 409.09 558.64 410.37 560.95 411.57 C 563.41 412.84 564.68 415.63 564.02 418.32 C 563.37 421.01 560.96 422.90 558.19 422.90 Z M 535.76 405.35 C 533.98 405.35 532.28 404.56 531.14 403.19 C 529.23 400.89 527.47 398.46 525.87 395.93 C 524.35 393.15 525.25 389.67 527.93 387.97 C 530.61 386.28 534.15 386.97 536.00 389.54 C 537.31 391.63 538.75 393.64 540.33 395.54 C 541.81 397.33 542.13 399.81 541.15 401.91 C 540.16 404.02 538.05 405.36 535.73 405.37 Z M 522.91 380.00 C 520.19 380.00 517.82 378.17 517.12 375.54 C 516.38 372.78 515.77 369.90 515.29 366.96 C 514.76 363.69 516.98 360.61 520.25 360.07 C 523.53 359.54 526.61 361.77 527.14 365.04 C 527.55 367.58 528.08 370.04 528.71 372.46 C 529.56 375.66 527.66 378.95 524.46 379.80 C 523.95 379.93 523.43 380.00 522.91 380.00 Z M 523.61 352.00 C 522.84 352.00 522.08 351.85 521.37 351.56 C 518.30 350.32 516.82 346.83 518.05 343.76 C 519.18 340.95 520.51 338.24 522.05 335.63 C 523.73 332.77 527.41 331.82 530.26 333.50 C 533.12 335.19 534.07 338.86 532.39 341.72 C 531.15 343.81 530.06 345.99 529.15 348.24 C 528.24 350.50 526.05 351.99 523.61 352.00 Z M 539.82 328.54 C 537.41 328.54 535.24 327.10 534.30 324.89 C 533.36 322.67 533.83 320.11 535.50 318.38 C 537.40 316.38 539.50 314.38 541.61 312.38 C 544.04 310.13 547.84 310.28 550.09 312.71 C 552.34 315.14 552.19 318.94 549.76 321.19 C 547.76 323.03 545.89 324.88 544.15 326.69 C 543.01 327.86 541.45 328.52 539.82 328.51 Z M 561.52 309.75 C 558.93 309.76 556.63 308.10 555.81 305.65 C 555.00 303.19 555.85 300.49 557.92 298.94 C 560.11 297.31 562.40 295.66 564.73 294.03 C 566.48 292.76 568.79 292.53 570.76 293.44 C 572.72 294.34 574.05 296.24 574.23 298.40 C 574.41 300.56 573.40 302.65 571.61 303.86 C 569.37 305.42 567.18 307.00 565.10 308.56 C 564.06 309.32 562.81 309.73 561.52 309.72 Z M 585.36 293.75 C 582.67 293.75 580.31 291.96 579.58 289.38 C 578.85 286.79 579.94 284.03 582.23 282.63 C 584.56 281.20 586.97 279.76 589.39 278.34 C 592.25 276.67 595.93 277.63 597.60 280.49 C 599.27 283.35 598.31 287.03 595.45 288.70 C 593.09 290.08 590.75 291.48 588.45 292.86 C 587.52 293.42 586.45 293.71 585.36 293.71 Z M 610.36 279.54 C 607.60 279.54 605.20 277.67 604.53 274.99 C 603.86 272.32 605.10 269.53 607.54 268.24 C 610.00 266.94 612.45 265.66 614.89 264.40 C 617.75 263.27 621.00 264.49 622.42 267.22 C 623.83 269.95 622.95 273.31 620.38 275.00 C 617.99 276.23 615.58 277.48 613.17 278.76 C 612.31 279.24 611.35 279.49 610.37 279.50 Z M 636.05 266.68 C 633.24 266.69 630.80 264.74 630.18 262.00 C 629.56 259.25 630.93 256.45 633.48 255.25 C 636.02 254.05 638.48 252.88 640.98 251.75 C 643.96 250.51 647.39 251.85 648.74 254.79 C 650.08 257.72 648.86 261.20 645.98 262.65 C 643.56 263.76 641.10 264.91 638.60 266.10 C 637.80 266.46 636.94 266.65 636.06 266.64 Z M 662.26 254.87 C 659.42 254.86 656.97 252.86 656.40 250.08 C 655.83 247.29 657.29 244.49 659.90 243.36 C 662.57 242.21 665.11 241.13 667.53 240.14 C 670.57 238.96 674.00 240.42 675.25 243.43 C 676.50 246.44 675.11 249.90 672.13 251.22 C 669.77 252.22 667.25 253.22 664.62 254.39 C 663.87 254.69 663.07 254.84 662.27 254.83 Z" fill="url(#未命名的渐变_21-4)" fill-rule="nonzero" node-id="319" stroke="none" target-height="340.58353" target-width="161.73663" target-x="514.7598" target-y="238.9581"></path><path d="M 569.46 594.80 C 566.89 594.80 564.61 593.17 563.78 590.74 C 562.95 588.31 563.76 585.62 565.79 584.05 C 566.85 583.24 567.90 582.42 568.93 581.62 C 571.55 579.60 575.30 580.08 577.33 582.68 C 579.36 585.29 578.90 589.05 576.30 591.09 L 573.12 593.55 C 572.07 594.36 570.79 594.80 569.46 594.80 Z" fill="url(#未命名的渐变_21-5)" fill-rule="nonzero" node-id="321" stroke="none" target-height="15.204163" target-width="16.41333" target-x="562.94775" target-y="579.60065"></path><path d="M 614.14 576.40 L 270.01 476.09 L 270.01 832.75 L 611.35 940.03 L 614.14 576.40 Z" fill="url(#未命名的渐变_53-2)" fill-rule="nonzero" node-id="323" stroke="none" target-height="463.94003" target-width="344.13" target-x="270.01" target-y="476.09"></path><path d="M 901.14 474.69 L 614.14 576.40 L 611.35 940.03 L 901.14 832.75 L 901.14 474.69 Z" fill="url(#未命名的渐变_62)" fill-rule="nonzero" node-id="325" stroke="none" target-height="465.34006" target-width="289.79004" target-x="611.35" target-y="474.68997"></path><path d="M 614.14 576.40 L 518.00 738.01 L 173.87 623.77 L 270.01 476.09 L 614.14 576.40 Z" fill="url(#未命名的渐变_53-3)" fill-rule="nonzero" node-id="327" stroke="none" target-height="261.92" target-width="440.27002" target-x="173.87" target-y="476.09"></path><path d="M 713.90 738.01 L 991.70 625.16 L 901.14 474.69 L 614.14 576.40 L 713.90 738.01 Z" fill="url(#未命名的渐变_53-4)" fill-rule="nonzero" node-id="329" stroke="none" target-height="263.32004" target-width="377.56" target-x="614.14" target-y="474.68997"></path><path d="M 612.98 193.18 L 602.24 213.52 L 635.66 293.59 L 842.14 130.14 L 612.98 193.18 Z" fill="url(#未命名的渐变_63)" fill-rule="nonzero" node-id="331" stroke="none" target-height="163.45" target-width="239.89996" target-x="602.24" target-y="130.14"></path><path d="M 539.37 162.59 L 842.14 130.14 L 602.24 213.52 L 539.37 162.59 Z" fill="url(#未命名的渐变_53-5)" fill-rule="nonzero" node-id="333" stroke="none" target-height="83.37999" target-width="302.76996" target-x="539.37" target-y="130.14"></path><path d="M 635.66 293.59 L 842.14 130.14 L 669.72 230.41 L 635.66 293.59 Z" fill="url(#未命名的渐变_53-6)" fill-rule="nonzero" node-id="335" stroke="none" target-height="163.45" target-width="206.47998" target-x="635.66" target-y="130.14"></path><path d="M 754.07 258.04 L 842.14 130.14 L 669.72 230.41 L 754.07 258.04 Z" fill="url(#未命名的渐变_53-7)" fill-rule="nonzero" node-id="337" stroke="none" target-height="127.90001" target-width="172.41998" target-x="669.72" target-y="130.14"></path><path d="M 518.00 738.01 L 521.32 759.55 L 614.14 583.33 L 614.14 576.40 L 518.00 738.01 Z" fill="url(#未命名的渐变_53-8)" fill-rule="nonzero" node-id="339" stroke="none" target-height="183.1499" target-width="96.140015" target-x="518" target-y="576.4"></path><path d="M 173.87 623.77 L 175.24 640.08 L 521.32 759.55 L 518.00 738.01 L 173.87 623.77 Z" fill="url(#未命名的渐变_62-2)" fill-rule="nonzero" node-id="341" stroke="none" target-height="135.7799" target-width="347.45" target-x="173.87" target-y="623.77"></path><path d="M 713.90 738.01 L 709.97 757.02 L 614.14 583.33 L 614.14 576.40 L 713.90 738.01 Z" fill="url(#未命名的渐变_53-9)" fill-rule="nonzero" node-id="343" stroke="none" target-height="180.62" target-width="99.76001" target-x="614.14" target-y="576.4"></path><path d="M 991.70 625.16 L 991.70 639.97 L 709.97 757.02 L 713.90 738.01 L 991.70 625.16 Z" fill="url(#未命名的渐变_2)" fill-rule="nonzero" node-id="345" stroke="none" target-height="131.86005" target-width="281.72998" target-x="709.97003" target-y="625.16"></path></svg>