<?xml version="1.0" standalone="no"?><!DOCTYPE svg PUBLIC "-//W3C//DTD SVG 1.1//EN" "http://www.w3.org/Graphics/SVG/1.1/DTD/svg11.dtd"><svg t="1772512858213" class="icon" viewBox="0 0 1024 1024" version="1.1" xmlns="http://www.w3.org/2000/svg" p-id="1574" xmlns:xlink="http://www.w3.org/1999/xlink" width="200" height="200"><path d="M650.24 512.8704H375.6544a30.72 30.72 0 0 1 0-61.44H650.24a30.72 30.72 0 1 1 0 61.44zM650.24 712.4992H375.6544a30.72 30.72 0 0 1 0-61.44H650.24a30.72 30.72 0 1 1 0 61.44z" fill="#6366f1" p-id="1575"></path><path d="M700.16 131.7888H680.96a91.4432 91.4432 0 0 0-87.04-63.3856H431.5648a91.4944 91.4944 0 0 0-87.04 63.3856h-19.0464a209.4592 209.4592 0 0 0-209.2032 209.2544v412.0576A209.4592 209.4592 0 0 0 325.4784 962.56h374.6816a209.4592 209.4592 0 0 0 209.2544-209.2032V341.0432a209.4592 209.4592 0 0 0-209.2544-209.2544z m-268.5952-1.9456H593.92a29.9008 29.9008 0 0 1 29.8496 29.8496V162.7648a32.768 32.768 0 0 1-32.7168 32.4608h-156.672a32.768 32.768 0 0 1-32.7168-32.4608V159.6928a29.9008 29.9008 0 0 1 29.9008-29.8496z m416.4096 623.2576A147.968 147.968 0 0 1 700.16 901.12H325.4784a147.9168 147.9168 0 0 1-147.7632-147.7632V341.0432a147.9168 147.9168 0 0 1 147.7632-147.8144h19.1488a91.392 91.392 0 0 0 87.04 63.488H593.92a91.4432 91.4432 0 0 0 87.04-63.488h19.0976a147.968 147.968 0 0 1 147.8144 147.8144z" fill="#6366f1" p-id="1576"></path></svg>