<svg viewBox="0 0 1024 1024" xmlns="http://www.w3.org/2000/svg" width="200" height="200"><path d="M512 512a176 176 0 1 0 0-352 176 176 0 0 0 0 352z m0-276a100 100 0 1 1 0 200 100 100 0 0 1 0-200z" fill="#6366f1"/><path d="M831.5 783.5C783.3 693.3 654.2 640 512 640s-271.3 53.3-319.5 143.5a38 38 0 0 0 0 37c48.2 90.2 177.3 143.5 319.5 143.5s271.3-53.3 319.5-143.5a38 38 0 0 0 0-37zM512 788c-118.2 0-222.5 39.6-263.5 97 41 14.2 145.3 63 263.5 63s222.5-48.8 263.5-63c-41-57.4-145.3-97-263.5-97z" fill="#6366f1"/></svg>